<?xml version="1.0" encoding="UTF-8" standalone="no"?>
<!-- Created with Inkscape (http://www.inkscape.org/) -->

<svg
   xmlns:dc="http://purl.org/dc/elements/1.1/"
   xmlns:cc="http://creativecommons.org/ns#"
   xmlns:rdf="http://www.w3.org/1999/02/22-rdf-syntax-ns#"
   xmlns:svg="http://www.w3.org/2000/svg"
   xmlns="http://www.w3.org/2000/svg"
   xmlns:sodipodi="http://sodipodi.sourceforge.net/DTD/sodipodi-0.dtd"
   xmlns:inkscape="http://www.inkscape.org/namespaces/inkscape"
   width="210mm"
   height="297mm"
   viewBox="0 0 210 297"
   version="1.1"
   id="svg4534"
   inkscape:version="0.92.1 r15371"
   sodipodi:docname="p4ela.svg">
  <defs
     id="defs4528" />
  <sodipodi:namedview
     id="base"
     pagecolor="#ffffff"
     bordercolor="#666666"
     borderopacity="1.0"
     inkscape:pageopacity="0.0"
     inkscape:pageshadow="2"
     inkscape:zoom="0.7"
     inkscape:cx="451.96664"
     inkscape:cy="632.21616"
     inkscape:document-units="mm"
     inkscape:current-layer="layer1"
     showgrid="true"
     inkscape:snap-grids="false"
     inkscape:object-paths="true"
     showguides="false"
     inkscape:window-width="1920"
     inkscape:window-height="1057"
     inkscape:window-x="-8"
     inkscape:window-y="-8"
     inkscape:window-maximized="1">
    <inkscape:grid
       type="xygrid"
       id="grid5079" />
  </sodipodi:namedview>
  <metadata
     id="metadata4531">
    <rdf:RDF>
      <cc:Work
         rdf:about="">
        <dc:format>image/svg+xml</dc:format>
        <dc:type
           rdf:resource="http://purl.org/dc/dcmitype/StillImage" />
        <dc:title></dc:title>
      </cc:Work>
    </rdf:RDF>
  </metadata>
  <g
     inkscape:label="Layer 1"
     inkscape:groupmode="layer"
     id="layer1">
    <g
       id="g5089"
       transform="translate(30.427084,-2.6458367)">
      <path
         sodipodi:nodetypes="ccscccscccc"
         inkscape:connector-curvature="0"
         id="path5081"
         d="m 79.750925,51.179188 -0.375926,26.216649 c 0,0 -9.067661,15.033399 -9.231464,23.718003 -0.179128,9.49715 10.554382,26.55283 10.554382,26.55283 l 2.645832,30.42708 2.645834,-30.42708 c 4.60588,-8.86831 10.279545,-14.8442 10.373507,-26.66354 0.07738,-9.733084 -4.748756,-15.804839 -9.050591,-23.607293 L 87.080404,51.269171 c -1.909743,0.841231 -4.319928,1.757195 -7.329474,-0.08998 z"
         style="fill:none;stroke:#000000;stroke-width:2;stroke-linecap:butt;stroke-linejoin:round;stroke-miterlimit:4;stroke-dasharray:none;stroke-opacity:1" />
      <ellipse
         ry="7.0870538"
         rx="6.8980651"
         cy="45.220608"
         cx="83.485489"
         id="path5083"
         style="opacity:1;fill:none;fill-opacity:1;stroke:#000000;stroke-width:2;stroke-linecap:round;stroke-linejoin:round;stroke-miterlimit:4;stroke-dasharray:none;stroke-opacity:1;paint-order:stroke fill markers" />
    </g>
    <path
       style="fill:none;stroke:#000000;stroke-width:1;stroke-linecap:butt;stroke-linejoin:miter;stroke-opacity:1;stroke-miterlimit:4;stroke-dasharray:none"
       d="M 110.39592,56.292871 C 101.37929,50.545649 91.128684,47.035578 80.886906,46.401782 67.36417,45.56495 40.082597,51.813597 49.70387,56.040174 61.744835,61.32971 69.817483,66.064736 79.785402,65.434226 92.078206,64.656658 110.39344,60.249872 110.39344,60.249872 Z"
       id="path5085"
       inkscape:connector-curvature="0"
       sodipodi:nodetypes="cssscc" />
    <path
       sodipodi:nodetypes="cssscc"
       inkscape:connector-curvature="0"
       id="path5097"
       d="M 109.96665,63.272982 C 100.95002,57.52576 90.699418,54.015689 80.45764,53.381893 66.934904,52.545061 39.653331,58.793708 49.274604,63.020285 61.315569,68.309821 69.388217,73.044847 79.356136,72.414337 91.64894,71.636769 109.96417,67.229983 109.96417,67.229983 Z"
       style="fill:none;stroke:#000000;stroke-width:1;stroke-linecap:butt;stroke-linejoin:miter;stroke-miterlimit:4;stroke-dasharray:none;stroke-opacity:1" />
    <path
       style="fill:none;stroke:#000000;stroke-width:1;stroke-linecap:butt;stroke-linejoin:miter;stroke-miterlimit:4;stroke-dasharray:none;stroke-opacity:1"
       d="m 117.57155,55.834847 c 9.01663,-5.747222 19.26723,-9.257293 29.50901,-9.891089 13.52273,-0.836832 40.8043,5.411815 31.18303,9.638392 -12.04096,5.289536 -20.11361,10.024562 -30.08153,9.394052 -12.2928,-0.777568 -30.60803,-5.184354 -30.60803,-5.184354 z"
       id="path5099"
       inkscape:connector-curvature="0"
       sodipodi:nodetypes="cssscc" />
    <path
       sodipodi:nodetypes="cssscc"
       inkscape:connector-curvature="0"
       id="path5101"
       d="m 117.63873,63.397132 c 9.01663,-5.747222 19.26723,-9.257293 29.50901,-9.891089 13.52273,-0.836832 40.8043,5.411815 31.18303,9.638392 -12.04096,5.289536 -20.11361,10.024562 -30.08153,9.394052 -12.2928,-0.777568 -30.60803,-5.184354 -30.60803,-5.184354 z"
       style="fill:none;stroke:#000000;stroke-width:1;stroke-linecap:butt;stroke-linejoin:miter;stroke-miterlimit:4;stroke-dasharray:none;stroke-opacity:1" />
    <path
       style="fill:none;stroke:#000000;stroke-width:0.26458332px;stroke-linecap:butt;stroke-linejoin:miter;stroke-opacity:1"
       d="m 109.80208,74.75 c 2.73343,1.751848 5.38224,1.811541 7.9375,0"
       id="path5103"
       inkscape:connector-curvature="0"
       sodipodi:nodetypes="cc" />
    <path
       style="fill:none;stroke:#000000;stroke-width:0.26458332px;stroke-linecap:butt;stroke-linejoin:miter;stroke-opacity:1"
       d="m 106.02636,81.74107 c 4.97845,2.644577 10.15659,3.092544 15.66879,-0.134147"
       id="path5105"
       inkscape:connector-curvature="0"
       sodipodi:nodetypes="cc" />
    <path
       style="fill:none;stroke:#000000;stroke-width:0.26458332px;stroke-linecap:butt;stroke-linejoin:miter;stroke-opacity:1"
       d="m 102.7041,89.333148 c 8.162,4.822375 15.54699,3.428768 22.70837,0.246179"
       id="path5121"
       inkscape:connector-curvature="0"
       sodipodi:nodetypes="cc" />
    <path
       style="fill:none;stroke:#000000;stroke-width:0.26458332px;stroke-linecap:butt;stroke-linejoin:miter;stroke-opacity:1"
       d="m 100.58829,97.987833 c 9.3966,4.212627 18.06454,3.761837 26.20194,-0.08443"
       id="path5123"
       inkscape:connector-curvature="0"
       sodipodi:nodetypes="cc" />
    <path
       style="fill:none;stroke:#000000;stroke-width:0.26458332px;stroke-linecap:butt;stroke-linejoin:miter;stroke-opacity:1"
       d="m 102.44844,107.50602 c 8.19989,4.17549 15.7494,3.47322 22.94337,0.10433"
       id="path5125"
       inkscape:connector-curvature="0"
       sodipodi:nodetypes="cc" />
    <path
       style="fill:none;stroke:#000000;stroke-width:0.26458332px;stroke-linecap:butt;stroke-linejoin:miter;stroke-opacity:1"
       d="m 106.10138,115.95707 c 5.30961,2.50845 10.49148,2.46211 15.5491,-0.0691"
       id="path5127"
       inkscape:connector-curvature="0"
       sodipodi:nodetypes="cc" />
    <path
       style="fill:none;stroke:#000000;stroke-width:0.26458332px;stroke-linecap:butt;stroke-linejoin:miter;stroke-opacity:1"
       d="m 111.125,125.02083 c 2.18494,2.24558 3.8605,1.77449 5.29167,0"
       id="path5129"
       inkscape:connector-curvature="0"
       sodipodi:nodetypes="cc" />
    <path
       style="opacity:1;fill:#000000;fill-opacity:1;stroke:#000000;stroke-width:1.34983134;stroke-linecap:round;stroke-linejoin:round;stroke-miterlimit:4;stroke-dasharray:none;stroke-opacity:1;paint-order:stroke fill markers"
       d="m 425.44214,286.32423 c -1.98025,-0.43084 -5.67367,-1.77979 -6.28596,-2.29583 -0.1367,-0.11522 0.0609,-21.02198 0.43917,-46.45948 0.37824,-25.4375 0.69098,-46.59476 0.69498,-47.01612 l 0.007,-0.76612 2.23214,0.71918 c 3.46666,1.11693 10.60736,1.28646 14.55313,0.34552 1.6694,-0.3981 3.05887,-0.69684 3.08771,-0.66386 0.0288,0.033 0.24602,21.03318 0.48262,46.66711 0.2366,25.63393 0.50619,46.73133 0.59909,46.88312 0.23944,0.39119 -3.48653,1.97682 -6.08537,2.58969 -2.68071,0.63218 -6.81062,0.63081 -9.72477,-0.003 z"
       id="path5131"
       inkscape:connector-curvature="0"
       transform="scale(0.26458333)" />
    <path
       style="opacity:1;fill:#000000;fill-opacity:1;stroke:#000000;stroke-width:1.34983134;stroke-linecap:round;stroke-linejoin:round;stroke-miterlimit:4;stroke-dasharray:none;stroke-opacity:1;paint-order:stroke fill markers"
       d="m 424.31163,348.61994 c -9.5047,-0.61885 -19.27688,-3.28145 -28.77432,-7.84006 -1.73422,-0.8324 -3.2279,-1.70828 -3.31927,-1.9464 -0.31719,-0.82658 10.45929,-25.92005 11.64334,-27.11201 0.17602,-0.17719 1.59321,0.23312 3.28365,0.95068 3.9284,1.66755 9.03677,3.26548 12.98694,4.06241 4.50015,0.90789 15.81056,0.91228 20.28919,0.008 3.98874,-0.80547 9.59936,-2.63627 13.39203,-4.36994 2.8417,-1.29898 2.94943,-1.31964 3.44949,-0.6615 0.2839,0.37364 2.41929,4.45613 4.74532,9.0722 3.82651,7.59385 7.93244,17.07731 7.93244,18.32157 0,0.82882 -10.43775,4.67394 -18.16075,6.69015 -5.12713,1.33851 -11.09764,2.37791 -15.2321,2.65171 -6.52658,0.43223 -7.94968,0.45239 -12.23596,0.17331 z"
       id="path5133"
       inkscape:connector-curvature="0"
       transform="scale(0.26458333)" />
    <path
       style="opacity:1;fill:#000000;fill-opacity:1;stroke:#000000;stroke-width:1.34983134;stroke-linecap:round;stroke-linejoin:round;stroke-miterlimit:4;stroke-dasharray:none;stroke-opacity:1;paint-order:stroke fill markers"
       d="m 420.19314,415.97618 c -8.64248,-1.09619 -20.2849,-4.34664 -26.68127,-7.44916 -1.58337,-0.768 -1.6273,-0.83765 -2.97006,-4.7081 -3.56909,-10.28785 -5.85099,-20.1112 -6.2014,-26.69643 -0.12282,-2.30804 -0.12259,-4.19643 5e-4,-4.19643 0.12309,0 1.39316,0.46251 2.82238,1.02779 10.20899,4.03785 22.34313,6.90945 33.46723,7.92017 5.79083,0.52614 17.75196,0.25828 23.41707,-0.52442 8.77037,-1.21174 21.02733,-4.55004 29.41471,-8.01139 l 1.91472,-0.79018 -0.24136,4.0283 c -0.59582,9.94438 -1.9875,18.45696 -4.38311,26.81057 l -1.30999,4.56799 -1.56513,0.69233 c -5.78224,2.55777 -17.52634,5.87265 -24.7227,6.97823 -5.161,0.79288 -17.93701,0.98803 -22.96159,0.35073 z"
       id="path5135"
       inkscape:connector-curvature="0"
       transform="scale(0.26458333)" />
    <path
       style="opacity:1;fill:#000000;fill-opacity:1;stroke:#000000;stroke-width:1.34983134;stroke-linecap:round;stroke-linejoin:round;stroke-miterlimit:4;stroke-dasharray:none;stroke-opacity:1;paint-order:stroke fill markers"
       d="m 428.15473,477.23494 c -0.49107,-0.14991 -1.56398,-0.61543 -2.38424,-1.03448 -1.42839,-0.72972 -1.50159,-0.84889 -1.73325,-2.82172 -0.20563,-1.75114 -0.78941,-2.99643 -3.8956,-8.30982 -6.75355,-11.55253 -12.88087,-22.79652 -12.58435,-23.09304 0.0965,-0.0965 1.67671,0.30466 3.51148,0.89157 7.23812,2.31531 13.02893,3.07028 21.54906,2.8094 6.94038,-0.2125 10.81767,-0.85086 16.74443,-2.7568 1.77398,-0.57048 3.28335,-0.9793 3.35416,-0.90849 0.0708,0.0708 -1.38325,2.67608 -3.23124,5.78948 -10.57734,17.82015 -13.14968,22.67232 -13.44208,25.35568 -0.13154,1.20723 -0.44341,2.44105 -0.69304,2.74183 -1.04845,1.2633 -5.01909,2.00078 -7.19533,1.33639 z"
       id="path5137"
       inkscape:connector-curvature="0"
       transform="scale(0.26458333)" />
    <path
       style="opacity:1;fill:#000000;fill-opacity:1;stroke:#000000;stroke-width:3.81789947;stroke-linecap:round;stroke-linejoin:round;stroke-miterlimit:4;stroke-dasharray:none;stroke-opacity:1;paint-order:stroke fill markers"
       d="m 549.88628,271.03652 c -20.65807,-2.16675 -56.94375,-8.30716 -85.98532,-14.55078 l -15.02994,-3.23127 v -6.8374 -6.8374 l 6.4109,-3.58517 6.41089,-3.58518 22.90833,4.50043 c 43.78132,8.60101 75.78427,12.26437 92.23697,10.55831 19.11555,-1.98218 32.85511,-6.27134 63.68975,-19.88239 l 19.42583,-8.57496 8.57879,4.15237 c 9.65113,4.67142 11.95543,7.30834 8.9835,10.28027 -2.57991,2.57991 -53.80382,25.43118 -67.91708,30.29818 -17.18746,5.92716 -28.87306,8.01984 -43.70886,7.82748 -6.85753,-0.0889 -14.05922,-0.32853 -16.00376,-0.53249 z"
       id="path5157"
       inkscape:connector-curvature="0"
       transform="scale(0.26458333)" />
    <path
       style="opacity:1;fill:#000000;fill-opacity:1;stroke:#000000;stroke-width:3.81789947;stroke-linecap:round;stroke-linejoin:round;stroke-miterlimit:4;stroke-dasharray:none;stroke-opacity:1;paint-order:stroke fill markers"
       d="m 276.17591,270.05996 c -12.80192,-1.97276 -31.83629,-8.47415 -55.09428,-18.81805 -30.668,-13.63946 -38.86268,-17.65833 -39.52486,-19.38392 -0.94243,-2.45594 2.39451,-5.49766 10.11269,-9.21803 6.45962,-3.1137 7.17687,-3.25402 10.10153,-1.97622 1.73151,0.75651 8.8303,3.96146 15.7751,7.12211 46.4603,21.14458 65.90078,24.76403 105.77484,19.69332 17.08376,-2.17251 49.37721,-7.68705 67.40288,-11.50995 l 11.04824,-2.34312 4.60912,2.70359 4.60913,2.70359 0.29753,6.7012 0.29753,6.7012 -3.83306,1.01667 c -18.20537,4.82878 -73.00593,14.44347 -95.47568,16.75109 -17.75588,1.82351 -23.48393,1.80074 -36.10071,-0.14348 z"
       id="path5159"
       inkscape:connector-curvature="0"
       transform="scale(0.26458333)" />
    <path
       style="fill:none;stroke:#000000;stroke-width:2;stroke-linecap:butt;stroke-linejoin:miter;stroke-opacity:1;stroke-miterlimit:4;stroke-dasharray:none"
       d="M 109.84376,36.851873 104.50239,24.385082"
       id="path5161"
       inkscape:connector-curvature="0" />
    <path
       style="fill:none;stroke:#000000;stroke-width:2;stroke-linecap:butt;stroke-linejoin:miter;stroke-opacity:1;stroke-miterlimit:4;stroke-dasharray:none"
       d="M 118.56437,37.341688 128.0221,25.721429"
       id="path5163"
       inkscape:connector-curvature="0" />
    <ellipse
       style="opacity:1;fill:#000000;fill-opacity:1;stroke:#000000;stroke-width:2;stroke-linecap:round;stroke-linejoin:round;stroke-miterlimit:4;stroke-dasharray:none;stroke-opacity:1;paint-order:stroke fill markers"
       id="path5165"
       cx="103.56145"
       cy="23.06196"
       rx="1.5078913"
       ry="1.4176157" />
    <ellipse
       ry="1.4176157"
       rx="1.5078913"
       cy="24.384876"
       cx="128.98035"
       id="ellipse5169"
       style="opacity:1;fill:#000000;fill-opacity:1;stroke:#000000;stroke-width:2;stroke-linecap:round;stroke-linejoin:round;stroke-miterlimit:4;stroke-dasharray:none;stroke-opacity:1;paint-order:stroke fill markers" />
    <path
       style="opacity:1;fill:#000000;fill-opacity:1;stroke:#000000;stroke-width:2;stroke-linecap:round;stroke-linejoin:round;stroke-miterlimit:4;stroke-dasharray:none;stroke-opacity:1;paint-order:stroke fill markers"
       id="path5182"
       sodipodi:type="arc"
       sodipodi:cx="110.85004"
       sodipodi:cy="41.156246"
       sodipodi:rx="0.33408689"
       sodipodi:ry="0.33408689"
       sodipodi:start="0"
       sodipodi:end="0.082231711"
       sodipodi:open="true"
       d="m 111.18412,41.156246 a 0.33408689,0.33408689 0 0 1 -0.001,0.02744" />
    <path
       d="m 116.32906,41.223064 a 0.33408689,0.33408689 0 0 1 -0.001,0.02744"
       sodipodi:open="true"
       sodipodi:end="0.082231711"
       sodipodi:start="0"
       sodipodi:ry="0.33408689"
       sodipodi:rx="0.33408689"
       sodipodi:cy="41.223064"
       sodipodi:cx="115.99497"
       sodipodi:type="arc"
       id="path5184"
       style="opacity:1;fill:#000000;fill-opacity:1;stroke:#000000;stroke-width:2;stroke-linecap:round;stroke-linejoin:round;stroke-miterlimit:4;stroke-dasharray:none;stroke-opacity:1;paint-order:stroke fill markers" />
    <path
       style="fill:none;stroke:#000000;stroke-width:1;stroke-linecap:round;stroke-linejoin:miter;stroke-miterlimit:4;stroke-dasharray:none;stroke-opacity:1"
       d="m 112.05275,45.29892 c 1.02562,-0.199367 1.65724,-0.792724 3.67495,0"
       id="path5186"
       inkscape:connector-curvature="0"
       sodipodi:nodetypes="cc" />
  </g>
</svg>
