<?xml version="1.0" encoding="UTF-8" standalone="no"?>
<!-- Created with Inkscape (http://www.inkscape.org/) -->

<svg
   xmlns:dc="http://purl.org/dc/elements/1.1/"
   xmlns:cc="http://creativecommons.org/ns#"
   xmlns:rdf="http://www.w3.org/1999/02/22-rdf-syntax-ns#"
   xmlns:svg="http://www.w3.org/2000/svg"
   xmlns="http://www.w3.org/2000/svg"
   xmlns:sodipodi="http://sodipodi.sourceforge.net/DTD/sodipodi-0.dtd"
   xmlns:inkscape="http://www.inkscape.org/namespaces/inkscape"
   inkscape:version="0.91 r13725"
   sodipodi:docname="тыковка 1 B&amp;W.svg"
   id="svg8"
   version="1.1"
   viewBox="0 0 210 297"
   height="297mm"
   width="210mm">
  <sodipodi:namedview
     inkscape:object-nodes="false"
     inkscape:snap-intersection-paths="false"
     inkscape:object-paths="false"
     inkscape:window-maximized="1"
     inkscape:window-y="-8"
     inkscape:window-x="-8"
     inkscape:window-height="988"
     inkscape:window-width="1680"
     inkscape:snap-grids="false"
     showgrid="true"
     inkscape:current-layer="svg8"
     inkscape:document-units="mm"
     inkscape:cy="588.97923"
     inkscape:cx="71.829087"
     inkscape:zoom="0.9899495"
     inkscape:pageshadow="2"
     inkscape:pageopacity="0.0"
     borderopacity="1.0"
     bordercolor="#666666"
     pagecolor="#ffffff"
     id="base">
    <inkscape:grid
       id="grid4489"
       type="xygrid" />
  </sodipodi:namedview>
  <defs
     id="defs2" />
  <metadata
     id="metadata5">
    <rdf:RDF>
      <cc:Work
         rdf:about="">
        <dc:format>image/svg+xml</dc:format>
        <dc:type
           rdf:resource="http://purl.org/dc/dcmitype/StillImage" />
        <dc:title></dc:title>
      </cc:Work>
    </rdf:RDF>
  </metadata>
  <g
     id="layer1"
     inkscape:groupmode="layer"
     inkscape:label="Layer 1">
    <g
       id="g4537">
      <path
         style="fill:none;stroke:#000000;stroke-width:3.9999826;stroke-linecap:butt;stroke-linejoin:miter;stroke-miterlimit:4;stroke-dasharray:none;stroke-opacity:1;opacity:1"
         d="M 94.88146,98.055375 94.880578,236.86435"
         id="path4535"
         inkscape:connector-curvature="0" />
      <path
         style="fill:#ffffff;fill-opacity:1;stroke:#000000;stroke-width:2;stroke-linecap:butt;stroke-linejoin:round;stroke-miterlimit:4;stroke-dasharray:none;stroke-opacity:1;paint-order:markers fill stroke;opacity:1"
         d="M 122.44859,77.288236 C 122.21517,91.530592 109.42272,100.80795 94.786187,99.070702 79.706067,101.7434 60.894167,86.656588 65.787444,73.279193 c 4.5458,-12.427451 9.323709,-15.748997 30.60236,-14.56619 16.443166,-4.275946 26.337836,1.548107 26.058786,18.575233 z"
         id="path4491"
         inkscape:connector-curvature="0"
         sodipodi:nodetypes="scscs" />
      <ellipse
         ry="2.5390604"
         rx="2.7395127"
         cy="72.790504"
         cx="84.135368"
         id="ellipse4506"
         style="fill:#000000;fill-opacity:1;stroke:#000000;stroke-width:2;stroke-linecap:round;stroke-linejoin:round;stroke-miterlimit:4;stroke-dasharray:none;stroke-opacity:1;paint-order:markers fill stroke;opacity:1" />
      <ellipse
         style="fill:#000000;fill-opacity:1;stroke:#000000;stroke-width:2;stroke-linecap:round;stroke-linejoin:round;stroke-miterlimit:4;stroke-dasharray:none;stroke-opacity:1;paint-order:markers fill stroke;opacity:1"
         id="path4504"
         cx="103.94017"
         cy="73.813728"
         rx="2.7395127"
         ry="2.5390604" />
      <ellipse
         style="fill:#000000;fill-opacity:1;stroke:#000000;stroke-width:2;stroke-linecap:round;stroke-linejoin:round;stroke-miterlimit:4;stroke-dasharray:none;stroke-opacity:1;paint-order:markers fill stroke;opacity:1"
         id="path4508"
         cx="93.650291"
         cy="87.11039"
         rx="8.3521729"
         ry="4.7440343" />
      <path
         style="fill:none;stroke:#000000;stroke-width:4;stroke-linecap:butt;stroke-linejoin:miter;stroke-miterlimit:4;stroke-dasharray:none;stroke-opacity:1;opacity:1"
         d="m 40.624967,118.46395 112.253193,-0.8018"
         id="path4539"
         inkscape:connector-curvature="0" />
      <path
         style="fill:none;stroke:#000000;stroke-width:2;stroke-linecap:butt;stroke-linejoin:miter;stroke-miterlimit:4;stroke-dasharray:none;stroke-opacity:1;opacity:1"
         d="m 87.397134,112.31676 c 4.826679,-1.81888 9.275998,-2.22266 13.096206,-0.26727"
         id="path4547"
         inkscape:connector-curvature="0"
         sodipodi:nodetypes="cc" />
      <path
         style="fill:none;stroke:#000000;stroke-width:2;stroke-linecap:round;stroke-linejoin:miter;stroke-miterlimit:4;stroke-dasharray:none;stroke-opacity:1;opacity:1"
         d="m 146.06279,111.78222 c 4.09257,7.9627 3.76031,16.88212 -1.46998,26.86058"
         id="path4553"
         inkscape:connector-curvature="0"
         sodipodi:nodetypes="cc" />
      <path
         style="fill:none;stroke:#000000;stroke-width:2;stroke-linecap:round;stroke-linejoin:miter;stroke-miterlimit:4;stroke-dasharray:none;stroke-opacity:1;opacity:1"
         d="m 46.772165,112.71766 c -4.088329,12.18844 -2.357786,18.14237 0.534541,22.85154"
         id="path4559"
         inkscape:connector-curvature="0"
         sodipodi:nodetypes="cc" />
      <path
         style="fill:#ffffff;fill-opacity:1;stroke:#000000;stroke-width:2;stroke-linecap:round;stroke-linejoin:round;stroke-miterlimit:4;stroke-dasharray:none;stroke-opacity:1;opacity:1"
         d="m 46.772167,112.71766 c 13.328256,0.68499 27.047433,-1.45894 40.624967,-0.4009 7.896314,4.45065 9.535239,2.30698 13.096206,-0.26727 l 45.56945,-0.26727 c -2.03169,6.6004 -5.83103,10.50283 -1.46998,26.86058 -18.98335,-11.40545 -31.02157,-10.22282 -44.634007,-11.89349 9.802587,22.89338 18.265227,47.12671 32.072337,66.01558 -5.64283,13.10458 -38.983426,16.05077 -60.135637,17.37251 -12.340295,0.33023 -21.790887,-2.02219 -18.976137,-6.949 19.387896,-20.43312 28.825832,-47.41226 34.745039,-76.70636 -14.764232,-0.59895 -32.48669,3.19379 -40.357699,9.08716 0.932743,-6.00918 5.303404,-11.08728 -0.534539,-22.85154 z"
         id="path4541"
         inkscape:connector-curvature="0"
         sodipodi:nodetypes="cccccccccccc" />
      <path
         style="fill:none;stroke:#000000;stroke-width:2;stroke-linecap:butt;stroke-linejoin:miter;stroke-miterlimit:4;stroke-dasharray:none;stroke-opacity:1;opacity:1"
         d="m 87.664403,126.48204 c 3.197763,1.34961 5.699394,3.6738 12.294399,0.26727"
         id="path4545"
         inkscape:connector-curvature="0"
         sodipodi:nodetypes="cc" />
      <path
         style="fill:#000000;fill-opacity:1;stroke:#000000;stroke-width:2.69966269;stroke-linecap:round;stroke-linejoin:round;stroke-miterlimit:4;stroke-dasharray:none;stroke-opacity:1;paint-order:markers fill stroke;opacity:1"
         d="m 349.07429,421.1875 c -3.47466,0.83368 -7.21807,1.15708 -10.43296,2.68945 -1.79301,2.02499 0.9771,3.74459 2.7936,4.24139 3.16663,1.2443 6.35686,3.05709 9.78571,3.20239 2.53883,-1.2552 1.36272,-4.68461 1.67899,-6.93359 0.54144,-2.07132 -1.21941,-4.18327 -3.36614,-3.27118 l -0.35288,0.055 z"
         id="path4549"
         inkscape:connector-curvature="0"
         transform="scale(0.26458333)" />
      <path
         style="fill:#000000;fill-opacity:1;stroke:#000000;stroke-width:2.69966269;stroke-linecap:round;stroke-linejoin:round;stroke-miterlimit:4;stroke-dasharray:none;stroke-opacity:1;paint-order:markers fill stroke;opacity:1"
         d="m 365.81885,421.09264 c -2.52432,1.36069 -1.18442,4.80633 -1.5618,7.08705 0.0403,2.62225 3.21303,2.49177 4.58166,0.91285 1.76731,-1.44753 5.73411,-2.47666 4.72777,-5.47968 -1.48566,-1.98979 -4.4294,-1.87053 -6.63574,-2.58161 -0.37057,-0.0828 -0.74095,0.0413 -1.11189,0.0614 z"
         id="path4551"
         inkscape:connector-curvature="0"
         transform="scale(0.26458333)" />
      <path
         style="fill:#000000;fill-opacity:1;stroke:#000000;stroke-width:2.69966269;stroke-linecap:round;stroke-linejoin:round;stroke-miterlimit:4;stroke-dasharray:none;stroke-opacity:1;paint-order:markers fill stroke;opacity:1"
         d="m 551.74101,450.58692 c -2.55587,0.41877 -5.65648,-0.64572 -7.79576,1.11118 -1.6135,4.46709 -2.24402,9.30468 -2.76367,14.02553 -0.81081,11.90164 -0.2294,23.90021 2.08349,35.61444 0.87472,4.07494 1.14831,8.37893 2.71213,12.25457 1.44644,1.96604 4.00235,0.26605 4.32128,-1.68458 5.28889,-12.60022 9.43644,-25.92324 10.18485,-39.63936 -0.0507,-6.71543 0.41878,-13.51909 -0.66615,-20.17021 -1.13615,-2.79681 -4.70368,-1.20273 -7.01053,-1.53486 -0.35521,0.008 -0.71043,0.0155 -1.06564,0.0233 z"
         id="path4555"
         inkscape:connector-curvature="0"
         transform="scale(0.26458333)" />
      <path
         style="fill:#000000;fill-opacity:1;stroke:#000000;stroke-width:2.69966269;stroke-linecap:round;stroke-linejoin:round;stroke-miterlimit:4;stroke-dasharray:none;stroke-opacity:1;paint-order:markers fill stroke;opacity:1"
         d="m 550.99463,431.4428 c -0.83923,2.05808 -2.34191,4.27198 -1.87569,6.57855 1.29069,1.70272 4.08589,1.55655 5.86286,0.73381 2.23721,-1.84696 -0.007,-4.69049 -0.69057,-6.732 -0.73574,-1.25263 -2.17144,-1.50592 -3.2966,-0.58036 z"
         id="path4557"
         inkscape:connector-curvature="0"
         transform="scale(0.26458333)" />
      <path
         style="fill:#000000;fill-opacity:1;stroke:#000000;stroke-width:2.69966269;stroke-linecap:round;stroke-linejoin:round;stroke-miterlimit:4;stroke-dasharray:none;stroke-opacity:1;paint-order:markers fill stroke;opacity:1"
         d="m 179.86322,453.1197 c -2.58796,0.25605 -5.46879,-0.46859 -7.88271,0.55472 -1.61177,1.65985 -1.14184,4.44031 -1.70783,6.60279 -0.68274,8.68634 -0.87861,17.49086 0.20159,26.14955 1.21272,5.42006 2.49528,10.95705 5.10463,15.89425 1.30989,1.80365 3.92981,0.39293 4.04087,-1.58412 2.24041,-7.75749 4.83076,-15.49876 5.91658,-23.5233 0.56867,-7.2974 1.16943,-14.83822 -0.57827,-22.01032 -0.8087,-2.03995 -3.2234,-2.17016 -5.09486,-2.08357 z"
         id="path4561"
         inkscape:connector-curvature="0"
         transform="scale(0.26458333)" />
      <path
         style="fill:#000000;fill-opacity:1;stroke:#000000;stroke-width:2.69966269;stroke-linecap:round;stroke-linejoin:round;stroke-miterlimit:4;stroke-dasharray:none;stroke-opacity:1;paint-order:markers fill stroke;opacity:1"
         d="m 176.18088,435.29674 c -1.25813,1.82499 -2.7397,5.51733 0.15485,6.64271 1.99721,0.87879 5.17036,-0.54552 4.149,-3.04827 -0.63402,-1.67904 -1.33605,-4.96084 -3.77267,-3.83697 l -0.32488,0.14833 z"
         id="path4563"
         inkscape:connector-curvature="0"
         transform="scale(0.26458333)" />
      <path
         style="fill:none;stroke:#000000;stroke-width:0.26458332px;stroke-linecap:butt;stroke-linejoin:miter;stroke-opacity:1;opacity:1"
         d="M 90.871639,139.04371 C 85.020422,164.9949 79.223976,191.02565 63.048268,201.98175"
         id="path4592"
         inkscape:connector-curvature="0"
         sodipodi:nodetypes="cc" />
      <path
         style="fill:none;stroke:#000000;stroke-width:0.26458332px;stroke-linecap:butt;stroke-linejoin:miter;stroke-opacity:1;opacity:1"
         d="m 97.018836,170.31424 c 0.44545,9.44352 -1.384306,26.68775 1.33635,28.33057"
         id="path4594"
         inkscape:connector-curvature="0"
         sodipodi:nodetypes="cc" />
      <path
         style="fill:none;stroke:#000000;stroke-width:0.26458332px;stroke-linecap:butt;stroke-linejoin:miter;stroke-opacity:1;opacity:1"
         d="m 103.70058,155.07988 c 4.4584,13.55683 7.04239,30.49794 15.7689,36.34865"
         id="path4596"
         inkscape:connector-curvature="0"
         sodipodi:nodetypes="cc" />
      <path
         style="fill:none;stroke:#000000;stroke-width:0.26458332px;stroke-linecap:butt;stroke-linejoin:miter;stroke-opacity:1;opacity:1"
         d="m 53.453905,127.81839 c 4.095975,-0.40846 7.900293,-1.83771 11.49259,-4.00904"
         id="path4598"
         inkscape:connector-curvature="0"
         sodipodi:nodetypes="cc" />
      <path
         style="fill:none;stroke:#000000;stroke-width:0.26458332px;stroke-linecap:butt;stroke-linejoin:miter;stroke-opacity:1;opacity:1"
         d="m 87.312498,120.86309 c 3.542979,1.73428 10.504922,1.8557 13.040182,-0.18898"
         id="path4600"
         inkscape:connector-curvature="0"
         sodipodi:nodetypes="cc" />
      <path
         style="fill:none;stroke:#000000;stroke-width:0.26458332px;stroke-linecap:butt;stroke-linejoin:miter;stroke-opacity:1;opacity:1"
         d="m 137.01637,126.34375 c -5.56273,0.7941 -9.49825,-1.6662 -13.89063,-3.2128"
         id="path4602"
         inkscape:connector-curvature="0"
         sodipodi:nodetypes="cc" />
      <g
         id="g4541">
        <path
           sodipodi:nodetypes="ccccc"
           inkscape:connector-curvature="0"
           id="path4496"
           d="m 93.908749,23.36894 18.976201,34.359388 c -1.11762,8.08375 -31.542276,15.75062 -46.653215,12.717908 L 67.91724,29.759394 c 8.812465,1.2935 22.20529,-1.524906 25.991509,-6.390454 z"
           style="fill:#ffffff;fill-opacity:1;stroke:#000000;stroke-width:2;stroke-linecap:butt;stroke-linejoin:round;stroke-miterlimit:4;stroke-dasharray:none;stroke-opacity:1;opacity:1" />
        <path
           sodipodi:nodetypes="cc"
           inkscape:connector-curvature="0"
           id="path4532"
           d="M 67.91724,29.759394 C 79.550827,20.171212 96.831253,23.604412 93.908749,23.36894"
           style="fill:none;stroke:#000000;stroke-width:2;stroke-linecap:round;stroke-linejoin:miter;stroke-miterlimit:4;stroke-dasharray:none;stroke-opacity:1;opacity:1" />
        <path
           transform="scale(0.26458333)"
           inkscape:connector-curvature="0"
           id="path4534"
           d="m 336.89169,88.591382 c -24.23951,0.327575 -49.13655,5.414051 -69.70145,18.717918 -2.57473,2.93932 1.94455,4.8789 4.42383,4.202 24.3926,0.37879 49.49671,-3.81977 71.12629,-15.513587 1.98721,-1.469768 7.63801,-3.155576 4.90026,-6.123893 -3.19962,-1.622276 -7.24506,-1.203913 -10.74893,-1.282438 z"
           style="fill:#000000;fill-opacity:1;stroke:#000000;stroke-width:5.39932537;stroke-linecap:round;stroke-linejoin:round;stroke-miterlimit:4;stroke-dasharray:none;stroke-opacity:1;paint-order:markers fill stroke;opacity:1" />
      </g>
    </g>
  </g>
</svg>
