<?xml version="1.0" encoding="UTF-8" standalone="no"?>
<!-- Created with Inkscape (http://www.inkscape.org/) -->

<svg
   xmlns:dc="http://purl.org/dc/elements/1.1/"
   xmlns:cc="http://creativecommons.org/ns#"
   xmlns:rdf="http://www.w3.org/1999/02/22-rdf-syntax-ns#"
   xmlns:svg="http://www.w3.org/2000/svg"
   xmlns="http://www.w3.org/2000/svg"
   xmlns:sodipodi="http://sodipodi.sourceforge.net/DTD/sodipodi-0.dtd"
   xmlns:inkscape="http://www.inkscape.org/namespaces/inkscape"
   width="210mm"
   height="297mm"
   viewBox="0 0 210 297"
   version="1.1"
   id="svg8"
   inkscape:version="0.92.1 r15371"
   sodipodi:docname="эректус b&amp;w.svg">
  <sodipodi:namedview
     id="base"
     pagecolor="#ffffff"
     bordercolor="#666666"
     borderopacity="1.0"
     inkscape:pageopacity="0.0"
     inkscape:pageshadow="2"
     inkscape:zoom="0.7"
     inkscape:cx="102.6252"
     inkscape:cy="722.61297"
     inkscape:document-units="mm"
     inkscape:current-layer="layer1"
     showgrid="true"
     inkscape:snap-grids="false"
     inkscape:object-paths="false"
     inkscape:object-nodes="true"
     inkscape:window-width="1920"
     inkscape:window-height="1057"
     inkscape:window-x="-8"
     inkscape:window-y="-8"
     inkscape:window-maximized="1">
    <inkscape:grid
       id="grid4485"
       type="xygrid" />
  </sodipodi:namedview>
  <defs
     id="defs2" />
  <metadata
     id="metadata5">
    <rdf:RDF>
      <cc:Work
         rdf:about="">
        <dc:format>image/svg+xml</dc:format>
        <dc:type
           rdf:resource="http://purl.org/dc/dcmitype/StillImage" />
        <dc:title></dc:title>
      </cc:Work>
    </rdf:RDF>
  </metadata>
  <g
     id="layer1"
     inkscape:groupmode="layer"
     inkscape:label="Layer 1">
    <g
       id="g4572">
      <path
         style="fill:#ffffff;stroke:#000000;stroke-width:2;stroke-linecap:butt;stroke-linejoin:miter;stroke-miterlimit:4;stroke-dasharray:none;stroke-opacity:1;opacity:1"
         d="m 58.208333,143.54167 c 3.96875,6.61458 54.239587,6.61458 58.208337,0 L 103.1875,193.8125 c -9.770308,2.99945 -20.075868,4.02423 -31.75,0 z"
         id="path4494"
         inkscape:connector-curvature="0"
         sodipodi:nodetypes="ccccc" />
      <path
         style="fill:none;stroke:#000000;stroke-width:2;stroke-linecap:round;stroke-linejoin:miter;stroke-miterlimit:4;stroke-dasharray:none;stroke-opacity:1;opacity:1"
         d="m 58.208333,143.54167 c 3.96875,-5.29167 54.239587,-5.29167 58.208337,0"
         id="path4496"
         inkscape:connector-curvature="0"
         sodipodi:nodetypes="cc" />
      <path
         style="fill:none;stroke:#000000;stroke-width:2;stroke-linecap:butt;stroke-linejoin:miter;stroke-miterlimit:4;stroke-dasharray:none;stroke-opacity:1;opacity:1"
         d="m 112.47364,145.86933 c -8.09475,-2.82358 -33.04668,-5.31842 -50.25324,0.0223"
         id="path4555"
         inkscape:connector-curvature="0"
         sodipodi:nodetypes="cc" />
      <g
         id="g4513"
         style="fill:#ffffff;fill-opacity:1;stroke-width:2;stroke-miterlimit:4;stroke-dasharray:none;opacity:1">
        <path
           sodipodi:nodetypes="cssscc"
           inkscape:connector-curvature="0"
           id="path4500"
           d="m 79.111868,145.8461 c 3.459634,-28.1717 -7.463269,-54.01533 -3.207322,-83.64238 0.896508,-6.240885 7.039069,-12.811199 12.662878,-12.299962 5.726117,0.520538 9.724625,6.93591 10.478865,11.410375 4.701391,27.890596 -7.822752,42.937577 -3.898651,84.520157 z"
           style="fill:#ffffff;fill-opacity:1;stroke:#000000;stroke-width:2;stroke-linecap:butt;stroke-linejoin:miter;stroke-miterlimit:4;stroke-dasharray:none;stroke-opacity:1;opacity:1" />
        <path
           sodipodi:nodetypes="cssssscc"
           inkscape:connector-curvature="0"
           id="path4502"
           d="m 76.92888,102.38308 c 0,0 -15.902191,-0.7963 -17.991457,-3.726088 -4.647135,-6.516699 -4.019164,-15.393106 -2.409598,-23.718005 0.464022,-2.399987 3.027014,-5.568805 5.386161,-5.669642 1.338092,-0.05719 4.485934,1.506961 5.858632,4.110491 2.313878,4.388621 -2.664439,15.85957 0.171787,18.665367 1.444047,1.428554 6.35587,1.363512 7.934136,1.434382 z"
           style="fill:#ffffff;fill-opacity:1;stroke:#000000;stroke-width:2;stroke-linecap:butt;stroke-linejoin:miter;stroke-miterlimit:4;stroke-dasharray:none;stroke-opacity:1;opacity:1" />
        <path
           style="fill:#ffffff;fill-opacity:1;stroke:#000000;stroke-width:2;stroke-linecap:butt;stroke-linejoin:miter;stroke-miterlimit:4;stroke-dasharray:none;stroke-opacity:1;opacity:1"
           d="m 95.519894,111.12409 c 0,0 16.572136,-1.05577 18.661396,-3.98556 4.64714,-6.5167 2.54919,-14.858569 2.4096,-23.718007 -0.0385,-2.44413 -2.93251,-6.135769 -5.29166,-6.236606 -1.33809,-0.05719 -5.38731,1.789113 -5.95313,4.677455 -0.97753,4.989977 2.66444,15.85957 -0.17179,18.665368 -1.44405,1.42856 -6.792527,1.44508 -8.370793,1.51595 z"
           id="path4504"
           inkscape:connector-curvature="0"
           sodipodi:nodetypes="cssssscc" />
      </g>
      <g
         id="g4566"
         transform="translate(-0.20010786,1.6224446)"
         style="stroke-width:1;stroke-miterlimit:4;stroke-dasharray:none;opacity:1">
        <path
           sodipodi:nodetypes="cccc"
           inkscape:connector-curvature="0"
           id="path4529"
           d="m 75.760963,63.244991 9.030295,0.02781 c -1.222956,1.839752 -0.525617,4.851775 -4.6104,4.944483 -4.401313,-0.06033 -3.641752,-2.935687 -4.419895,-4.972293 z"
           style="fill:#000000;fill-opacity:1;stroke:#000000;stroke-width:1;stroke-linecap:butt;stroke-linejoin:miter;stroke-miterlimit:4;stroke-dasharray:none;stroke-opacity:1;opacity:1" />
        <path
           style="fill:#000000;fill-opacity:1;stroke:#000000;stroke-width:1;stroke-linecap:butt;stroke-linejoin:miter;stroke-miterlimit:4;stroke-dasharray:none;stroke-opacity:1;opacity:1"
           d="m 84.791258,63.272801 9.030295,0.02781 c -1.222956,1.839752 -0.525617,4.851775 -4.6104,4.944483 -4.401313,-0.06033 -3.641752,-2.935687 -4.419895,-4.972293 z"
           id="path4531"
           inkscape:connector-curvature="0"
           sodipodi:nodetypes="cccc" />
        <path
           inkscape:connector-curvature="0"
           id="path4533"
           d="m 93.821553,63.300609 5.166148,-2.305333"
           style="fill:none;stroke:#000000;stroke-width:1;stroke-linecap:butt;stroke-linejoin:miter;stroke-miterlimit:4;stroke-dasharray:none;stroke-opacity:1;opacity:1" />
      </g>
      <path
         style="fill:#000000;fill-opacity:1;stroke:#000000;stroke-width:0;stroke-linecap:round;stroke-linejoin:round;stroke-miterlimit:4;stroke-dasharray:none;stroke-opacity:1;paint-order:markers fill stroke;opacity:1"
         d="m 78.363291,140.23826 c -5.311513,0.3066 -10.663722,0.61719 -15.857252,1.84766 -1.04874,0.29721 -2.16395,0.52817 -3.081689,1.14046 -0.41283,0.35429 -0.09194,0.93777 0.34009,1.09361 0.801674,0.41656 1.624107,0.8819 2.524572,1.02271 2.201037,-0.58071 4.413612,-1.17666 6.641954,-1.56829 3.180972,-0.60503 6.388965,-0.92764 9.622467,-1.23291 0.64878,-0.18002 0.452414,-0.96911 0.53689,-1.47729 0.07432,-0.44767 -0.238061,-0.90529 -0.727032,-0.82595 z"
         id="path4557"
         inkscape:connector-curvature="0" />
      <path
         style="fill:#000000;fill-opacity:1;stroke:#000000;stroke-width:0;stroke-linecap:round;stroke-linejoin:round;stroke-miterlimit:4;stroke-dasharray:none;stroke-opacity:1;paint-order:markers fill stroke;opacity:1"
         d="m 95.938744,140.23957 c -0.487982,-0.071 -0.801011,0.42979 -0.697278,0.87149 0.07949,0.50497 -0.119266,1.26752 0.482656,1.48085 5.058378,0.43402 10.136528,0.99638 15.060928,2.27844 0.79142,0.19707 1.6467,0.63949 2.4453,0.21556 0.76598,-0.32652 1.61661,-0.59863 2.20119,-1.21185 0.20995,-0.57936 -0.43999,-0.81242 -0.85597,-0.99886 -2.33925,-0.96017 -4.8697,-1.31712 -7.35372,-1.69729 -3.72038,-0.50815 -7.471479,-0.76994 -11.220985,-0.93798 l -0.04803,-5.3e-4 z"
         id="path4559"
         inkscape:connector-curvature="0" />
      <path
         style="fill:#000000;fill-opacity:1;stroke:#000000;stroke-width:0;stroke-linecap:round;stroke-linejoin:round;stroke-miterlimit:4;stroke-dasharray:none;stroke-opacity:1;paint-order:markers fill stroke;opacity:1"
         d="m 78.268808,143.53032 c -4.070652,0.35265 -8.147349,0.83662 -12.122788,1.80172 -0.568052,0.15705 -0.452784,1.0443 0.122283,1.07978 6.303272,1.1485 12.721992,1.50864 19.119008,1.60805 6.81505,0.0529 13.65291,-0.20031 20.404219,-1.17956 0.92566,-0.15748 1.8662,-0.26141 2.77439,-0.50183 0.51414,-0.21012 0.35089,-0.99961 -0.17866,-1.05094 -3.81938,-0.88338 -7.73045,-1.27929 -11.625797,-1.65993 -0.440434,-0.0376 -1.112012,-0.16178 -1.248288,0.41741 -0.02352,0.75958 0.10664,1.51916 0.151122,2.26997 -5.696572,-0.002 -11.393168,0.006 -17.089721,-0.011 0.05493,-0.8139 0.290664,-1.63222 0.218758,-2.44311 -0.08499,-0.20315 -0.300125,-0.3417 -0.524526,-0.33059 z"
         id="path4561"
         inkscape:connector-curvature="0" />
      <path
         style="fill:#000000;fill-opacity:1;stroke:#000000;stroke-width:0.66161138;stroke-linecap:butt;stroke-linejoin:miter;stroke-miterlimit:4;stroke-dasharray:none;stroke-opacity:1;opacity:1"
         d="m 89.580759,93.098054 -0.53452,5.498853 1.26948,0.117 z"
         id="path4580"
         inkscape:connector-curvature="0" />
      <path
         inkscape:connector-curvature="0"
         id="path4582"
         d="m 82.765386,94.300767 -0.53452,5.498851 1.26948,0.116997 z"
         style="fill:#000000;fill-opacity:1;stroke:#000000;stroke-width:0.66161138;stroke-linecap:butt;stroke-linejoin:miter;stroke-miterlimit:4;stroke-dasharray:none;stroke-opacity:1;opacity:1" />
      <path
         style="fill:#000000;fill-opacity:1;stroke:#000000;stroke-width:0.66161138;stroke-linecap:butt;stroke-linejoin:miter;stroke-miterlimit:4;stroke-dasharray:none;stroke-opacity:1;opacity:1"
         d="m 93.456167,77.863691 -0.53452,5.498851 1.26948,0.116997 z"
         id="path4584"
         inkscape:connector-curvature="0" />
      <path
         inkscape:connector-curvature="0"
         id="path4586"
         d="m 82.631751,77.863691 -0.53452,5.498851 1.26948,0.116997 z"
         style="fill:#000000;fill-opacity:1;stroke:#000000;stroke-width:0.66161138;stroke-linecap:butt;stroke-linejoin:miter;stroke-miterlimit:4;stroke-dasharray:none;stroke-opacity:1;opacity:1" />
      <path
         style="fill:#000000;fill-opacity:1;stroke:#000000;stroke-width:0.66161138;stroke-linecap:butt;stroke-linejoin:miter;stroke-miterlimit:4;stroke-dasharray:none;stroke-opacity:1;opacity:1"
         d="m 111.89776,99.111619 -0.53452,5.498851 1.26948,0.117 z"
         id="path4588"
         inkscape:connector-curvature="0" />
      <path
         inkscape:connector-curvature="0"
         id="path4590"
         d="m 102.8106,102.58612 -0.53452,5.49885 1.26948,0.117 z"
         style="fill:#000000;fill-opacity:1;stroke:#000000;stroke-width:0.66161138;stroke-linecap:butt;stroke-linejoin:miter;stroke-miterlimit:4;stroke-dasharray:none;stroke-opacity:1;opacity:1" />
      <path
         style="fill:#000000;fill-opacity:1;stroke:#000000;stroke-width:0.66161138;stroke-linecap:butt;stroke-linejoin:miter;stroke-miterlimit:4;stroke-dasharray:none;stroke-opacity:1;opacity:1"
         d="m 66.595579,93.766228 -0.53452,5.498851 1.26948,0.116997 z"
         id="path4592"
         inkscape:connector-curvature="0" />
      <path
         inkscape:connector-curvature="0"
         id="path4594"
         d="m 109.09143,90.558994 -0.53452,5.49885 1.26948,0.117 z"
         style="fill:#000000;fill-opacity:1;stroke:#000000;stroke-width:0.66161138;stroke-linecap:butt;stroke-linejoin:miter;stroke-miterlimit:4;stroke-dasharray:none;stroke-opacity:1;opacity:1" />
      <path
         style="fill:#000000;fill-opacity:1;stroke:#000000;stroke-width:0.66161138;stroke-linecap:butt;stroke-linejoin:miter;stroke-miterlimit:4;stroke-dasharray:none;stroke-opacity:1;opacity:1"
         d="m 113.76865,91.093533 -0.53452,5.498851 1.26948,0.116997 z"
         id="path4596"
         inkscape:connector-curvature="0" />
      <path
         inkscape:connector-curvature="0"
         id="path4598"
         d="m 113.90228,81.20456 -0.53452,5.498851 1.26948,0.116997 z"
         style="fill:#000000;fill-opacity:1;stroke:#000000;stroke-width:0.66161138;stroke-linecap:butt;stroke-linejoin:miter;stroke-miterlimit:4;stroke-dasharray:none;stroke-opacity:1;opacity:1" />
      <path
         style="fill:#000000;fill-opacity:1;stroke:#000000;stroke-width:0.66161138;stroke-linecap:butt;stroke-linejoin:miter;stroke-miterlimit:4;stroke-dasharray:none;stroke-opacity:1;opacity:1"
         d="m 109.49234,81.47183 -0.53452,5.498851 1.26948,0.116997 z"
         id="path4600"
         inkscape:connector-curvature="0" />
      <path
         inkscape:connector-curvature="0"
         id="path4602"
         d="m 63.121075,86.81722 -0.53452,5.498851 1.26948,0.116997 z"
         style="fill:#000000;fill-opacity:1;stroke:#000000;stroke-width:0.66161138;stroke-linecap:butt;stroke-linejoin:miter;stroke-miterlimit:4;stroke-dasharray:none;stroke-opacity:1;opacity:1" />
      <path
         style="fill:#000000;fill-opacity:1;stroke:#000000;stroke-width:0.66161138;stroke-linecap:butt;stroke-linejoin:miter;stroke-miterlimit:4;stroke-dasharray:none;stroke-opacity:1;opacity:1"
         d="m 58.711128,81.20456 -0.53452,5.498851 1.26948,0.116997 z"
         id="path4604"
         inkscape:connector-curvature="0" />
      <path
         inkscape:connector-curvature="0"
         id="path4606"
         d="m 64.656619,75.553623 -0.53452,5.498851 1.26948,0.116997 z"
         style="fill:#000000;fill-opacity:1;stroke:#000000;stroke-width:0.66161138;stroke-linecap:butt;stroke-linejoin:miter;stroke-miterlimit:4;stroke-dasharray:none;stroke-opacity:1;opacity:1" />
      <path
         style="fill:#000000;fill-opacity:1;stroke:#000000;stroke-width:0.66161138;stroke-linecap:butt;stroke-linejoin:miter;stroke-miterlimit:4;stroke-dasharray:none;stroke-opacity:1;opacity:1"
         d="m 60.930784,71.005572 -0.53452,5.498851 1.26948,0.116997 z"
         id="path4608"
         inkscape:connector-curvature="0" />
      <path
         inkscape:connector-curvature="0"
         id="path4610"
         d="m 93.990706,88.153568 -0.53452,5.498853 1.26948,0.117 z"
         style="fill:#000000;fill-opacity:1;stroke:#000000;stroke-width:0.66161138;stroke-linecap:butt;stroke-linejoin:miter;stroke-miterlimit:4;stroke-dasharray:none;stroke-opacity:1;opacity:1" />
      <path
         style="fill:#000000;fill-opacity:1;stroke:#000000;stroke-width:0.66161138;stroke-linecap:butt;stroke-linejoin:miter;stroke-miterlimit:4;stroke-dasharray:none;stroke-opacity:1;opacity:1"
         d="m 87.041698,84.946333 -0.53452,5.498853 1.26948,0.117 z"
         id="path4612"
         inkscape:connector-curvature="0" />
      <path
         inkscape:connector-curvature="0"
         id="path4614"
         d="m 84.235368,106.7288 -0.53452,5.49885 1.26948,0.117 z"
         style="fill:#000000;fill-opacity:1;stroke:#000000;stroke-width:0.66161138;stroke-linecap:butt;stroke-linejoin:miter;stroke-miterlimit:4;stroke-dasharray:none;stroke-opacity:1;opacity:1" />
      <path
         inkscape:connector-curvature="0"
         id="path4616"
         d="m 83.700829,130.38215 -0.53452,5.49886 1.26948,0.117 z"
         style="fill:#000000;fill-opacity:1;stroke:#000000;stroke-width:0.66161138;stroke-linecap:butt;stroke-linejoin:miter;stroke-miterlimit:4;stroke-dasharray:none;stroke-opacity:1;opacity:1" />
      <path
         style="fill:#000000;fill-opacity:1;stroke:#000000;stroke-width:0.66161138;stroke-linecap:butt;stroke-linejoin:miter;stroke-miterlimit:4;stroke-dasharray:none;stroke-opacity:1;opacity:1"
         d="m 89.179854,125.70494 -0.53452,5.49885 1.26948,0.117 z"
         id="path4618"
         inkscape:connector-curvature="0" />
      <path
         inkscape:connector-curvature="0"
         id="path4620"
         d="m 83.968099,119.55774 -0.53452,5.49885 1.26948,0.117 z"
         style="fill:#000000;fill-opacity:1;stroke:#000000;stroke-width:0.66161138;stroke-linecap:butt;stroke-linejoin:miter;stroke-miterlimit:4;stroke-dasharray:none;stroke-opacity:1;opacity:1" />
      <path
         style="fill:#000000;fill-opacity:1;stroke:#000000;stroke-width:0.66161138;stroke-linecap:butt;stroke-linejoin:miter;stroke-miterlimit:4;stroke-dasharray:none;stroke-opacity:1;opacity:1"
         d="m 89.981663,115.54869 -0.53452,5.49886 1.26948,0.117 z"
         id="path4622"
         inkscape:connector-curvature="0" />
      <path
         inkscape:connector-curvature="0"
         id="path4624"
         d="m 88.511681,102.71976 -0.53452,5.49885 1.26948,0.117 z"
         style="fill:#000000;fill-opacity:1;stroke:#000000;stroke-width:0.66161138;stroke-linecap:butt;stroke-linejoin:miter;stroke-miterlimit:4;stroke-dasharray:none;stroke-opacity:1;opacity:1" />
      <path
         inkscape:connector-curvature="0"
         id="path4626"
         d="m 79.758635,86.012219 -0.53452,5.498853 1.26948,0.117 z"
         style="fill:#000000;fill-opacity:1;stroke:#000000;stroke-width:0.66161138;stroke-linecap:butt;stroke-linejoin:miter;stroke-miterlimit:4;stroke-dasharray:none;stroke-opacity:1;opacity:1" />
      <path
         style="fill:#000000;fill-opacity:1;stroke:#000000;stroke-width:0.66161138;stroke-linecap:butt;stroke-linejoin:miter;stroke-miterlimit:4;stroke-dasharray:none;stroke-opacity:1;opacity:1"
         d="m 89.046219,136.79662 -0.53452,5.49885 1.26948,0.117 z"
         id="path4628"
         inkscape:connector-curvature="0" />
      <path
         inkscape:connector-curvature="0"
         id="path4630"
         d="m 83.700829,54.343973 -0.53452,5.498853 1.26948,0.117 z"
         style="fill:#000000;fill-opacity:1;stroke:#000000;stroke-width:0.66161138;stroke-linecap:butt;stroke-linejoin:miter;stroke-miterlimit:4;stroke-dasharray:none;stroke-opacity:1;opacity:1" />
      <path
         style="fill:#000000;fill-opacity:1;stroke:#000000;stroke-width:0.66161138;stroke-linecap:butt;stroke-linejoin:miter;stroke-miterlimit:4;stroke-dasharray:none;stroke-opacity:1;opacity:1"
         d="m 96.262497,69.311066 -0.53452,5.498853 1.26948,0.117 z"
         id="path4632"
         inkscape:connector-curvature="0" />
      <path
         inkscape:connector-curvature="0"
         id="path4634"
         d="m 89.04622,73.721014 -0.53452,5.498853 1.26948,0.117 z"
         style="fill:#000000;fill-opacity:1;stroke:#000000;stroke-width:0.66161138;stroke-linecap:butt;stroke-linejoin:miter;stroke-miterlimit:4;stroke-dasharray:none;stroke-opacity:1;opacity:1" />
      <path
         inkscape:connector-curvature="0"
         id="path4636"
         d="m 78.221804,72.5183 -0.53452,5.498853 1.26948,0.117 z"
         style="fill:#000000;fill-opacity:1;stroke:#000000;stroke-width:0.66161138;stroke-linecap:butt;stroke-linejoin:miter;stroke-miterlimit:4;stroke-dasharray:none;stroke-opacity:1;opacity:1" />
      <path
         style="fill:#000000;fill-opacity:1;stroke:#000000;stroke-width:0.66161138;stroke-linecap:butt;stroke-linejoin:miter;stroke-miterlimit:4;stroke-dasharray:none;stroke-opacity:1;opacity:1"
         d="m 90.248933,53.007625 -0.53452,5.498853 1.26948,0.117 z"
         id="path4638"
         inkscape:connector-curvature="0" />
    </g>
  </g>
</svg>
