<?xml version="1.0" encoding="UTF-8" standalone="no"?>
<!-- Created with Inkscape (http://www.inkscape.org/) -->

<svg
   xmlns:dc="http://purl.org/dc/elements/1.1/"
   xmlns:cc="http://creativecommons.org/ns#"
   xmlns:rdf="http://www.w3.org/1999/02/22-rdf-syntax-ns#"
   xmlns:svg="http://www.w3.org/2000/svg"
   xmlns="http://www.w3.org/2000/svg"
   xmlns:sodipodi="http://sodipodi.sourceforge.net/DTD/sodipodi-0.dtd"
   xmlns:inkscape="http://www.inkscape.org/namespaces/inkscape"
   width="210mm"
   height="297mm"
   viewBox="0 0 210 297"
   version="1.1"
   id="svg8"
   inkscape:version="0.91 r13725"
   sodipodi:docname="agness2.svg">
  <defs
     id="defs2" />
  <sodipodi:namedview
     id="base"
     pagecolor="#ffffff"
     bordercolor="#666666"
     borderopacity="1.0"
     inkscape:pageopacity="0.0"
     inkscape:pageshadow="2"
     inkscape:zoom="0.49497475"
     inkscape:cx="131.68579"
     inkscape:cy="754.79888"
     inkscape:document-units="mm"
     inkscape:current-layer="layer1"
     showgrid="true"
     inkscape:snap-grids="false"
     inkscape:object-paths="true"
     inkscape:snap-intersection-paths="true"
     inkscape:window-width="1680"
     inkscape:window-height="988"
     inkscape:window-x="-8"
     inkscape:window-y="-8"
     inkscape:window-maximized="1">
    <inkscape:grid
       type="xygrid"
       id="grid4485" />
  </sodipodi:namedview>
  <metadata
     id="metadata5">
    <rdf:RDF>
      <cc:Work
         rdf:about="">
        <dc:format>image/svg+xml</dc:format>
        <dc:type
           rdf:resource="http://purl.org/dc/dcmitype/StillImage" />
        <dc:title></dc:title>
      </cc:Work>
    </rdf:RDF>
  </metadata>
  <g
     inkscape:label="Layer 1"
     inkscape:groupmode="layer"
     id="layer1">
    <g
       id="g4522">
      <path
         sodipodi:nodetypes="ccccscccccccccccccccccccccccc"
         inkscape:connector-curvature="0"
         id="path4489"
         d="m 82.420108,124.13877 c -4.085908,5.71835 -11.126476,13.97111 -14.752873,18.01512 0.303197,-3.72113 4.094597,-6.78807 4.783989,-17.18842 C 68.404291,97.7434 39.600234,101.96297 36.23711,107.35955 32.770957,86.571695 67.625997,91.781156 73.00279,94.021224 c 4.691271,1.954468 23.373145,11.623146 33.01953,17.959426 l -14.805922,5.89303 c -4.430341,2.53348 -4.978063,2.52495 -8.79629,6.26509 z m 8.79629,-6.26509 c 23.452762,-8.64044 57.437002,20.64726 64.320802,35.30637 12.15449,25.8831 11.9507,55.28759 12.58066,83.13184 -36.75922,6.11108 -59.79244,3.1919 -83.391908,0.64525 -11.740736,-3.588 9.624016,-46.15673 12.980892,-71.30387 0.222395,-9.59745 -6.27549,-13.52046 -12.095239,-16.25298 -8.423746,12.8151 -15.205191,22.64986 -25.702379,34.77381 l -12.289791,-0.53454 c 11.696537,-15.4051 19.243699,-30.95476 26.571619,-49.04824 8.229054,-10.45255 14.269773,-15.76087 17.025344,-16.71764 z m -35.55325,12.45067 c 1.433718,2.54672 3.148865,5.40895 4.624054,3.57892 3.711905,-2.6365 7.099493,-4.94868 12.164022,-8.9378 C 70.44182,104.5383 48.166207,98.399 36.23711,107.35955 l 2.062622,5.42291 7.070843,6.11247 1.931803,9.95315 c 4.109361,-2.53751 1.177906,-1.64108 3.913394,-5.90612 1.483395,1.84848 1.426254,2.86356 2.859971,5.41029 2.289721,-1.00716 6.4102,-3.5205 6.4102,-3.5205 -0.504276,1.84235 -3.154063,3.98295 -4.822795,5.4926 z"
         style="fill:none;stroke:#000000;stroke-width:2;stroke-linecap:butt;stroke-linejoin:miter;stroke-miterlimit:4;stroke-dasharray:none;stroke-opacity:1" />
      <path
         sodipodi:nodetypes="ccccc"
         inkscape:connector-curvature="0"
         id="path4493"
         d="m 99.061118,238.4671 c 7e-6,7.40799 -7.15745,7.08942 -12.149523,10.17094 5.148982,5.51799 21.362975,7.87725 24.060775,2.13816 4.01939,-4.72346 2.15404,-8.3974 1.50642,-11.25251 z"
         style="fill:#000000;stroke:#000000;stroke-width:2;stroke-linecap:butt;stroke-linejoin:miter;stroke-miterlimit:4;stroke-dasharray:none;stroke-opacity:1;fill-opacity:1" />
      <path
         sodipodi:nodetypes="ccccc"
         style="fill:#000000;stroke:#000000;stroke-width:2;stroke-linecap:butt;stroke-linejoin:miter;stroke-miterlimit:4;stroke-dasharray:none;stroke-opacity:1;fill-opacity:1"
         d="m 133.65492,239.82254 c -1.50707,4.18643 -6.37175,7.45715 -11.74809,10.58833 4.75211,6.55568 20.00555,4.52775 21.92262,0 2.88564,-3.72043 2.50897,-7.44086 0.41683,-11.16129 z"
         id="path4495"
         inkscape:connector-curvature="0" />
      <path
         sodipodi:nodetypes="ccccccccccccc"
         inkscape:connector-curvature="0"
         id="path4497"
         d="m 34.745038,248.35694 3.741774,-57.73021 c 7.595976,-4.58615 13.697878,-12.982 28.454708,0.69109 l 2.014018,57.03912 H 64.679226 L 63.610148,197.04119 C 57.24432,186.70986 50.138729,186.48862 42.261011,196.81978 l -1.101505,22.67206 c 7.635732,1.98899 15.271464,2.49481 22.907196,-0.53604 l 0.114295,5.48614 c -7.270443,-2.07813 -15.260877,1.3253 -22.981593,1.49853 l -1.133929,23.05655 z"
         style="fill:#000000;stroke:#000000;stroke-width:2;stroke-linecap:butt;stroke-linejoin:miter;stroke-opacity:1;stroke-miterlimit:4;stroke-dasharray:none;fill-opacity:1" />
      <path
         transform="rotate(-18.770326)"
         style="opacity:1;fill:#000000;fill-opacity:1;stroke:#000000;stroke-width:2;stroke-miterlimit:4;stroke-dasharray:none;stroke-opacity:1"
         inkscape:transform-center-x="-0.7349912"
         inkscape:transform-center-y="1.4699824"
         d="m 17.524251,121.28376 c 0,0 -3.144022,2.32551 -4.693913,2.32551 -1.549891,0 -2.33208,-0.8098 -2.33208,-0.8098 0,0 0.782189,-2.13016 2.33208,-2.13016 1.549891,0 4.693913,0.61445 4.693913,0.61445 z"
         id="path4499"
         inkscape:connector-curvature="0"
         sodipodi:nodetypes="cscsc" />
      <path
         transform="scale(0.26458333)"
         inkscape:connector-curvature="0"
         id="path4511"
         d="m 269.31677,513.61305 c 2.8e-4,-0.41669 0.89301,-3.10577 1.98382,-5.97572 3.01702,-7.93782 6.25272,-25.19199 6.31471,-33.67277 0.0652,-8.92632 -2.91422,-22.20572 -7.28868,-32.48555 -15.67646,-36.83912 -53.99055,-58.62825 -95.75104,-54.45338 -11.74953,1.17463 -23.31904,3.97947 -29.57113,7.16905 -2.14339,1.09347 -4.18512,1.98813 -4.53718,1.98813 -0.35206,0 -0.31632,-2.38648 0.0794,-5.3033 3.19514,-23.54925 22.05843,-35.85644 60.07919,-39.19814 13.49529,-1.18612 25.52229,-0.74062 44.95179,1.6651 21.03377,2.60435 25.94588,4.26041 53.53809,18.04976 38.94949,19.46519 92.35102,49.54486 90.72617,51.10363 -0.45243,0.43404 -11.69124,5.13267 -24.97513,10.44143 -36.90865,14.7501 -47.60829,22.04389 -64.4858,43.959 -9.121,11.84345 -30.11393,37.47037 -30.69478,37.47037 -0.20348,0 -0.36973,-0.34093 -0.36946,-0.75761 z"
         style="opacity:1;fill:#000000;fill-opacity:1;stroke:#000000;stroke-width:3.81789947;stroke-linecap:square;stroke-miterlimit:4;stroke-dasharray:none;stroke-opacity:1;paint-order:stroke fill markers" />
      <path
         transform="scale(0.26458333)"
         inkscape:connector-curvature="0"
         id="path4513"
         d="m 434.47621,901.56231 c -15.24588,-0.81731 -71.84437,-5.65238 -91.73552,-7.83672 -14.96214,-1.64306 -22.81826,-2.93299 -24.47518,-4.01864 -4.43973,-2.90903 -5.89137,-7.26331 -6.3355,-19.00374 -0.82253,-21.74339 4.48742,-43.79352 29.61689,-122.98731 20.39616,-64.27709 30.28446,-102.32526 31.52542,-121.30332 1.69468,-25.91714 -11.00515,-46.04989 -38.45678,-60.96468 -12.55884,-6.82335 -12.55199,-6.82362 -17.26442,0.66724 -2.1934,3.48661 -10.79227,16.3398 -19.10859,28.56265 -23.38403,34.36848 -40.63137,57.46665 -62.2661,83.38866 l -11.20659,13.42735 -11.31436,-0.28367 c -6.2229,-0.15602 -14.34605,-0.57489 -18.05146,-0.93084 l -6.73709,-0.64716 7.56562,-10.6066 c 28.99854,-40.65438 58.63026,-96.50675 83.24235,-156.90221 3.93781,-9.66297 5.68012,-12.42472 14.97593,-23.73859 13.65957,-16.62496 36.24992,-39.23113 44.4931,-44.52426 29.67653,-19.05598 83.44891,-10.41141 137.45361,22.09736 44.56652,26.82735 89.18394,69.69138 105.77201,101.61534 9.56796,18.41368 20.4415,48.63636 27.59647,76.70362 13.19229,51.75023 19.53604,116.26031 20.41304,207.58205 l 0.26674,27.77491 -7.57614,1.18893 c -50.66759,7.9514 -98.14573,11.5367 -148.9975,11.25151 -18.33427,-0.10283 -36.06245,-0.33317 -39.39595,-0.51188 z"
         style="opacity:1;fill:#000000;fill-opacity:1;stroke:#000000;stroke-width:3.81789947;stroke-linecap:square;stroke-miterlimit:4;stroke-dasharray:none;stroke-opacity:1;paint-order:stroke fill markers" />
    </g>
  </g>
</svg>
