<?xml version="1.0" encoding="UTF-8" standalone="no"?>
<!-- Created with Inkscape (http://www.inkscape.org/) -->

<svg
   xmlns:dc="http://purl.org/dc/elements/1.1/"
   xmlns:cc="http://creativecommons.org/ns#"
   xmlns:rdf="http://www.w3.org/1999/02/22-rdf-syntax-ns#"
   xmlns:svg="http://www.w3.org/2000/svg"
   xmlns="http://www.w3.org/2000/svg"
   xmlns:sodipodi="http://sodipodi.sourceforge.net/DTD/sodipodi-0.dtd"
   xmlns:inkscape="http://www.inkscape.org/namespaces/inkscape"
   width="210mm"
   height="297mm"
   viewBox="0 0 210 297"
   version="1.1"
   id="svg4506"
   sodipodi:docname="gunnhilda 3.svg"
   inkscape:version="0.91 r13725">
  <defs
     id="defs4500" />
  <sodipodi:namedview
     id="base"
     pagecolor="#ffffff"
     bordercolor="#666666"
     borderopacity="1.0"
     inkscape:pageopacity="0.0"
     inkscape:pageshadow="2"
     inkscape:zoom="0.175"
     inkscape:cx="-1.6179128"
     inkscape:cy="498.06183"
     inkscape:document-units="mm"
     inkscape:current-layer="layer1"
     showgrid="true"
     inkscape:snap-grids="false"
     inkscape:object-paths="true"
     inkscape:snap-smooth-nodes="true"
     inkscape:window-width="682"
     inkscape:window-height="435"
     inkscape:window-x="546"
     inkscape:window-y="81"
     inkscape:window-maximized="0">
    <inkscape:grid
       type="xygrid"
       id="grid5051" />
  </sodipodi:namedview>
  <metadata
     id="metadata4503">
    <rdf:RDF>
      <cc:Work
         rdf:about="">
        <dc:format>image/svg+xml</dc:format>
        <dc:type
           rdf:resource="http://purl.org/dc/dcmitype/StillImage" />
        <dc:title></dc:title>
      </cc:Work>
    </rdf:RDF>
  </metadata>
  <g
     inkscape:label="Layer 1"
     inkscape:groupmode="layer"
     id="layer1">
    <path
       style="fill:none;stroke:#000000;stroke-width:2;stroke-linecap:butt;stroke-linejoin:miter;stroke-miterlimit:4;stroke-dasharray:none;stroke-opacity:1"
       d="m 86.934523,67.190477 c 0.871783,0.871782 -9.875146,-9.898984 -9.921875,-16.158485 -0.04033,-5.40302 3.425596,-11.255542 8.031993,-14.079611 1.129112,-0.692231 7.937502,-0.944943 7.937502,-0.944943 0,0 -7.686052,-3.734483 -7.276042,-5.669639 1.997179,-9.426259 12.516111,-8.647117 14.079614,-0.283486 0.333195,1.78238 -6.803572,5.953125 -6.803572,5.953125 0,0 5.372666,0.166941 6.898066,1.228422 4.687321,3.261773 8.094431,8.751339 8.315471,14.457589 0.20029,5.17072 -10.110857,15.497028 -10.110857,15.497028 z"
       id="path5055"
       inkscape:connector-curvature="0"
       sodipodi:nodetypes="csscsscsscc" />
    <path
       style="fill:#000000;fill-opacity:1;stroke:#000000;stroke-width:2;stroke-linecap:butt;stroke-linejoin:miter;stroke-miterlimit:4;stroke-dasharray:none;stroke-opacity:1"
       d="m 76.782777,154.07095 c 0,0 -2.35109,12.91403 -5.156289,18.57488 -1.957989,3.9512 -11.97781,3.75407 -10.583333,7.9375 1.115581,3.34675 15.875,0.37798 15.875,0.37798 l 5.291666,-2.64583 v 2.64583 h 7.9375 l -1.691106,-26.26674 z"
       id="path5057"
       inkscape:connector-curvature="0"
       sodipodi:nodetypes="csscccccc" />
    <path
       sodipodi:nodetypes="csscccccc"
       inkscape:connector-curvature="0"
       id="path5061"
       d="m 115.47461,153.42566 c 0,0 2.35109,12.91403 5.15629,18.57488 1.95799,3.9512 11.97781,3.75407 10.58333,7.9375 -1.11558,3.34675 -15.875,0.37798 -15.875,0.37798 l -5.29166,-2.64583 v 2.64583 h -7.9375 l 1.66971,-25.90702 z"
       style="fill:#000000;fill-opacity:1;stroke:#000000;stroke-width:2;stroke-linecap:butt;stroke-linejoin:miter;stroke-miterlimit:4;stroke-dasharray:none;stroke-opacity:1" />
    <path
       style="fill:#000000;fill-opacity:1;stroke:#000000;stroke-width:2;stroke-linecap:butt;stroke-linejoin:miter;stroke-miterlimit:4;stroke-dasharray:none;stroke-opacity:1"
       d="M 53.241455,113.68024 61.42725,101.06527 C 61.055668,97.779673 58.148952,96.903151 54.292951,97.38 l -4.689014,13.56598 z"
       id="path5069"
       inkscape:connector-curvature="0"
       sodipodi:nodetypes="ccccc" />
    <path
       style="fill:#ffffff;fill-opacity:1;stroke:#000000;stroke-width:2;stroke-linecap:butt;stroke-linejoin:miter;stroke-miterlimit:4;stroke-dasharray:none;stroke-opacity:1"
       d="m 76.918154,67.190477 h 31.844496 c 6.61313,-0.934596 13.32198,-0.714472 21.05205,4.852424 3.99041,12.042591 7.79556,27.249475 7.74983,38.244719 l -4.97344,0.75814 c -2.98117,-7.91789 -7.97325,-10.33962 -8.38904,-30.717503 -7.32995,0.469951 -10.72623,-0.614148 -14.52149,-2.011236 1.04307,9.040835 7.02149,22.269239 0.62347,24.996419 4.23493,16.38821 23.9333,47.24222 12.7048,49.16464 -18.79252,2.64847 -38.020532,3.29373 -58.070202,0.15934 -10.186269,-0.73364 7.792963,-32.88265 11.689444,-49.32398 -7.763951,-3.17534 -1.449675,-16.205446 -0.04585,-25.798229 -6.117427,5.004676 -8.081358,6.043579 -15.188509,7.089358 1.362547,9.614961 -5.03893,20.437221 -7.167699,27.558381 -1.934032,-0.9442 -1.196716,-1.48395 -4.095377,-2.74079 0,0 0.401682,-16.974435 3.244986,-30.964791 8.334222,-6.514415 11.482307,-11.459281 23.542531,-11.266892 z"
       id="path5053"
       inkscape:connector-curvature="0"
       sodipodi:nodetypes="ccccccccccccccccc" />
    <path
       style="fill:#000000;fill-opacity:1;stroke:#000000;stroke-width:2;stroke-linecap:butt;stroke-linejoin:miter;stroke-miterlimit:4;stroke-dasharray:none;stroke-opacity:1"
       d="m 49.603937,110.94598 -8.357246,-3.17691 5.820641,6.56964 -24.262238,49.02242 0.534539,5.61266 4.543581,-2.40542 23.8832,-49.85243 8.189144,2.01118 z"
       id="path5065"
       inkscape:connector-curvature="0"
       sodipodi:nodetypes="ccccccccc" />
    <g
       style="stroke-width:2;stroke-miterlimit:4;stroke-dasharray:none"
       id="g5085"
       transform="rotate(43.626324,45.942716,267.97965)">
      <path
         sodipodi:nodetypes="cscsc"
         inkscape:connector-curvature="0"
         id="path5075"
         d="m 35.947752,108.6418 c -7.101266,0.92204 -9.194404,1.67044 -14.766641,1.67044 -5.572237,0 -8.829098,-0.72421 -14.2321016,-1.1359 -2.5614435,-7.39497 5.9099976,-15.368669 13.6975626,-15.702086 8.444285,-0.361534 17.25497,8.766026 15.30118,15.167546 z"
         style="opacity:1;fill:#000000;fill-opacity:1;stroke:#000000;stroke-width:2;stroke-linecap:square;stroke-miterlimit:4;stroke-dasharray:none;stroke-opacity:1;paint-order:stroke fill markers" />
      <path
         sodipodi:nodetypes="cccc"
         inkscape:connector-curvature="0"
         id="path5078"
         d="M 7.7334974,101.6962 C 3.7614368,98.462356 2.4580909,93.322287 3.4745038,86.525247 c 1.9449785,4.319529 2.8519168,9.677099 8.4958372,10.297686 z"
         style="fill:none;stroke:#000000;stroke-width:2;stroke-linecap:butt;stroke-linejoin:miter;stroke-miterlimit:4;stroke-dasharray:none;stroke-opacity:1" />
      <path
         sodipodi:nodetypes="ccccc"
         inkscape:connector-curvature="0"
         id="path5080"
         d="m 28.288406,95.518199 c 2.800819,-0.893947 5.533292,-1.764115 6.055727,-6.320259 2.973807,0.836716 4.440252,2.533611 4.009044,3.741775 -2.022149,4.024253 -3.383249,4.615027 -5.281002,6.530967 z"
         style="fill:none;stroke:#000000;stroke-width:2;stroke-linecap:butt;stroke-linejoin:miter;stroke-miterlimit:4;stroke-dasharray:none;stroke-opacity:1" />
    </g>
    <circle
       style="opacity:1;fill:#ffffff;fill-opacity:1;stroke:#000000;stroke-width:2;stroke-linecap:square;stroke-miterlimit:4;stroke-dasharray:none;stroke-opacity:1;paint-order:stroke fill markers"
       id="path5087"
       cx="135.50116"
       cy="113.44385"
       r="3.7708471" />
    <g
       style="stroke-width:2;stroke-miterlimit:4;stroke-dasharray:none"
       id="g5113"
       transform="translate(0.67137442,7.3786167)">
      <g
         style="stroke-width:1.14894152;stroke-miterlimit:4;stroke-dasharray:none"
         transform="matrix(1.7407327,0,0,1.7407327,8.2650452,-28.558537)"
         id="g5108">
        <path
           style="opacity:1;fill:#000000;fill-opacity:1;stroke:#000000;stroke-width:1.14894152;stroke-linecap:square;stroke-miterlimit:4;stroke-dasharray:none;stroke-opacity:1;paint-order:stroke fill markers"
           d="m 45.85141,41.94517 c 0,0.271982 -0.101772,0.492467 -0.570269,0.492467 -0.468497,0 -0.692221,-0.213699 -0.692221,-0.485681 0,-0.271982 0.223724,-0.433836 0.692221,-0.433836 0.468497,0 0.570269,0.155068 0.570269,0.42705 z"
           id="path5095"
           inkscape:connector-curvature="0"
           sodipodi:nodetypes="sssss" />
        <path
           style="fill:none;stroke:#000000;stroke-width:1.14894152;stroke-linecap:round;stroke-linejoin:miter;stroke-miterlimit:4;stroke-dasharray:none;stroke-opacity:1"
           d="m 45.775154,41.35721 c -0.79081,-0.314277 -1.150896,-0.164404 -2.329955,-1.354596"
           id="path5097"
           inkscape:connector-curvature="0"
           sodipodi:nodetypes="cc" />
      </g>
    </g>
    <g
       style="stroke-width:2;stroke-miterlimit:4;stroke-dasharray:none"
       transform="matrix(-1,0,0,1,184.29009,7.3786167)"
       id="g5121">
      <g
         style="stroke-width:1.14894152;stroke-miterlimit:4;stroke-dasharray:none"
         id="g5119"
         transform="matrix(1.7407327,0,0,1.7407327,8.2650452,-28.558537)">
        <path
           sodipodi:nodetypes="sssss"
           inkscape:connector-curvature="0"
           id="path5115"
           d="m 45.85141,41.94517 c 0,0.271982 -0.101772,0.492467 -0.570269,0.492467 -0.468497,0 -0.692221,-0.213699 -0.692221,-0.485681 0,-0.271982 0.223724,-0.433836 0.692221,-0.433836 0.468497,0 0.570269,0.155068 0.570269,0.42705 z"
           style="opacity:1;fill:#000000;fill-opacity:1;stroke:#000000;stroke-width:1.14894152;stroke-linecap:square;stroke-miterlimit:4;stroke-dasharray:none;stroke-opacity:1;paint-order:stroke fill markers" />
        <path
           sodipodi:nodetypes="cc"
           inkscape:connector-curvature="0"
           id="path5117"
           d="m 45.775154,41.35721 c -0.79081,-0.314277 -1.150896,-0.164404 -2.329955,-1.354596"
           style="fill:none;stroke:#000000;stroke-width:1.14894152;stroke-linecap:round;stroke-linejoin:miter;stroke-miterlimit:4;stroke-dasharray:none;stroke-opacity:1" />
      </g>
    </g>
    <path
       style="fill:none;stroke:#000000;stroke-width:2;stroke-linecap:round;stroke-linejoin:miter;stroke-miterlimit:4;stroke-dasharray:none;stroke-opacity:1"
       d="m 94.834691,48.530656 c 2.041165,-1.200001 3.765093,-2.646743 4.677456,-4.724701"
       id="path5129"
       inkscape:connector-curvature="0"
       sodipodi:nodetypes="cc" />
    <path
       sodipodi:nodetypes="cc"
       inkscape:connector-curvature="0"
       id="path5131"
       d="M 90.579206,48.483409 C 88.538041,47.283408 86.814113,45.836666 85.90175,43.758708"
       style="fill:none;stroke:#000000;stroke-width:2;stroke-linecap:round;stroke-linejoin:miter;stroke-miterlimit:4;stroke-dasharray:none;stroke-opacity:1" />
    <path
       style="opacity:1;fill:#000000;fill-opacity:1;stroke:#000000;stroke-width:2;stroke-linecap:round;stroke-miterlimit:4;stroke-dasharray:none;stroke-opacity:1;paint-order:stroke fill markers"
       d="m 96.977654,61.490866 c 0,0.950232 -1.90693,0.61854 -4.14874,0.61854 -2.24181,0 -3.96957,0.331692 -3.96957,-0.61854 0,-0.950232 1.85076,-3.658251 4.09257,-3.658251 2.2418,0 4.02574,2.708019 4.02574,3.658251 z"
       id="path5135"
       inkscape:connector-curvature="0"
       sodipodi:nodetypes="sssss" />
    <path
       style="fill:none;stroke:#000000;stroke-width:2;stroke-linecap:butt;stroke-linejoin:miter;stroke-miterlimit:4;stroke-dasharray:none;stroke-opacity:1"
       d="m 78.810411,44.443297 c 9.453468,-5.817204 21.214839,-4.719679 27.818309,0.86255"
       id="path5152"
       inkscape:connector-curvature="0"
       sodipodi:nodetypes="cc" />
    <path
       style="fill:none;stroke:#000000;stroke-width:2;stroke-linecap:butt;stroke-linejoin:miter;stroke-miterlimit:4;stroke-dasharray:none;stroke-opacity:1"
       d="m 75.500744,31.660716 32.987706,7.295358"
       id="path5158"
       inkscape:connector-curvature="0" />
    <path
       inkscape:connector-curvature="0"
       id="path5160"
       d="M 110.60812,31.201751 77.620422,38.497109"
       style="fill:none;stroke:#000000;stroke-width:2;stroke-linecap:butt;stroke-linejoin:miter;stroke-miterlimit:4;stroke-dasharray:none;stroke-opacity:1" />
    <path
       style="fill:none;stroke:#000000;stroke-width:2;stroke-linecap:butt;stroke-linejoin:miter;stroke-miterlimit:4;stroke-dasharray:none;stroke-opacity:1"
       d="m 76.62807,103.31344 c 12.685339,4.54228 23.209673,2.36144 33.67596,0"
       id="path5174"
       inkscape:connector-curvature="0"
       sodipodi:nodetypes="cc" />
    <path
       style="fill:none;stroke:#000000;stroke-width:1;stroke-linecap:round;stroke-linejoin:miter;stroke-opacity:1;stroke-miterlimit:4;stroke-dasharray:none"
       d="m 92.604166,50.465029 0.04725,1.606399"
       id="path5209"
       inkscape:connector-curvature="0" />
    <path
       style="opacity:1;fill:#000000;fill-opacity:1;stroke:#000000;stroke-width:2.69966269;stroke-linecap:round;stroke-linejoin:round;stroke-miterlimit:4;stroke-dasharray:none;stroke-opacity:1;paint-order:stroke fill markers"
       d="m 345.32305,128.33492 c -6.01709,-3.15583 -13.30597,-8.23632 -15.98273,-11.14026 -1.74254,-1.89043 -1.74261,-1.89921 -0.059,-6.87174 5.32639,-15.731287 20.40128,-22.044771 32.93374,-13.792902 4.29675,2.829155 7.63489,7.205132 9.55772,12.529262 1.83326,5.07612 1.83918,5.02618 -0.9464,7.97938 -2.12449,2.25234 -10.44603,8.86994 -12.42316,9.87937 -0.39286,0.20057 -2.72322,0.79055 -5.17858,1.31105 -2.45535,0.52051 -4.72536,1.02596 -5.04445,1.12322 -0.3191,0.0973 -1.60481,-0.36056 -2.85715,-1.01738 z"
       id="path4543"
       inkscape:connector-curvature="0"
       transform="scale(0.26458333)" />
    <path
       style="opacity:1;fill:#000000;fill-opacity:1;stroke:#000000;stroke-width:2.69966269;stroke-linecap:round;stroke-linejoin:round;stroke-miterlimit:4;stroke-dasharray:none;stroke-opacity:1;paint-order:stroke fill markers"
       d="m 308.79952,156.28224 c 3.5545,-4.5243 9.97143,-10.38842 13.864,-12.66961 0.85129,-0.49889 2.73205,-1.13194 4.17947,-1.40678 7.98532,-1.51627 25.0243,-2.38554 32.27452,-1.64654 3.99948,0.40766 13.16603,2.18145 15.12794,2.92737 1.0401,0.39545 5.91557,4.16253 8.80742,6.80515 2.39042,2.18441 7.08536,7.4231 6.85715,7.65132 -0.0847,0.0847 -1.24456,-0.33531 -2.57747,-0.93335 -10.8986,-4.88986 -24.01277,-7.50033 -37.67932,-7.50033 -13.79969,0 -26.27292,2.42324 -38.88256,7.55393 -1.85814,0.75605 -3.44287,1.37464 -3.52163,1.37464 -0.0788,0 0.61895,-0.97011 1.55048,-2.1558 z"
       id="path4545"
       inkscape:connector-curvature="0"
       transform="scale(0.26458333)" />
  </g>
</svg>
