<?xml version="1.0" encoding="UTF-8" standalone="no"?>
<!-- Created with Inkscape (http://www.inkscape.org/) -->

<svg
   xmlns:dc="http://purl.org/dc/elements/1.1/"
   xmlns:cc="http://creativecommons.org/ns#"
   xmlns:rdf="http://www.w3.org/1999/02/22-rdf-syntax-ns#"
   xmlns:svg="http://www.w3.org/2000/svg"
   xmlns="http://www.w3.org/2000/svg"
   xmlns:sodipodi="http://sodipodi.sourceforge.net/DTD/sodipodi-0.dtd"
   xmlns:inkscape="http://www.inkscape.org/namespaces/inkscape"
   width="210mm"
   height="297mm"
   viewBox="0 0 210 297"
   version="1.1"
   id="svg4506"
   sodipodi:docname="gunnhilda 2.svg"
   inkscape:version="0.91 r13725">
  <defs
     id="defs4500" />
  <sodipodi:namedview
     id="base"
     pagecolor="#ffffff"
     bordercolor="#666666"
     borderopacity="1.0"
     inkscape:pageopacity="0.0"
     inkscape:pageshadow="2"
     inkscape:zoom="0.7"
     inkscape:cx="367.04861"
     inkscape:cy="700.63446"
     inkscape:document-units="mm"
     inkscape:current-layer="layer1"
     showgrid="true"
     inkscape:snap-grids="false"
     inkscape:object-paths="true"
     inkscape:snap-smooth-nodes="true"
     inkscape:window-width="1680"
     inkscape:window-height="988"
     inkscape:window-x="-8"
     inkscape:window-y="-8"
     inkscape:window-maximized="1">
    <inkscape:grid
       type="xygrid"
       id="grid5051" />
  </sodipodi:namedview>
  <metadata
     id="metadata4503">
    <rdf:RDF>
      <cc:Work
         rdf:about="">
        <dc:format>image/svg+xml</dc:format>
        <dc:type
           rdf:resource="http://purl.org/dc/dcmitype/StillImage" />
        <dc:title></dc:title>
      </cc:Work>
    </rdf:RDF>
  </metadata>
  <g
     inkscape:label="Layer 1"
     inkscape:groupmode="layer"
     id="layer1">
    <g
       id="g5205">
      <path
         sodipodi:nodetypes="csscsscsscc"
         inkscape:connector-curvature="0"
         id="path5055"
         d="m 86.745535,64.166667 c 0.871783,0.871783 -9.875146,-9.898984 -9.921875,-16.158485 -0.04033,-5.40302 3.425596,-11.255542 8.031993,-14.079611 1.129112,-0.692231 7.937502,-0.944943 7.937502,-0.944943 0,0 -7.686052,-3.734483 -7.276042,-5.669639 1.997179,-9.426258 12.516111,-8.647117 14.079614,-0.283486 0.333199,1.78238 -6.803572,5.953125 -6.803572,5.953125 0,0 5.372666,0.166941 6.898066,1.228423 4.687319,3.261772 8.094429,8.751338 8.315469,14.457588 0.20029,5.17072 -10.110855,15.497028 -10.110855,15.497028 z"
         style="fill:none;stroke:#000000;stroke-width:3;stroke-linecap:butt;stroke-linejoin:miter;stroke-miterlimit:4;stroke-dasharray:none;stroke-opacity:1" />
      <path
         sodipodi:nodetypes="csscccccc"
         inkscape:connector-curvature="0"
         id="path5057"
         d="m 76.593789,151.04714 c 0,0 -2.35109,12.91403 -5.156289,18.57488 -1.957989,3.9512 -11.97781,3.75407 -10.583333,7.9375 1.115581,3.34675 15.875,0.37798 15.875,0.37798 l 5.291666,-2.64583 v 2.64583 h 7.9375 l -1.691106,-26.26674 z"
         style="fill:#000000;stroke:#000000;stroke-width:3;stroke-linecap:butt;stroke-linejoin:miter;stroke-miterlimit:4;stroke-dasharray:none;stroke-opacity:1;fill-opacity:1" />
      <path
         style="fill:#000000;stroke:#000000;stroke-width:3;stroke-linecap:butt;stroke-linejoin:miter;stroke-miterlimit:4;stroke-dasharray:none;stroke-opacity:1;fill-opacity:1"
         d="m 115.28562,150.40185 c 0,0 2.35109,12.91403 5.15629,18.57488 1.95799,3.9512 11.97781,3.75407 10.58333,7.9375 -1.11558,3.34675 -15.875,0.37798 -15.875,0.37798 l -5.29166,-2.64583 v 2.64583 h -7.9375 l 1.66971,-25.90702 z"
         id="path5061"
         inkscape:connector-curvature="0"
         sodipodi:nodetypes="csscccccc" />
      <path
         sodipodi:nodetypes="ccccc"
         inkscape:connector-curvature="0"
         id="path5069"
         d="M 53.052467,110.65643 61.238262,98.041458 C 60.86668,94.755864 57.959964,93.879342 54.103963,94.356191 l -4.689014,13.565979 z"
         style="fill:#000000;fill-opacity:1;stroke:#000000;stroke-width:2;stroke-linecap:butt;stroke-linejoin:miter;stroke-miterlimit:4;stroke-dasharray:none;stroke-opacity:1" />
      <path
         sodipodi:nodetypes="ccccccccccccccccc"
         inkscape:connector-curvature="0"
         id="path5053"
         d="m 76.729166,64.166667 h 31.844494 c 6.61313,-0.934596 13.32198,-0.714471 21.05205,4.852424 3.99041,12.042591 7.79556,27.249475 7.74983,38.244719 l -4.97344,0.75814 c -2.98117,-7.91789 -7.97325,-10.339615 -8.38904,-30.717503 -7.32995,0.469951 -10.72623,-0.614148 -14.52149,-2.011236 1.04307,9.040835 7.02149,22.269239 0.62347,24.996419 4.23493,16.38821 23.9333,47.24222 12.7048,49.16464 -18.79252,2.64847 -38.02053,3.29373 -58.0702,0.15934 -10.186269,-0.73364 7.792963,-32.88265 11.689444,-49.32398 -7.763951,-3.175343 -1.449675,-16.205445 -0.04585,-25.798228 -6.117427,5.004676 -8.081358,6.043579 -15.188509,7.089358 1.362547,9.614961 -5.03893,20.43722 -7.167699,27.55838 -1.934032,-0.9442 -1.196716,-1.48395 -4.095377,-2.74079 0,0 0.401682,-16.974434 3.244986,-30.96479 8.334222,-6.514416 11.482307,-11.459281 23.542531,-11.266893 z"
         style="fill:#ffffff;fill-opacity:1;stroke:#000000;stroke-width:3;stroke-linecap:butt;stroke-linejoin:miter;stroke-miterlimit:4;stroke-dasharray:none;stroke-opacity:1" />
      <path
         sodipodi:nodetypes="ccccccccc"
         inkscape:connector-curvature="0"
         id="path5065"
         d="m 49.414949,107.92217 -8.357246,-3.17691 5.820641,6.56964 -24.262238,49.02242 0.534539,5.61266 4.543581,-2.40542 23.8832,-49.85243 8.189144,2.01118 z"
         style="fill:#000000;stroke:#000000;stroke-width:2;stroke-linecap:butt;stroke-linejoin:miter;stroke-miterlimit:4;stroke-dasharray:none;stroke-opacity:1;fill-opacity:1" />
      <g
         transform="rotate(43.626324,49.625737,266.23165)"
         id="g5085">
        <path
           style="opacity:1;fill:#000000;fill-opacity:1;stroke:#000000;stroke-width:2;stroke-linecap:square;stroke-miterlimit:4;stroke-dasharray:none;stroke-opacity:1;paint-order:stroke fill markers"
           d="m 35.947752,108.6418 c -7.101266,0.92204 -9.194404,1.67044 -14.766641,1.67044 -5.572237,0 -8.829098,-0.72421 -14.2321016,-1.1359 -2.5614435,-7.39497 5.9099976,-15.368669 13.6975626,-15.702086 8.444285,-0.361534 17.25497,8.766026 15.30118,15.167546 z"
           id="path5075"
           inkscape:connector-curvature="0"
           sodipodi:nodetypes="cscsc" />
        <path
           style="fill:none;stroke:#000000;stroke-width:1;stroke-linecap:butt;stroke-linejoin:miter;stroke-miterlimit:4;stroke-dasharray:none;stroke-opacity:1"
           d="M 7.7334974,101.6962 C 3.7614368,98.462356 2.4580909,93.322287 3.4745038,86.525247 c 1.9449785,4.319529 2.8519168,9.677099 8.4958372,10.297686 z"
           id="path5078"
           inkscape:connector-curvature="0"
           sodipodi:nodetypes="cccc" />
        <path
           style="fill:none;stroke:#000000;stroke-width:1;stroke-linecap:butt;stroke-linejoin:miter;stroke-miterlimit:4;stroke-dasharray:none;stroke-opacity:1"
           d="m 28.288406,95.518199 c 2.800819,-0.893947 5.533292,-1.764115 6.055727,-6.320259 2.973807,0.836716 4.440252,2.533611 4.009044,3.741775 -2.022149,4.024253 -3.383249,4.615027 -5.281002,6.530967 z"
           id="path5080"
           inkscape:connector-curvature="0"
           sodipodi:nodetypes="ccccc" />
      </g>
      <circle
         r="3.7708471"
         cy="110.42004"
         cx="135.31216"
         id="path5087"
         style="opacity:1;fill:#ffffff;fill-opacity:1;stroke:#000000;stroke-width:3;stroke-linecap:square;stroke-miterlimit:4;stroke-dasharray:none;stroke-opacity:1;paint-order:stroke fill markers" />
      <g
         transform="translate(0.48238632,4.3548072)"
         id="g5113">
        <g
           id="g5108"
           transform="matrix(1.7407327,0,0,1.7407327,8.2650452,-28.558537)">
          <path
             sodipodi:nodetypes="sssss"
             inkscape:connector-curvature="0"
             id="path5095"
             d="m 45.85141,41.94517 c 0,0.271982 -0.101772,0.492467 -0.570269,0.492467 -0.468497,0 -0.692221,-0.213699 -0.692221,-0.485681 0,-0.271982 0.223724,-0.433836 0.692221,-0.433836 0.468497,0 0.570269,0.155068 0.570269,0.42705 z"
             style="opacity:1;fill:#000000;fill-opacity:1;stroke:#000000;stroke-width:0.97903341;stroke-linecap:square;stroke-miterlimit:4;stroke-dasharray:none;stroke-opacity:1;paint-order:stroke fill markers" />
          <path
             sodipodi:nodetypes="cc"
             inkscape:connector-curvature="0"
             id="path5097"
             d="m 45.775154,41.35721 c -0.79081,-0.314277 -1.150896,-0.164404 -2.329955,-1.354596"
             style="fill:none;stroke:#000000;stroke-width:0.48951671;stroke-linecap:round;stroke-linejoin:miter;stroke-miterlimit:4;stroke-dasharray:none;stroke-opacity:1" />
        </g>
      </g>
      <g
         id="g5121"
         transform="matrix(-1,0,0,1,184.1011,4.3548072)">
        <g
           transform="matrix(1.7407327,0,0,1.7407327,8.2650452,-28.558537)"
           id="g5119">
          <path
             style="opacity:1;fill:#000000;fill-opacity:1;stroke:#000000;stroke-width:0.97903341;stroke-linecap:square;stroke-miterlimit:4;stroke-dasharray:none;stroke-opacity:1;paint-order:stroke fill markers"
             d="m 45.85141,41.94517 c 0,0.271982 -0.101772,0.492467 -0.570269,0.492467 -0.468497,0 -0.692221,-0.213699 -0.692221,-0.485681 0,-0.271982 0.223724,-0.433836 0.692221,-0.433836 0.468497,0 0.570269,0.155068 0.570269,0.42705 z"
             id="path5115"
             inkscape:connector-curvature="0"
             sodipodi:nodetypes="sssss" />
          <path
             style="fill:none;stroke:#000000;stroke-width:0.48951671;stroke-linecap:round;stroke-linejoin:miter;stroke-miterlimit:4;stroke-dasharray:none;stroke-opacity:1"
             d="m 45.775154,41.35721 c -0.79081,-0.314277 -1.150896,-0.164404 -2.329955,-1.354596"
             id="path5117"
             inkscape:connector-curvature="0"
             sodipodi:nodetypes="cc" />
        </g>
      </g>
      <path
         sodipodi:nodetypes="cc"
         inkscape:connector-curvature="0"
         id="path5129"
         d="m 94.645703,45.506847 c 2.041165,-1.200001 3.765093,-2.646743 4.677456,-4.724701"
         style="fill:none;stroke:#000000;stroke-width:1;stroke-linecap:round;stroke-linejoin:miter;stroke-miterlimit:4;stroke-dasharray:none;stroke-opacity:1" />
      <path
         style="fill:none;stroke:#000000;stroke-width:1;stroke-linecap:round;stroke-linejoin:miter;stroke-miterlimit:4;stroke-dasharray:none;stroke-opacity:1"
         d="M 90.390218,45.4596 C 88.349053,44.259599 86.625125,42.812857 85.712762,40.734899"
         id="path5131"
         inkscape:connector-curvature="0"
         sodipodi:nodetypes="cc" />
      <path
         inkscape:connector-curvature="0"
         id="path5133"
         d="m 88.948598,60.411326 3.875407,-2.939962 4.543584,2.271789 z"
         style="fill:none;stroke:#000000;stroke-width:0;stroke-linecap:butt;stroke-linejoin:miter;stroke-miterlimit:4;stroke-dasharray:none;stroke-opacity:1" />
      <path
         sodipodi:nodetypes="sssss"
         inkscape:connector-curvature="0"
         id="path5135"
         d="m 96.254129,57.397979 c 10e-7,0.950232 -1.906928,0.61854 -4.148738,0.61854 -2.24181,0 -3.969575,0.331692 -3.969574,-0.61854 10e-7,-0.950232 1.850755,-3.658251 4.092565,-3.658251 2.241809,0 4.025746,2.708019 4.025747,3.658251 z"
         style="opacity:1;fill:#000000;fill-opacity:1;stroke:#000000;stroke-width:0;stroke-linecap:round;stroke-miterlimit:4;stroke-dasharray:none;stroke-opacity:1;paint-order:stroke fill markers" />
      <path
         sodipodi:nodetypes="cc"
         inkscape:connector-curvature="0"
         id="path5152"
         d="m 78.621423,41.419488 c 9.453468,-5.817204 21.214834,-4.719679 27.818307,0.86255"
         style="fill:none;stroke:#000000;stroke-width:3;stroke-linecap:butt;stroke-linejoin:miter;stroke-opacity:1;stroke-miterlimit:4;stroke-dasharray:none" />
      <path
         transform="scale(0.26458333)"
         inkscape:connector-curvature="0"
         id="path5154"
         d="m 314.49536,141.09706 c 0.75188,-1.34353 6.81971,-6.31505 9.03746,-7.4046 5.15004,-2.53014 31.08436,-3.68962 41.39733,-1.85079 2.77792,0.49531 6.18719,1.45306 7.57615,2.12832 2.37253,1.15345 9.53335,6.76694 9.13736,7.16294 -0.1,0.1 -2.2143,-0.40302 -4.69855,-1.11772 -9.2792,-2.66955 -13.96391,-3.34718 -25.14694,-3.63741 -8.35052,-0.21673 -11.89042,-0.0958 -16.64227,0.5687 -5.23286,0.73172 -17.32512,3.49524 -20.1725,4.61015 -0.78209,0.30623 -0.87019,0.22327 -0.48804,-0.45959 z"
         style="opacity:1;fill:#000000;fill-opacity:1;stroke:#000000;stroke-width:5.72684908;stroke-linecap:round;stroke-miterlimit:4;stroke-dasharray:none;stroke-opacity:1;paint-order:stroke fill markers" />
      <path
         transform="scale(0.26458333)"
         inkscape:connector-curvature="0"
         id="path5156"
         d="m 346.24233,115.62879 c -5.89177,-3.26838 -13.37385,-8.34694 -15.3891,-10.44556 l -1.75205,-1.82452 1.23117,-3.616318 c 4.65396,-13.670074 16.67471,-19.784865 27.9962,-14.241276 5.12687,2.510384 10.67708,9.744638 11.71646,15.271484 0.2816,1.49736 0.0723,1.93512 -1.89406,3.96175 -1.21586,1.2531 -3.46071,3.24486 -4.98856,4.42613 -2.4981,1.93141 -11.10849,7.81415 -12.37437,8.45435 -0.2778,0.14048 -2.32335,-0.75323 -4.54569,-1.98604 z"
         style="opacity:1;fill:#000000;fill-opacity:1;stroke:#000000;stroke-width:5.72684908;stroke-linecap:round;stroke-miterlimit:4;stroke-dasharray:none;stroke-opacity:1;paint-order:stroke fill markers" />
      <path
         inkscape:connector-curvature="0"
         id="path5158"
         d="m 75.230137,26.50113 32.987703,7.295358"
         style="fill:none;stroke:#000000;stroke-width:1;stroke-linecap:butt;stroke-linejoin:miter;stroke-opacity:1;stroke-miterlimit:4;stroke-dasharray:none" />
      <path
         style="fill:none;stroke:#000000;stroke-width:1;stroke-linecap:butt;stroke-linejoin:miter;stroke-miterlimit:4;stroke-dasharray:none;stroke-opacity:1"
         d="M 108.59582,27.257082 75.608113,34.55244"
         id="path5160"
         inkscape:connector-curvature="0" />
      <path
         sodipodi:nodetypes="cc"
         inkscape:connector-curvature="0"
         id="path5174"
         d="m 76.439082,100.28963 c 12.685339,4.54228 23.209673,2.36144 33.675958,0"
         style="fill:none;stroke:#000000;stroke-width:3;stroke-linecap:butt;stroke-linejoin:miter;stroke-miterlimit:4;stroke-dasharray:none;stroke-opacity:1" />
    </g>
    <path
       style="fill:none;stroke:#000000;stroke-width:1;stroke-linecap:round;stroke-linejoin:miter;stroke-opacity:1;stroke-miterlimit:4;stroke-dasharray:none"
       d="m 92.604166,50.465029 0.04725,1.606399"
       id="path5209"
       inkscape:connector-curvature="0" />
  </g>
</svg>
