<?xml version="1.0" encoding="UTF-8" standalone="no"?>
<!-- Created with Inkscape (http://www.inkscape.org/) -->

<svg
   xmlns:dc="http://purl.org/dc/elements/1.1/"
   xmlns:cc="http://creativecommons.org/ns#"
   xmlns:rdf="http://www.w3.org/1999/02/22-rdf-syntax-ns#"
   xmlns:svg="http://www.w3.org/2000/svg"
   xmlns="http://www.w3.org/2000/svg"
   xmlns:sodipodi="http://sodipodi.sourceforge.net/DTD/sodipodi-0.dtd"
   xmlns:inkscape="http://www.inkscape.org/namespaces/inkscape"
   sodipodi:docname="гуннхильда сер.svg"
   inkscape:version="0.91 r13725"
   id="svg8"
   version="1.1"
   viewBox="0 0 210 297"
   height="297mm"
   width="210mm">
  <sodipodi:namedview
     inkscape:object-paths="true"
     showguides="false"
     inkscape:window-maximized="1"
     inkscape:window-y="-8"
     inkscape:window-x="-8"
     inkscape:window-height="988"
     inkscape:window-width="1680"
     inkscape:snap-grids="false"
     showgrid="true"
     inkscape:current-layer="layer1"
     inkscape:document-units="mm"
     inkscape:cy="851.80069"
     inkscape:cx="107.79417"
     inkscape:zoom="2"
     inkscape:pageshadow="2"
     inkscape:pageopacity="0.0"
     borderopacity="1.0"
     bordercolor="#666666"
     pagecolor="#ffffff"
     id="base">
    <inkscape:grid
       id="grid10"
       type="xygrid" />
  </sodipodi:namedview>
  <defs
     id="defs2" />
  <metadata
     id="metadata5">
    <rdf:RDF>
      <cc:Work
         rdf:about="">
        <dc:format>image/svg+xml</dc:format>
        <dc:type
           rdf:resource="http://purl.org/dc/dcmitype/StillImage" />
        <dc:title></dc:title>
      </cc:Work>
    </rdf:RDF>
  </metadata>
  <g
     id="layer1"
     inkscape:groupmode="layer"
     inkscape:label="Layer 1">
    <g
       id="g4665">
      <path
         style="fill:#a5a5a5;fill-opacity:0.40201009;stroke:#000000;stroke-width:0.26458332;stroke-opacity:1;opacity:1"
         d="m 116.79463,60.670383 c -3.09123,5.156109 -9.19155,18.833946 -18.166469,18.128683 -6.266743,-0.49245 -11.126676,-7.1736 -14.906438,-17.656213 -3.363367,-9.327801 7.262508,-13.229168 17.386907,-13.229166 10.1244,2e-6 17.90247,4.044498 15.686,12.756696 z"
         id="path4492"
         inkscape:connector-curvature="0"
         sodipodi:nodetypes="csssc" />
      <path
         id="path12"
         style="stroke-width:0.26458332;fill:none;opacity:1"
         ry="15.875"
         rx="17.197916"
         cy="50.9375"
         cx="104.51041" />
      <path
         style="opacity:1;fill:#838383;fill-opacity:1;stroke:#000000;stroke-width:0.26458332;stroke-opacity:1"
         d="m 117.92857,54.717258 c 0.332,1.879696 -4.36801,3.213701 -16.81994,3.212798 -12.406774,-9e-4 -18.636998,0.04688 -18.520836,-1.322917 0.652,-7.68846 2.754636,-19.277104 18.331846,-19.654762 14.14944,-0.343042 15.58627,9.710208 17.00893,17.764881 z"
         id="path4498"
         inkscape:connector-curvature="0"
         sodipodi:nodetypes="sssss" />
      <path
         style="fill:#838383;stroke:#000000;stroke-width:0.26458332px;stroke-linecap:butt;stroke-linejoin:miter;stroke-opacity:1;fill-opacity:0.40201005;opacity:1"
         d="m 84.344263,47.685748 c -9.602277,-3.567319 -9.181858,-5.103461 -9.63468,-21.298522 4.323269,6.649643 4.815427,15.00395 13.264427,15.382481 -1.645666,1.710702 -2.827871,3.699333 -3.629747,5.916041 z"
         id="path4511"
         inkscape:connector-curvature="0"
         sodipodi:nodetypes="cccc" />
      <path
         style="fill:#838383;stroke:#000000;stroke-width:0.26458332px;stroke-linecap:butt;stroke-linejoin:miter;stroke-opacity:1;fill-opacity:0.40201005;opacity:1"
         d="m 112.93099,41.070828 c 4.40914,0.0016 4.45378,-4.824502 5.87031,-8.133122 0.84351,1.308551 1.63168,2.653986 3.20724,3.474503 0.16383,5.009924 -2.00869,8.180598 -6.03079,9.895221 -0.59549,-1.724964 -1.48905,-3.464522 -3.04676,-5.236602 z"
         id="path4515"
         inkscape:connector-curvature="0"
         sodipodi:nodetypes="ccccc" />
      <path
         style="opacity:1;fill:#ebebeb;fill-opacity:0.90954775;stroke:#000000;stroke-width:0.26458332;stroke-opacity:1"
         d="m 94.656078,61.477405 c -0.448342,0.691412 -1.279357,1.228763 -2.449549,1.228763 -1.100533,0 -1.992832,-0.580263 -2.757933,-1.008731 -0.0497,-0.02783 -0.03563,-0.10947 -0.04694,-0.168408 0.596237,-0.554577 1.68362,-1.427871 2.853812,-1.427871 1.170191,0 1.927058,0.754904 2.400611,1.376247 z"
         id="path4517"
         inkscape:connector-curvature="0"
         sodipodi:nodetypes="csscsc" />
      <path
         style="opacity:1;fill:#ebebeb;fill-opacity:1;stroke:#000000;stroke-width:0.26458332;stroke-opacity:1"
         d="m 108.24214,61.702254 c -0.45118,0.442804 -1.32057,0.902762 -2.57516,0.886505 -1.27302,-0.0165 -1.58076,-0.07911 -2.54855,-0.904385 0.40112,-0.744463 1.28184,-1.469652 2.5499,-1.468639 1.27313,0.001 2.2462,0.990014 2.57381,1.486519 z"
         id="path4519"
         inkscape:connector-curvature="0"
         sodipodi:nodetypes="cscsc" />
      <ellipse
         style="opacity:1;fill:#b3b3b3;fill-opacity:0.40201008;stroke:#000000;stroke-width:0.365;stroke-opacity:1;stroke-miterlimit:4;stroke-dasharray:none"
         id="path4523"
         cx="92.324059"
         cy="61.359158"
         rx="1.1914797"
         ry="1.0942734" />
      <ellipse
         style="opacity:1;fill:#b3b3b3;fill-opacity:0.40201009;stroke:#000000;stroke-width:0.36500001;stroke-miterlimit:4;stroke-dasharray:none;stroke-opacity:1"
         id="path4527"
         ry="1.0408826"
         rx="1.1419269"
         cy="61.42453"
         cx="105.61683" />
      <ellipse
         style="opacity:1;fill:none;fill-opacity:0.40201009;stroke:#000000;stroke-width:0;stroke-opacity:1;stroke-miterlimit:4;stroke-dasharray:none"
         id="path4529"
         cx="91.942711"
         cy="60.947964"
         rx="0.035435267"
         ry="0.06496466" />
      <ellipse
         style="opacity:1;fill:#000000;fill-opacity:1;stroke:#000000;stroke-width:0.59566128;stroke-miterlimit:4;stroke-dasharray:none;stroke-opacity:1"
         id="path4539"
         cx="92.339516"
         cy="61.290447"
         rx="0.45216921"
         ry="0.45216936" />
      <ellipse
         style="opacity:1;fill:#ffffff;fill-opacity:1;stroke:#000000;stroke-width:0.09326802;stroke-miterlimit:4;stroke-dasharray:none;stroke-opacity:1"
         id="path4533"
         cx="92.741554"
         cy="60.967602"
         rx="0.16714524"
         ry="0.17980497" />
      <ellipse
         ry="0.45216936"
         rx="0.45216921"
         cy="61.407379"
         cx="105.62281"
         id="ellipse4543"
         style="opacity:1;fill:#000000;fill-opacity:1;stroke:#000000;stroke-width:0.59566128;stroke-miterlimit:4;stroke-dasharray:none;stroke-opacity:1" />
      <circle
         style="opacity:1;fill:#ffffff;fill-opacity:1;stroke:#000000;stroke-width:0.1;stroke-miterlimit:4;stroke-dasharray:none;stroke-opacity:1"
         id="path4535"
         cx="106.0108"
         cy="61.089539"
         r="0.19679365" />
      <path
         style="fill:none;stroke:#000000;stroke-width:0.26458332px;stroke-linecap:butt;stroke-linejoin:miter;stroke-opacity:1;opacity:1"
         d="m 103.39411,61.272208 c 0.26796,-0.772731 0.46139,-1.551673 0.46594,-2.346354"
         id="path4545"
         inkscape:connector-curvature="0"
         sodipodi:nodetypes="cc" />
      <path
         style="fill:none;stroke:#000000;stroke-width:0.26458332px;stroke-linecap:butt;stroke-linejoin:miter;stroke-opacity:1;opacity:1"
         d="m 104.489,60.448761 c 0.37379,-0.512375 0.55643,-1.06571 0.62195,-1.644142"
         id="path4547"
         inkscape:connector-curvature="0"
         sodipodi:nodetypes="cc" />
      <path
         style="fill:none;stroke:#000000;stroke-width:0.26458332px;stroke-linecap:butt;stroke-linejoin:miter;stroke-opacity:1;opacity:1"
         d="m 105.50995,60.219428 c 0.40544,-0.430784 0.60584,-0.856437 0.65411,-1.278284"
         id="path4549"
         inkscape:connector-curvature="0"
         sodipodi:nodetypes="cc" />
      <path
         style="fill:none;stroke:#000000;stroke-width:0.26458332px;stroke-linecap:butt;stroke-linejoin:miter;stroke-opacity:1;opacity:1"
         d="m 106.85561,60.504297 c 0.52622,-0.356474 0.72511,-0.778415 0.92902,-1.199351"
         id="path4551"
         inkscape:connector-curvature="0"
         sodipodi:nodetypes="cc" />
      <path
         style="fill:none;stroke:#000000;stroke-width:0.26458332px;stroke-linecap:butt;stroke-linejoin:miter;stroke-opacity:1;opacity:1"
         d="m 107.83106,61.21015 c 0.50598,-0.217607 0.90194,-0.508568 1.07805,-0.94609"
         id="path4553"
         inkscape:connector-curvature="0"
         sodipodi:nodetypes="cc" />
      <path
         style="fill:none;stroke:#000000;stroke-width:0.26458332px;stroke-linecap:butt;stroke-linejoin:miter;stroke-opacity:1;opacity:1"
         d="m 94.230694,60.985026 c -0.311003,-0.732042 -0.45365,-1.396433 -0.237466,-1.911591"
         id="path4555"
         inkscape:connector-curvature="0"
         sodipodi:nodetypes="cc" />
      <path
         style="fill:none;stroke:#000000;stroke-width:0.26458332px;stroke-linecap:butt;stroke-linejoin:miter;stroke-opacity:1;opacity:1"
         d="M 93.095042,60.241536 C 92.688921,59.686805 92.672125,59.132073 92.76953,58.577342"
         id="path4557"
         inkscape:connector-curvature="0"
         sodipodi:nodetypes="cc" />
      <path
         style="fill:none;stroke:#000000;stroke-width:0.26458332px;stroke-linecap:butt;stroke-linejoin:miter;stroke-opacity:1;opacity:1"
         d="m 91.874035,60.131089 c -0.34361,-0.674954 -0.288879,-0.951569 -0.29513,-1.289164"
         id="path4559"
         inkscape:connector-curvature="0"
         sodipodi:nodetypes="cc" />
      <path
         style="fill:none;stroke:#000000;stroke-width:0.26458332px;stroke-linecap:butt;stroke-linejoin:miter;stroke-opacity:1;opacity:1"
         d="M 90.92181,60.44176 C 90.361268,60.080868 90.171498,59.720053 89.932019,59.359228"
         id="path4563"
         inkscape:connector-curvature="0"
         sodipodi:nodetypes="cc" />
      <path
         style="fill:none;stroke:#000000;stroke-width:0.26458332px;stroke-linecap:butt;stroke-linejoin:miter;stroke-opacity:1;opacity:1"
         d="M 90.148181,60.911133 C 89.394336,60.714782 89.288095,60.333401 89.131509,59.966404"
         id="path4565"
         inkscape:connector-curvature="0"
         sodipodi:nodetypes="cc" />
      <path
         style="fill:none;stroke:#000000;stroke-width:0.065;stroke-linecap:butt;stroke-linejoin:miter;stroke-miterlimit:4;stroke-dasharray:none;stroke-opacity:1;opacity:1"
         d="m 88.833853,65.092706 c 0.44268,1.564216 1.048014,2.159943 1.187273,4.078733 0.122405,1.868358 1.295507,4.114225 1.789289,4.586371"
         id="path4567"
         inkscape:connector-curvature="0"
         sodipodi:nodetypes="ccc" />
      <path
         style="fill:none;stroke:#000000;stroke-width:0.065;stroke-linecap:butt;stroke-linejoin:miter;stroke-miterlimit:4;stroke-dasharray:none;stroke-opacity:1;opacity:1"
         d="m 108.01614,65.092706 c -0.57385,0.87308 -1.21988,1.621106 -1.4336,3.021943 -0.24384,1.097706 -0.76173,2.018606 -1.41067,2.865036"
         id="path4575"
         inkscape:connector-curvature="0"
         sodipodi:nodetypes="ccc" />
      <path
         style="fill:none;stroke:#000000;stroke-width:0.065;stroke-linecap:butt;stroke-linejoin:miter;stroke-miterlimit:4;stroke-dasharray:none;stroke-opacity:1;opacity:1"
         d="m 111.22439,65.552777 c -0.95179,1.141632 -1.8106,2.308057 -2.29865,3.57335 -0.58934,1.443809 -1.5153,2.40672 -2.29866,3.57335"
         id="path4577"
         inkscape:connector-curvature="0"
         sodipodi:nodetypes="ccc" />
      <path
         style="fill:none;stroke:#000000;stroke-width:0.065;stroke-linecap:butt;stroke-linejoin:miter;stroke-miterlimit:4;stroke-dasharray:none;stroke-opacity:1;opacity:1"
         d="m 91.74427,66.547914 c 0.15434,0.43156 0.30868,0.44308 0.46302,1.852084 0.135177,1.297206 0.482639,1.439785 0.463021,1.852083"
         id="path4579"
         inkscape:connector-curvature="0"
         sodipodi:nodetypes="ccc" />
      <path
         style="fill:none;stroke:#000000;stroke-width:0.26458332px;stroke-linecap:butt;stroke-linejoin:miter;stroke-opacity:1;opacity:1"
         d="m 95.779165,72.038019 c 2.459361,1.094851 4.550125,0.838188 6.482295,0"
         id="path4581"
         inkscape:connector-curvature="0"
         sodipodi:nodetypes="cc" />
      <path
         style="fill:none;stroke:#000000;stroke-width:0.26458332px;stroke-linecap:butt;stroke-linejoin:miter;stroke-opacity:1;opacity:1"
         d="m 98.086438,65.663426 c 0,0 -0.0289,2.075934 0.735436,2.207405 0.82099,0.141215 1.897226,-2.313094 1.934836,-2.302349"
         id="path4583"
         inkscape:connector-curvature="0"
         sodipodi:nodetypes="csc" />
      <path
         style="fill:#c4c4c4;stroke:#000000;stroke-width:0.26458332px;stroke-linecap:butt;stroke-linejoin:miter;stroke-opacity:1;opacity:1"
         d="m 82.798797,57.025346 c -0.302977,2.632565 -1.550702,5.535058 -0.756731,7.85421 -1.762297,4.402679 -0.747609,5.523465 -0.75673,7.85421 -1.818433,3.513035 -1.362261,5.726296 -0.756731,7.854209 -2.267833,4.886731 -0.931752,5.71705 -0.756731,7.85421 0.464391,0.650996 2.910418,0.132294 2.910418,0.132294 0.445813,-2.05147 1.260444,-3.816082 0.200915,-7.038373 1.717062,-2.980775 0.644446,-4.888596 0.200916,-7.038374 1.576684,-2.740296 0.596211,-5.194489 0.200915,-7.038373 0.772762,-1.7332 0.862427,-4.224871 0.200916,-7.038374"
         id="path4593"
         inkscape:connector-curvature="0"
         sodipodi:nodetypes="cccccccccc" />
      <path
         style="fill:none;stroke:#000000;stroke-width:0.16500001;stroke-linecap:butt;stroke-linejoin:miter;stroke-miterlimit:4;stroke-dasharray:none;stroke-opacity:1;opacity:1"
         d="m 82.260547,66.050731 c -0.357114,3.345435 0.03082,5.338737 0.502801,7.179527"
         id="path4595"
         inkscape:connector-curvature="0"
         sodipodi:nodetypes="cc" />
      <path
         style="fill:none;stroke:#000000;stroke-width:0.16500001;stroke-linecap:butt;stroke-linejoin:miter;stroke-miterlimit:4;stroke-dasharray:none;stroke-opacity:1;opacity:1"
         d="m 83.128775,60.54518 c 0.09475,1.207733 -0.05617,2.281459 -0.446484,3.22461"
         id="path4597"
         inkscape:connector-curvature="0"
         sodipodi:nodetypes="cc" />
      <path
         style="fill:none;stroke:#000000;stroke-width:0.16500001;stroke-linecap:butt;stroke-linejoin:miter;stroke-miterlimit:4;stroke-dasharray:none;stroke-opacity:1;opacity:1"
         d="m 82.131926,75.112837 c 0.550684,2.018694 0.353318,3.76537 -0.467723,5.285255"
         id="path4599"
         inkscape:connector-curvature="0"
         sodipodi:nodetypes="cc" />
      <path
         style="fill:none;stroke:#000000;stroke-width:0.16500001;stroke-linecap:butt;stroke-linejoin:miter;stroke-miterlimit:4;stroke-dasharray:none;stroke-opacity:1;opacity:1"
         d="m 81.243254,82.175434 c -0.493992,1.843072 -0.34342,3.962122 0.467722,5.121552"
         id="path4603"
         inkscape:connector-curvature="0"
         sodipodi:nodetypes="cc" />
      <path
         style="fill:#626262;stroke:#000000;stroke-width:0.26458332px;stroke-linecap:butt;stroke-linejoin:miter;stroke-opacity:1;opacity:1"
         d="m 79.771874,88.442185 -0.06615,1.81901 c 0.725364,0.240355 1.387057,0.523158 3.009641,0.165367 l -0.03307,-1.852083 c -1.011726,0.09516 -2.102609,0.455376 -2.910421,-0.132294 z"
         id="path4605"
         inkscape:connector-curvature="0"
         sodipodi:nodetypes="ccccc" />
      <path
         style="fill:#c4c4c4;stroke:#000000;stroke-width:0.26458332px;stroke-linecap:butt;stroke-linejoin:miter;stroke-opacity:1;opacity:1"
         d="m 79.705723,90.261193 -0.644917,2.943492 c 0.402338,-0.60918 0.740264,-1.331079 1.30638,-1.653646 0.392037,0.584288 0.430859,1.168577 0.479558,1.752865 0.156279,-0.530588 0.148002,-1.048518 0.843359,-1.620573 0.235961,0.567752 0.369564,1.135503 0.297656,1.703255 0.05997,-0.584288 0.04387,-1.168577 0.611849,-1.752865 l 0.859896,1.554428 -0.74414,-2.761589 c -1.003212,0.322474 -2.006426,0.170414 -3.009641,-0.165367 z"
         id="path4611"
         inkscape:connector-curvature="0"
         sodipodi:nodetypes="cccccccccc" />
      <path
         style="fill:#c4c4c4;stroke:#000000;stroke-width:0.26458332px;stroke-linecap:butt;stroke-linejoin:miter;stroke-opacity:1;fill-opacity:1;opacity:1"
         d="m 117.73438,55.516369 c 0.88641,2.002559 1.88899,3.687086 1.92083,8.029315 1.30501,2.723919 2.34216,5.428705 1.92083,8.029314 l -1.83603,0.647761 c -0.83645,-0.402114 -0.98392,-3.019884 -1.12579,-5.042691 -1.27483,-2.467834 -1.05954,-8.033069 -1.44048,-11.108734"
         id="path4613"
         inkscape:connector-curvature="0"
         sodipodi:nodetypes="cccccc" />
      <path
         style="fill:#828282;stroke:#000000;stroke-width:0.26458332px;stroke-linecap:butt;stroke-linejoin:miter;stroke-opacity:1;opacity:1"
         d="m 119.74001,72.222759 0.51123,1.767546 2.05798,-0.795126 -0.73318,-1.620181 z"
         id="path4615"
         inkscape:connector-curvature="0" />
      <path
         style="fill:#c4c4c4;stroke:#000000;stroke-width:0.26458332px;stroke-linecap:butt;stroke-linejoin:miter;stroke-opacity:1;fill-opacity:1;opacity:1"
         d="m 120.25124,73.990305 0.32741,2.38538 0.51449,-1.216075 1.02899,0.841899 0.18709,-1.356395 1.12253,0.514496 -1.12253,-1.964431 z"
         id="path4617"
         inkscape:connector-curvature="0" />
      <path
         style="fill:none;stroke:#000000;stroke-width:0.16500001;stroke-linecap:butt;stroke-linejoin:miter;stroke-miterlimit:4;stroke-dasharray:none;stroke-opacity:1;opacity:1"
         d="m 118.43613,60.252919 c 0.13059,1.899865 0.20329,3.954109 0.69258,4.897448"
         id="path4619"
         inkscape:connector-curvature="0"
         sodipodi:nodetypes="cc" />
      <path
         style="fill:none;stroke:#000000;stroke-width:0.16500001;stroke-linecap:butt;stroke-linejoin:miter;stroke-miterlimit:4;stroke-dasharray:none;stroke-opacity:1;opacity:1"
         d="m 119.97061,67.301884 c 0.23816,1.220665 0.37618,2.418222 0.0468,3.507915"
         id="path4621"
         inkscape:connector-curvature="0"
         sodipodi:nodetypes="cc" />
    </g>
  </g>
</svg>
