<?xml version="1.0" encoding="UTF-8" standalone="no"?>
<!-- Created with Inkscape (http://www.inkscape.org/) -->

<svg
   xmlns:dc="http://purl.org/dc/elements/1.1/"
   xmlns:cc="http://creativecommons.org/ns#"
   xmlns:rdf="http://www.w3.org/1999/02/22-rdf-syntax-ns#"
   xmlns:svg="http://www.w3.org/2000/svg"
   xmlns="http://www.w3.org/2000/svg"
   xmlns:sodipodi="http://sodipodi.sourceforge.net/DTD/sodipodi-0.dtd"
   xmlns:inkscape="http://www.inkscape.org/namespaces/inkscape"
   width="210mm"
   height="297mm"
   viewBox="0 0 210 297"
   version="1.1"
   id="svg4511"
   inkscape:version="0.91 r13725"
   sodipodi:docname="клерик 1.svg">
  <defs
     id="defs4505" />
  <sodipodi:namedview
     id="base"
     pagecolor="#ffffff"
     bordercolor="#666666"
     borderopacity="1.0"
     inkscape:pageopacity="0.0"
     inkscape:pageshadow="2"
     inkscape:zoom="0.35"
     inkscape:cx="-1088.4009"
     inkscape:cy="202.0063"
     inkscape:document-units="mm"
     inkscape:current-layer="layer1"
     showgrid="true"
     inkscape:snap-grids="false"
     inkscape:object-nodes="true"
     inkscape:object-paths="true"
     inkscape:window-width="1680"
     inkscape:window-height="988"
     inkscape:window-x="-8"
     inkscape:window-y="-8"
     inkscape:window-maximized="1">
    <inkscape:grid
       type="xygrid"
       id="grid5056" />
  </sodipodi:namedview>
  <metadata
     id="metadata4508">
    <rdf:RDF>
      <cc:Work
         rdf:about="">
        <dc:format>image/svg+xml</dc:format>
        <dc:type
           rdf:resource="http://purl.org/dc/dcmitype/StillImage" />
        <dc:title></dc:title>
      </cc:Work>
    </rdf:RDF>
  </metadata>
  <g
     inkscape:label="Layer 1"
     inkscape:groupmode="layer"
     id="layer1">
    <path
       style="fill:#ffffff;fill-opacity:1;stroke:#000000;stroke-width:2;stroke-linecap:round;stroke-linejoin:round;stroke-miterlimit:4;stroke-dasharray:none;stroke-opacity:1"
       d="m 74.083333,74.75 c 2.421263,8.984064 5.283433,8.735768 11.906249,13.985119 C 91.261995,84.862569 91.618128,77.788561 95.25,74.75 h 12.85119 c 4.38111,6.100155 6.80642,12.851514 5.10268,20.977679 0.0319,15.906891 1.65322,35.293101 -4.7247,47.247031 16.04563,43.30614 14.71403,80.27026 15.30803,117.92856 -8.77093,0.47499 -11.55201,0.1415 -12.06253,-1.89174 4.55703,7.23706 -52.920462,4.39647 -60.331035,0.19085 3.42989,-39.63323 1.331853,-100.02193 12.106365,-115.66071 -4.181976,-5.08074 -3.039029,-25.92373 -6.236607,-47.247027 -1.316765,-7.15606 1.354033,-14.26357 5.291666,-21.355655 z"
       id="path5060"
       inkscape:connector-curvature="0"
       sodipodi:nodetypes="ccccccccccccc" />
    <path
       style="fill:#ffffff;fill-opacity:1;stroke:#000000;stroke-width:2;stroke-linecap:round;stroke-linejoin:bevel;stroke-miterlimit:4;stroke-dasharray:none;stroke-opacity:1"
       d="M 62.555059,74.938988 C 47.402087,82.163239 49.268099,107.47016 49.703866,131.25745 l 35.736118,56.53036 c -1.332623,-15.31072 -0.118162,-28.46112 -0.773318,-49.5378 L 64.44494,129.36756 57.263393,96.294643 c -0.84705,-5.110138 -0.358836,-11.2474 5.291666,-21.355655 z"
       id="path5058"
       inkscape:connector-curvature="0"
       sodipodi:nodetypes="ccccccc" />
    <path
       style="fill:none;stroke:#000000;stroke-width:2;stroke-linecap:butt;stroke-linejoin:miter;stroke-miterlimit:4;stroke-dasharray:none;stroke-opacity:1"
       d="m 85.989582,88.735119 c 16.773458,9.654192 8.161371,46.114741 22.489588,54.239591 4.9421,54.12001 5.78684,105.45772 3.2455,116.03682"
       id="path5066"
       inkscape:connector-curvature="0"
       sodipodi:nodetypes="ccc" />
    <path
       inkscape:connector-curvature="0"
       id="path5062"
       d="m 108.10119,74.75 c 12.34204,-0.948448 14.4103,25.188512 15.875,52.91667 l -38.536206,60.12114 c -2.96031,-21.90857 0.332914,-45.0362 -0.773318,-49.5378 L 108.10119,122.375 113.20387,95.727679 C 115.39924,85.287818 111.0951,80.655281 108.10119,74.75 Z"
       style="fill:#ffffff;fill-opacity:1;stroke:#000000;stroke-width:2;stroke-linecap:round;stroke-linejoin:bevel;stroke-miterlimit:4;stroke-dasharray:none;stroke-opacity:1"
       sodipodi:nodetypes="ccccccc" />
    <path
       style="fill:none;stroke:#000000;stroke-width:2;stroke-linecap:butt;stroke-linejoin:round;stroke-miterlimit:4;stroke-dasharray:none;stroke-opacity:1"
       d="m 74.083332,74.75 3.715028,-0.502939 0.739739,-3.735059 c 0,0 -12.825358,-10.311692 -13.591604,-17.529083 -1.062864,-10.011284 7.705882,-21.524667 17.773423,-21.515196 8.978302,0.0084 18.002442,10.060698 17.639792,19.243407 -0.34696,8.7852 -11.215827,19.817085 -11.215827,19.817085 L 89.99433,74.097212 95.249999,74.75"
       id="path5068"
       inkscape:connector-curvature="0"
       sodipodi:nodetypes="cccsssccc" />
    <path
       style="fill:none;stroke:#000000;stroke-width:2;stroke-linecap:round;stroke-linejoin:miter;stroke-miterlimit:4;stroke-dasharray:none;stroke-opacity:1"
       d="m 78.538098,70.512 c 3.218178,1.379435 6.635601,1.895473 10.605785,0.01622"
       id="path5070"
       inkscape:connector-curvature="0"
       sodipodi:nodetypes="cc" />
    <path
       style="fill:#000000;fill-opacity:1;stroke:#000000;stroke-width:0.5;stroke-linecap:round;stroke-linejoin:round;stroke-miterlimit:4;stroke-dasharray:none;stroke-opacity:1"
       d="m 68.172419,40.609023 -9.727065,2.37928 5.105848,-0.29434 -6.473338,3.16752 4.999764,-1.216627 -5.48973,5.30358 5.321317,-3.11564 -4.454659,7.161283 4.490638,-4.041604 -1.847586,6.790037 c 2.666027,-3.7709 4.868267,-6.682973 4.762946,-5.667 -0.0581,-3.434967 1.211778,-6.931488 3.311865,-10.466489 z"
       id="path4492"
       inkscape:connector-curvature="0"
       sodipodi:nodetypes="cccccccccccc" />
    <path
       sodipodi:nodetypes="cccccccccccc"
       inkscape:connector-curvature="0"
       id="path4494"
       d="m 98.118622,41.959168 8.388118,2.066411 -5.20035,0.0445 5.64711,3.908041 -4.77292,-1.373972 4.88641,4.413994 -4.4278,-1.834646 4.2293,4.77207 -5.03111,-2.901184 3.89441,6.516274 -5.6393,-4.749006 c 1.14975,-3.878687 -0.717369,-7.327034 -1.973868,-10.862482 z"
       style="fill:#000000;fill-opacity:1;stroke:#000000;stroke-width:0.5;stroke-linecap:round;stroke-linejoin:round;stroke-miterlimit:4;stroke-dasharray:none;stroke-opacity:1" />
    <path
       style="opacity:1;fill:none;fill-opacity:1;stroke:#000000;stroke-width:1.1859827;stroke-linecap:round;stroke-linejoin:round;stroke-miterlimit:4;stroke-dasharray:none;stroke-opacity:1;paint-order:stroke fill markers"
       d="m 83.404184,50.177306 c 0,2.162243 -2.389256,3.915087 -5.33655,3.915088 -2.947296,0 -4.274042,-0.428957 -4.274042,-2.591201 0,-2.162243 -0.191125,-4.080574 2.756171,-4.080574 2.947295,0 6.854421,0.594444 6.854421,2.756687 z"
       id="path4517"
       inkscape:connector-curvature="0"
       sodipodi:nodetypes="sssss" />
    <path
       style="opacity:1;fill:none;fill-opacity:1;stroke:#000000;stroke-width:1.23882115;stroke-linecap:round;stroke-linejoin:round;stroke-miterlimit:4;stroke-dasharray:none;stroke-opacity:1;paint-order:stroke fill markers"
       d="m 81.397787,50.711136 c 0,0 -1.262806,1.083302 -2.820555,1.083302 -1.557749,0 -2.820554,-1.083302 -2.820554,-1.083302 0,0 1.262805,-1.617841 2.820554,-1.617841 1.557749,0 2.820555,1.617841 2.820555,1.617841 z"
       id="path4545"
       inkscape:connector-curvature="0"
       sodipodi:nodetypes="cscsc" />
    <ellipse
       style="opacity:1;fill:#000000;fill-opacity:1;stroke:#000000;stroke-width:1;stroke-linecap:round;stroke-linejoin:round;stroke-miterlimit:4;stroke-dasharray:none;stroke-opacity:1;paint-order:stroke fill markers"
       id="path4552"
       cx="79.044968"
       cy="50.477272"
       rx="0.86862594"
       ry="0.76839989" />
    <g
       id="g4560"
       transform="translate(1.0394345)">
      <path
         style="opacity:1;fill:none;fill-opacity:1;stroke:#000000;stroke-width:1.23882115;stroke-linecap:round;stroke-linejoin:round;stroke-miterlimit:4;stroke-dasharray:none;stroke-opacity:1;paint-order:stroke fill markers"
         d="m 93.82582,50.777953 c 0,0 -1.262806,1.083302 -2.820555,1.083302 -1.557749,0 -2.820554,-1.083302 -2.820554,-1.083302 0,0 1.262805,-1.617841 2.820554,-1.617841 1.557749,0 2.820555,1.617841 2.820555,1.617841 z"
         id="path4550"
         inkscape:connector-curvature="0"
         sodipodi:nodetypes="cscsc" />
      <ellipse
         style="opacity:1;fill:#000000;fill-opacity:1;stroke:#000000;stroke-width:1;stroke-linecap:round;stroke-linejoin:round;stroke-miterlimit:4;stroke-dasharray:none;stroke-opacity:1;paint-order:stroke fill markers"
         id="ellipse4554"
         cx="91.473"
         cy="50.677723"
         rx="0.86862594"
         ry="0.76839989" />
    </g>
    <path
       sodipodi:nodetypes="sssss"
       inkscape:connector-curvature="0"
       id="path4556"
       d="m 87.204361,50.2718 c 0,2.162243 2.389256,3.915087 5.33655,3.915088 2.947296,0 4.274042,-0.428957 4.274042,-2.591201 0,-2.162243 0.191125,-4.080574 -2.756171,-4.080574 -2.947295,0 -6.854421,0.594444 -6.854421,2.756687 z"
       style="opacity:1;fill:none;fill-opacity:1;stroke:#000000;stroke-width:1.1859827;stroke-linecap:round;stroke-linejoin:round;stroke-miterlimit:4;stroke-dasharray:none;stroke-opacity:1;paint-order:stroke fill markers" />
    <path
       style="fill:none;stroke:#000000;stroke-width:1;stroke-linecap:butt;stroke-linejoin:miter;stroke-miterlimit:4;stroke-dasharray:none;stroke-opacity:1"
       d="m 83.404182,50.177305 c 1.167864,-0.462817 2.382667,-0.690934 3.800179,0.09449"
       id="path4564"
       inkscape:connector-curvature="0"
       sodipodi:nodetypes="cc" />
    <path
       style="fill:none;stroke:#000000;stroke-width:1;stroke-linecap:butt;stroke-linejoin:miter;stroke-opacity:1;stroke-miterlimit:4;stroke-dasharray:none"
       d="m 96.738179,49.459581 4.568211,-5.389502"
       id="path4566"
       inkscape:connector-curvature="0" />
    <path
       style="fill:none;stroke:#000000;stroke-width:1;stroke-linecap:butt;stroke-linejoin:miter;stroke-miterlimit:4;stroke-dasharray:none;stroke-opacity:1"
       d="M 74.031858,48.735673 65.710383,45.869985"
       id="path4568"
       inkscape:connector-curvature="0"
       sodipodi:nodetypes="cc" />
    <path
       style="fill:none;stroke:#000000;stroke-width:1;stroke-linecap:butt;stroke-linejoin:round;stroke-opacity:1;stroke-miterlimit:4;stroke-dasharray:none"
       d="m 85.611606,52.165921 1.039435,6.709077 -1.511904,0.18899"
       id="path4570"
       inkscape:connector-curvature="0" />
    <path
       style="fill:none;stroke:#000000;stroke-width:1;stroke-linecap:round;stroke-linejoin:round;stroke-miterlimit:4;stroke-dasharray:none;stroke-opacity:1"
       d="m 81.926338,64.072172 c 2.498987,0.494622 5.020597,1.170233 7.276042,-0.283483"
       id="path4572"
       inkscape:connector-curvature="0"
       sodipodi:nodetypes="cc" />
    <path
       style="fill:none;stroke:#000000;stroke-width:1;stroke-linecap:round;stroke-linejoin:miter;stroke-miterlimit:4;stroke-dasharray:none;stroke-opacity:1"
       d="M 83.120822,46.167547 C 80.269947,45.469927 77.419073,45.190494 74.568198,44.8312"
       id="path4580"
       inkscape:connector-curvature="0"
       sodipodi:nodetypes="cc" />
    <path
       sodipodi:nodetypes="cc"
       inkscape:connector-curvature="0"
       id="path4584"
       d="m 88.198797,46.568451 c 2.850875,-0.69762 5.701749,-0.977053 8.552624,-1.336347"
       style="fill:none;stroke:#000000;stroke-width:1;stroke-linecap:round;stroke-linejoin:miter;stroke-miterlimit:4;stroke-dasharray:none;stroke-opacity:1" />
    <path
       style="fill:none;stroke:#000000;stroke-width:1;stroke-linecap:butt;stroke-linejoin:miter;stroke-miterlimit:4;stroke-dasharray:none;stroke-opacity:1"
       d="m 77.79836,74.247059 6.275521,42.270231 5.920448,-42.42008"
       id="path4586"
       inkscape:connector-curvature="0"
       sodipodi:nodetypes="ccc" />
    <ellipse
       style="opacity:1;fill:#000000;fill-opacity:1;stroke:#000000;stroke-width:1;stroke-linecap:round;stroke-linejoin:round;stroke-miterlimit:4;stroke-dasharray:none;stroke-opacity:1;paint-order:stroke fill markers"
       id="path4588"
       cx="84.16758"
       cy="122.08822"
       rx="5.1705518"
       ry="5.5718474" />
  </g>
</svg>
