<?xml version="1.0" encoding="UTF-8" standalone="no"?>
<!-- Created with Inkscape (http://www.inkscape.org/) -->

<svg
   xmlns:dc="http://purl.org/dc/elements/1.1/"
   xmlns:cc="http://creativecommons.org/ns#"
   xmlns:rdf="http://www.w3.org/1999/02/22-rdf-syntax-ns#"
   xmlns:svg="http://www.w3.org/2000/svg"
   xmlns="http://www.w3.org/2000/svg"
   xmlns:sodipodi="http://sodipodi.sourceforge.net/DTD/sodipodi-0.dtd"
   xmlns:inkscape="http://www.inkscape.org/namespaces/inkscape"
   width="210mm"
   height="297mm"
   viewBox="0 0 210 297"
   version="1.1"
   id="svg8"
   inkscape:version="0.91 r13725"
   sodipodi:docname="нафаня2.svg">
  <defs
     id="defs2" />
  <sodipodi:namedview
     id="base"
     pagecolor="#ffffff"
     bordercolor="#666666"
     borderopacity="1.0"
     inkscape:pageopacity="0.0"
     inkscape:pageshadow="2"
     inkscape:zoom="0.49497475"
     inkscape:cx="-540.70152"
     inkscape:cy="490.23764"
     inkscape:document-units="mm"
     inkscape:current-layer="layer1"
     showgrid="true"
     inkscape:snap-grids="false"
     inkscape:object-paths="false"
     inkscape:snap-smooth-nodes="false"
     inkscape:window-width="1680"
     inkscape:window-height="988"
     inkscape:window-x="-8"
     inkscape:window-y="-8"
     inkscape:window-maximized="1"
     inkscape:object-nodes="false">
    <inkscape:grid
       type="xygrid"
       id="grid4485" />
  </sodipodi:namedview>
  <metadata
     id="metadata5">
    <rdf:RDF>
      <cc:Work
         rdf:about="">
        <dc:format>image/svg+xml</dc:format>
        <dc:type
           rdf:resource="http://purl.org/dc/dcmitype/StillImage" />
        <dc:title></dc:title>
      </cc:Work>
    </rdf:RDF>
  </metadata>
  <g
     inkscape:label="Layer 1"
     inkscape:groupmode="layer"
     id="layer1">
    <path
       style="fill:none;stroke:#000000;stroke-width:2;stroke-linecap:butt;stroke-linejoin:miter;stroke-miterlimit:4;stroke-dasharray:none;stroke-opacity:1"
       d="m 94.718361,116.1067 c 16.200859,12.44507 40.183829,12.92219 43.192709,45.65492 l 2.6727,109.58051 c -23.75927,4.29415 -46.673275,0.98086 -69.757346,-0.80181 4.873331,-47.01669 2.379358,-94.20321 16.518026,-138.36903 z"
       id="path4493"
       inkscape:connector-curvature="0"
       sodipodi:nodetypes="cccccc" />
    <path
       style="fill:none;stroke:#000000;stroke-width:2;stroke-linecap:butt;stroke-linejoin:round;stroke-miterlimit:4;stroke-dasharray:none;stroke-opacity:1"
       d="m 83.25451,146.83478 -13.865529,30.44523 -26.706443,-19.17632 1.3257,20.8549 28.776195,20.10543 3.961316,-11.85247 c 0.629386,-11.00176 3.657134,-26.38145 6.508761,-40.37677 z"
       id="path4495"
       inkscape:connector-curvature="0"
       sodipodi:nodetypes="ccccccc" />
    <path
       transform="matrix(0.81435036,0.77548373,-0.54246141,1.1641666,58.463734,-182.139)"
       inkscape:transform-center-y="5.161103"
       inkscape:transform-center-x="-5.0306536"
       d="m 173.45793,203.45566 -5.06513,-3.44789 -4.70614,3.53341 1.71394,-5.88268 -4.81476,-3.38392 6.1244,-0.1878 1.73046,-5.62479 2.07115,5.76661 5.88423,-0.0924 -4.84435,3.75176 z"
       inkscape:randomized="0"
       inkscape:rounded="0"
       inkscape:flatsided="false"
       sodipodi:arg2="1.6080844"
       sodipodi:arg1="0.93372603"
       sodipodi:r2="3.236089"
       sodipodi:r1="8.312254"
       sodipodi:cy="196.77393"
       sodipodi:cx="168.51344"
       sodipodi:sides="5"
       id="path4534"
       style="opacity:1;fill:#000000;fill-opacity:1;stroke:#000000;stroke-width:2;stroke-linecap:round;stroke-linejoin:round;stroke-miterlimit:4;stroke-dasharray:none;stroke-opacity:1;paint-order:stroke fill markers"
       sodipodi:type="star" />
    <path
       style="fill:#ffffff;fill-opacity:1;stroke:#000000;stroke-width:2;stroke-linecap:butt;stroke-linejoin:miter;stroke-miterlimit:4;stroke-dasharray:none;stroke-opacity:1"
       d="m 61.485582,109.26421 c -0.322931,9.20697 -1.592259,18.28774 3.193644,28.17588 -4.766696,21.74705 2.881321,50.10231 4.781684,71.82834 16.14187,-21.32358 16.580223,-49.17885 14.72899,-70.22472 3.256931,-8.02801 8.960983,-19.03064 14.960849,-30.39285 -12.961147,1.13549 -25.779966,2.31694 -37.665167,0.61335 z"
       id="path4491"
       inkscape:connector-curvature="0"
       sodipodi:nodetypes="cccccc" />
    <path
       style="fill:none;stroke:#000000;stroke-width:2;stroke-linecap:butt;stroke-linejoin:miter;stroke-miterlimit:4;stroke-dasharray:none;stroke-opacity:1"
       d="m 47.624999,106.5 c 21.283252,6.12843 44.883559,3.202 68.791671,0 -7.70742,-2.74555 -15.21557,-5.7302 -21.166671,-10.583333 -4.863784,-12.081826 6.594581,-21.248983 10.583331,-31.75 4.87496,3.794037 7.34986,4.680123 10.58334,5.291667 -0.13787,-3.483716 -5.19844,-9.592869 -10.58334,-15.875 C 93.486109,67.694445 82.385739,70.280115 68.791666,95.916667 67.640577,100.1005 58.27546,103.37166 47.624999,106.5 Z"
       id="path4487"
       inkscape:connector-curvature="0"
       sodipodi:nodetypes="cccccccc" />
    <g
       id="g4507"
       transform="translate(-4.8108515,2.6726953)"
       style="fill:#ffffff;fill-opacity:1">
      <path
         sodipodi:nodetypes="cccccccc"
         inkscape:connector-curvature="0"
         id="path4497"
         d="M 40.443451,132.28665 39.6875,269.21874 30.238095,268.85264 C 30.998993,223.33779 33.520695,178.89449 31.75,132.28665 L 21.544643,108.53454 c 5.308485,5.23707 7.353601,17.32206 15.943165,12.7159 5.546169,-4.39739 4.089573,-19.52304 6.357429,-24.526797 z"
         style="fill:#ffffff;stroke:#000000;stroke-width:1.9684056;stroke-linecap:butt;stroke-linejoin:miter;stroke-miterlimit:4;stroke-dasharray:none;stroke-opacity:1;fill-opacity:1" />
      <ellipse
         ry="5.2359834"
         rx="5.8039966"
         cy="117.00661"
         cx="34.088287"
         id="path4499"
         style="opacity:1;fill:#ffffff;fill-opacity:1;stroke:#000000;stroke-width:2;stroke-linecap:square;stroke-linejoin:bevel;stroke-miterlimit:4;stroke-dasharray:none;stroke-opacity:1;paint-order:stroke fill markers" />
    </g>
    <path
       style="fill:none;stroke:#000000;stroke-width:1;stroke-linecap:round;stroke-linejoin:bevel;stroke-miterlimit:4;stroke-dasharray:none;stroke-opacity:1"
       d="m 42.682538,158.10369 c -4.06172,-2.76113 -3.965305,-3.95811 -5.264804,-5.83014 -0.694751,-2.43499 0.322242,-6.90625 0.417115,-8.5048 l -2.279392,5.16398 -0.06678,12.09614 c 3.178762,2.60827 6.361429,8.06773 8.112306,9.77097 z"
       id="path4513"
       inkscape:connector-curvature="0"
       sodipodi:nodetypes="ccccccc" />
    <path
       style="fill:#ffffff;fill-opacity:1;stroke:#000000;stroke-width:1;stroke-linecap:round;stroke-linejoin:bevel;stroke-miterlimit:4;stroke-dasharray:none;stroke-opacity:1"
       d="m 27.338641,148.45754 -2.415758,1.0765 5.144938,1.00226 c 0.974164,3.20481 1.274686,7.67233 0.110707,9.98624 -1.165951,0.38572 -2.702917,1.17212 -5.762507,0.005 0.200452,-2.93996 0.679305,-4.69723 0.506862,-10.99325 z"
       id="path4515"
       inkscape:connector-curvature="0"
       sodipodi:nodetypes="ccccccc" />
    <path
       transform="matrix(0.85493879,0.54168276,-0.29913476,1.5481504,39.192014,-195.6844)"
       inkscape:transform-center-y="2.808689"
       inkscape:transform-center-x="-5.7670416"
       d="m 172.68671,204.55656 -4.75947,-4.60008 -5.52591,3.19142 2.90418,-5.94802 -4.74283,-4.26926 6.55435,0.92401 2.59469,-5.82997 1.14663,6.51909 6.34643,0.66613 -5.8457,3.10502 z"
       inkscape:randomized="0"
       inkscape:rounded="0"
       inkscape:flatsided="false"
       sodipodi:arg2="1.7529469"
       sodipodi:arg1="1.0785885"
       sodipodi:r2="3.236089"
       sodipodi:r1="8.8309412"
       sodipodi:cy="196.77393"
       sodipodi:cx="168.51344"
       sodipodi:sides="5"
       id="path4536"
       style="opacity:1;fill:#000000;fill-opacity:1;stroke:#000000;stroke-width:2;stroke-linecap:round;stroke-linejoin:round;stroke-miterlimit:4;stroke-dasharray:none;stroke-opacity:1;paint-order:stroke fill markers"
       sodipodi:type="star" />
    <path
       inkscape:transform-center-y="-0.65074805"
       inkscape:transform-center-x="-0.3338523"
       d="m 108.03157,250.20519 -5.06513,-3.4479 -4.706139,3.53342 1.713937,-5.88268 -4.814756,-3.38392 6.124398,-0.1878 1.73046,-5.62479 2.07114,5.76661 5.88424,-0.0924 -4.84435,3.75176 z"
       inkscape:randomized="0"
       inkscape:rounded="0"
       inkscape:flatsided="false"
       sodipodi:arg2="1.6080844"
       sodipodi:arg1="0.93372603"
       sodipodi:r2="3.236089"
       sodipodi:r1="8.312254"
       sodipodi:cy="243.52345"
       sodipodi:cx="103.08708"
       sodipodi:sides="5"
       id="path4528"
       style="opacity:1;fill:#000000;fill-opacity:1;stroke:#000000;stroke-width:2;stroke-linecap:round;stroke-linejoin:round;stroke-miterlimit:4;stroke-dasharray:none;stroke-opacity:1;paint-order:stroke fill markers"
       sodipodi:type="star"
       transform="matrix(0.98555899,0,0,1.2595868,3.6265129,-65.754498)" />
    <path
       sodipodi:type="star"
       style="opacity:1;fill:#000000;fill-opacity:1;stroke:#000000;stroke-width:2;stroke-linecap:round;stroke-linejoin:round;stroke-miterlimit:4;stroke-dasharray:none;stroke-opacity:1;paint-order:stroke fill markers"
       id="path4532"
       sodipodi:sides="5"
       sodipodi:cx="168.51344"
       sodipodi:cy="196.77393"
       sodipodi:r1="8.312254"
       sodipodi:r2="3.236089"
       sodipodi:arg1="0.93372603"
       sodipodi:arg2="1.6080844"
       inkscape:flatsided="false"
       inkscape:rounded="0"
       inkscape:randomized="0"
       d="m 173.45793,203.45566 -5.06513,-3.44789 -4.70614,3.53341 1.71394,-5.88268 -4.81476,-3.38392 6.1244,-0.1878 1.73046,-5.62479 2.07115,5.76661 5.88423,-0.0924 -4.84435,3.75176 z"
       inkscape:transform-center-x="-3.9402455"
       inkscape:transform-center-y="5.4039565"
       transform="matrix(0.70291242,0.87076628,-0.69202475,0.8844661,144.36966,-154.8608)" />
    <path
       style="fill:#ffffff;stroke:#000000;stroke-width:2;stroke-linecap:butt;stroke-linejoin:miter;stroke-miterlimit:4;stroke-dasharray:none;stroke-opacity:1;fill-opacity:1"
       d="m 103.94345,155.06994 c 0.17003,29.86319 -0.0612,59.12445 -1.88988,85.98958 7.61496,3.10772 15.59312,10.27301 21.16667,-4.91369 -4.41463,-25.2493 -2.58157,-49.87383 -2.26786,-74.6503"
       id="path4517"
       inkscape:connector-curvature="0"
       sodipodi:nodetypes="cccc" />
    <path
       style="fill:none;stroke:#000000;stroke-width:1;stroke-linecap:butt;stroke-linejoin:miter;stroke-miterlimit:4;stroke-dasharray:none;stroke-opacity:1"
       d="m 61.400216,125.95197 c 3.921668,2.43164 7.513766,5.96185 12.872106,3.60458 9.438184,3.17467 12.557045,-5.49939 18.418098,-9.03184"
       id="path4519"
       inkscape:connector-curvature="0"
       sodipodi:nodetypes="ccc" />
    <ellipse
       style="opacity:1;fill:#ffffff;fill-opacity:1;stroke:#000000;stroke-width:2;stroke-linecap:round;stroke-linejoin:round;stroke-miterlimit:4;stroke-dasharray:none;stroke-opacity:1;paint-order:stroke fill markers"
       id="path4521"
       cx="68.697174"
       cy="117.74479"
       rx="1.7953868"
       ry="1.6063988" />
    <ellipse
       style="opacity:1;fill:#ffffff;fill-opacity:1;stroke:#000000;stroke-width:2;stroke-linecap:round;stroke-linejoin:round;stroke-miterlimit:4;stroke-dasharray:none;stroke-opacity:1;paint-order:stroke fill markers"
       id="path4523"
       cx="82.682289"
       cy="117.08333"
       rx="3.3072915"
       ry="3.2127976" />
    <path
       style="fill:none;stroke:#000000;stroke-width:2;stroke-linecap:round;stroke-linejoin:miter;stroke-opacity:1;stroke-miterlimit:4;stroke-dasharray:none"
       d="m 73.894343,124.83184 0.566965,-4.7247"
       id="path4527"
       inkscape:connector-curvature="0" />
    <path
       inkscape:connector-curvature="0"
       id="path4529"
       d="m 71.611368,133.34523 c 2.684619,1.58948 3.889929,0.22034 5.66964,0"
       style="fill:none;stroke:#000000;stroke-width:2;stroke-linecap:round;stroke-linejoin:miter;stroke-miterlimit:4;stroke-dasharray:none;stroke-opacity:1"
       sodipodi:nodetypes="cc" />
    <ellipse
       style="opacity:1;fill:#000000;fill-opacity:1;stroke:#000000;stroke-width:1.0696274;stroke-linecap:round;stroke-linejoin:round;stroke-miterlimit:4;stroke-dasharray:none;stroke-opacity:1;paint-order:stroke fill markers"
       id="path4510"
       cx="69.004272"
       cy="117.93378"
       rx="0.34706876"
       ry="0.37069222" />
    <ellipse
       ry="0.37069222"
       rx="0.34706876"
       cy="116.7526"
       cx="81.430237"
       id="ellipse4512"
       style="opacity:1;fill:#000000;fill-opacity:1;stroke:#000000;stroke-width:1.0696274;stroke-linecap:round;stroke-linejoin:round;stroke-miterlimit:4;stroke-dasharray:none;stroke-opacity:1;paint-order:stroke fill markers" />
    <path
       inkscape:transform-center-y="-27.160995"
       inkscape:transform-center-x="18.414378"
       d="m 91.940725,248.35695 -5.065126,-3.44789 -4.706141,3.53341 1.713937,-5.88268 -4.814757,-3.38392 6.124397,-0.18779 1.730458,-5.6248 2.071148,5.76662 5.884239,-0.0924 -4.844357,3.75176 z"
       inkscape:randomized="0"
       inkscape:rounded="0"
       inkscape:flatsided="false"
       sodipodi:arg2="1.6080844"
       sodipodi:arg1="0.93372603"
       sodipodi:r2="3.236089"
       sodipodi:r1="8.312254"
       sodipodi:cy="241.67522"
       sodipodi:cx="86.996239"
       sodipodi:sides="5"
       id="path4518"
       style="opacity:1;fill:#000000;fill-opacity:1;stroke:#000000;stroke-width:2;stroke-linecap:round;stroke-linejoin:round;stroke-miterlimit:4;stroke-dasharray:none;stroke-opacity:1;paint-order:stroke fill markers"
       sodipodi:type="star"
       transform="matrix(0.71872869,-0.88794382,0.67101312,0.95108528,-141.73792,106.70574)" />
    <path
       transform="matrix(0.71719919,-0.91583176,0.66958516,0.98095632,-98.095703,99.242677)"
       sodipodi:type="star"
       style="opacity:1;fill:#000000;fill-opacity:1;stroke:#000000;stroke-width:2;stroke-linecap:round;stroke-linejoin:round;stroke-miterlimit:4;stroke-dasharray:none;stroke-opacity:1;paint-order:stroke fill markers"
       id="path4520"
       sodipodi:sides="5"
       sodipodi:cx="86.996239"
       sodipodi:cy="241.67522"
       sodipodi:r1="8.312254"
       sodipodi:r2="3.236089"
       sodipodi:arg1="0.93372603"
       sodipodi:arg2="1.6080844"
       inkscape:flatsided="false"
       inkscape:rounded="0"
       inkscape:randomized="0"
       d="m 91.940725,248.35695 -5.065126,-3.44789 -4.706141,3.53341 1.713937,-5.88268 -4.814757,-3.38392 6.124397,-0.18779 1.730458,-5.6248 2.071148,5.76662 5.884239,-0.0924 -4.844357,3.75176 z"
       inkscape:transform-center-x="18.375193"
       inkscape:transform-center-y="-28.014052" />
    <path
       inkscape:transform-center-y="-13.876513"
       inkscape:transform-center-x="12.499991"
       d="m 91.940725,248.35695 -5.065126,-3.44789 -4.706141,3.53341 1.713937,-5.88268 -4.814757,-3.38392 6.124397,-0.18779 1.730458,-5.6248 2.071148,5.76662 5.884239,-0.0924 -4.844357,3.75176 z"
       inkscape:randomized="0"
       inkscape:rounded="0"
       inkscape:flatsided="false"
       sodipodi:arg2="1.6080844"
       sodipodi:arg1="0.93372603"
       sodipodi:r2="3.236089"
       sodipodi:r1="8.312254"
       sodipodi:cy="241.67522"
       sodipodi:cx="86.996239"
       sodipodi:sides="5"
       id="path4522"
       style="opacity:1;fill:#000000;fill-opacity:1;stroke:#000000;stroke-width:2;stroke-linecap:round;stroke-linejoin:round;stroke-miterlimit:4;stroke-dasharray:none;stroke-opacity:1;paint-order:stroke fill markers"
       sodipodi:type="star"
       transform="matrix(0.48788518,-0.45364918,0.45549505,0.48590806,-61.689311,21.320624)" />
    <path
       transform="matrix(0.48788518,-0.45364918,0.45549505,0.48590806,-56.343922,-7.0099593)"
       sodipodi:type="star"
       style="opacity:1;fill:#000000;fill-opacity:1;stroke:#000000;stroke-width:2;stroke-linecap:round;stroke-linejoin:round;stroke-miterlimit:4;stroke-dasharray:none;stroke-opacity:1;paint-order:stroke fill markers"
       id="path4524"
       sodipodi:sides="5"
       sodipodi:cx="86.996239"
       sodipodi:cy="241.67522"
       sodipodi:r1="8.312254"
       sodipodi:r2="3.236089"
       sodipodi:arg1="0.93372603"
       sodipodi:arg2="1.6080844"
       inkscape:flatsided="false"
       inkscape:rounded="0"
       inkscape:randomized="0"
       d="m 91.940725,248.35695 -5.065126,-3.44789 -4.706141,3.53341 1.713937,-5.88268 -4.814757,-3.38392 6.124397,-0.18779 1.730458,-5.6248 2.071148,5.76662 5.884239,-0.0924 -4.844357,3.75176 z"
       inkscape:transform-center-x="12.499991"
       inkscape:transform-center-y="-13.876513" />
    <path
       inkscape:transform-center-y="-13.876513"
       inkscape:transform-center-x="12.499991"
       d="m 91.940725,248.35695 -5.065126,-3.44789 -4.706141,3.53341 1.713937,-5.88268 -4.814757,-3.38392 6.124397,-0.18779 1.730458,-5.6248 2.071148,5.76662 5.884239,-0.0924 -4.844357,3.75176 z"
       inkscape:randomized="0"
       inkscape:rounded="0"
       inkscape:flatsided="false"
       sodipodi:arg2="1.6080844"
       sodipodi:arg1="0.93372603"
       sodipodi:r2="3.236089"
       sodipodi:r1="8.312254"
       sodipodi:cy="241.67522"
       sodipodi:cx="86.996239"
       sodipodi:sides="5"
       id="path4526"
       style="opacity:1;fill:#000000;fill-opacity:1;stroke:#000000;stroke-width:2;stroke-linecap:round;stroke-linejoin:round;stroke-miterlimit:4;stroke-dasharray:none;stroke-opacity:1;paint-order:stroke fill markers"
       sodipodi:type="star"
       transform="matrix(0.48788518,-0.45364918,0.45549505,0.48590806,-71.845554,8.4916774)" />
    <path
       transform="matrix(0.85873722,0.91038433,-0.54610155,0.93562276,70.546823,-195.08079)"
       inkscape:transform-center-y="5.6697234"
       inkscape:transform-center-x="-5.351429"
       d="m 173.45793,203.45566 -5.06513,-3.44789 -4.70614,3.53341 1.71394,-5.88268 -4.81476,-3.38392 6.1244,-0.1878 1.73046,-5.62479 2.07115,5.76661 5.88423,-0.0924 -4.84435,3.75176 z"
       inkscape:randomized="0"
       inkscape:rounded="0"
       inkscape:flatsided="false"
       sodipodi:arg2="1.6080844"
       sodipodi:arg1="0.93372603"
       sodipodi:r2="3.236089"
       sodipodi:r1="8.312254"
       sodipodi:cy="196.77393"
       sodipodi:cx="168.51344"
       sodipodi:sides="5"
       id="path4538"
       style="opacity:1;fill:#000000;fill-opacity:1;stroke:#000000;stroke-width:2;stroke-linecap:round;stroke-linejoin:round;stroke-miterlimit:4;stroke-dasharray:none;stroke-opacity:1;paint-order:stroke fill markers"
       sodipodi:type="star" />
    <path
       sodipodi:type="star"
       style="opacity:1;fill:#000000;fill-opacity:1;stroke:#000000;stroke-width:2;stroke-linecap:round;stroke-linejoin:round;stroke-miterlimit:4;stroke-dasharray:none;stroke-opacity:1;paint-order:stroke fill markers"
       id="path4516"
       sodipodi:sides="5"
       sodipodi:cx="87.40107"
       sodipodi:cy="214.41928"
       sodipodi:r1="8.312254"
       sodipodi:r2="3.3047082"
       sodipodi:arg1="0.93372603"
       sodipodi:arg2="1.5635804"
       inkscape:flatsided="false"
       inkscape:rounded="0"
       inkscape:randomized="0"
       d="m 92.345556,221.10102 -4.92064,-3.37712 -4.850627,3.46264 1.691267,-5.7234 -4.792087,-3.5432 5.9659,-0.16014 1.888955,-5.65245 1.995862,5.62442 5.959524,0.0498 -4.732389,3.63622 z"
       inkscape:transform-center-x="0.35809774"
       inkscape:transform-center-y="0.30729823"
       transform="matrix(1.2250627,-0.80865073,0.43744266,0.79077558,-114.71382,116.68341)" />
  </g>
</svg>
