<?xml version="1.0" encoding="UTF-8" standalone="no"?>
<!-- Created with Inkscape (http://www.inkscape.org/) -->

<svg
   xmlns:dc="http://purl.org/dc/elements/1.1/"
   xmlns:cc="http://creativecommons.org/ns#"
   xmlns:rdf="http://www.w3.org/1999/02/22-rdf-syntax-ns#"
   xmlns:svg="http://www.w3.org/2000/svg"
   xmlns="http://www.w3.org/2000/svg"
   xmlns:sodipodi="http://sodipodi.sourceforge.net/DTD/sodipodi-0.dtd"
   xmlns:inkscape="http://www.inkscape.org/namespaces/inkscape"
   width="210mm"
   height="297mm"
   viewBox="0 0 210 297"
   version="1.1"
   id="svg8"
   inkscape:version="0.92.1 r15371"
   sodipodi:docname="оружие 3.svg">
  <sodipodi:namedview
     id="base"
     pagecolor="#ffffff"
     bordercolor="#666666"
     borderopacity="1.0"
     inkscape:pageopacity="0.0"
     inkscape:pageshadow="2"
     inkscape:zoom="0.7"
     inkscape:cx="5.7386329"
     inkscape:cy="684.69548"
     inkscape:document-units="mm"
     inkscape:current-layer="svg8"
     showgrid="true"
     inkscape:snap-grids="false"
     inkscape:object-nodes="false"
     inkscape:object-paths="false"
     inkscape:snap-smooth-nodes="true"
     inkscape:snap-intersection-paths="false"
     inkscape:window-width="1920"
     inkscape:window-height="1017"
     inkscape:window-x="-8"
     inkscape:window-y="-8"
     inkscape:window-maximized="1">
    <inkscape:grid
       id="grid4485"
       type="xygrid" />
  </sodipodi:namedview>
  <defs
     id="defs2" />
  <metadata
     id="metadata5">
    <rdf:RDF>
      <cc:Work
         rdf:about="">
        <dc:format>image/svg+xml</dc:format>
        <dc:type
           rdf:resource="http://purl.org/dc/dcmitype/StillImage" />
        <dc:title />
      </cc:Work>
    </rdf:RDF>
  </metadata>
  <g
     id="layer1"
     inkscape:groupmode="layer"
     inkscape:label="Layer 1" />
  <g
     id="g4528"
     transform="matrix(1.0507148,0,0,1.0507148,-1.017495,-7.8364198)">
    <path
       style="opacity:1;fill:#000000;fill-opacity:0.99915317;stroke:#000000;stroke-width:3.5;stroke-linecap:butt;stroke-linejoin:miter;stroke-miterlimit:4;stroke-dasharray:none;stroke-opacity:1"
       d="M 95.660661,41.825958 C 87.22572,51.408711 79.207575,63.058967 79.207575,63.058967 72.797555,70.011489 78.145636,71.453344 69.957811,83.283327 51.879715,104.5085 35.937368,117.4195 21.86193,142.80131 c 0.698444,6.54563 6.797647,11.25907 15.069512,8.50876 16.780994,-33.43943 27.037129,-44.0965 49.269146,-73.218092 0,0 9.135164,-14.151001 19.341152,-29.382387 z"
       id="path4487"
       inkscape:connector-curvature="0"
       sodipodi:nodetypes="cccccccc" />
    <path
       style="opacity:1;fill:#ffffff;fill-opacity:0.99998468;stroke:#000000;stroke-width:3.5;stroke-linecap:butt;stroke-linejoin:miter;stroke-miterlimit:4;stroke-dasharray:none;stroke-opacity:1"
       d="m 97.278904,34.889327 c -2.217803,-3.977655 -7.567211,0.557698 -12.374995,-2.768713 3.107832,-8.013192 -0.327467,-9.326393 -0.757047,-13.35582 4.012408,0.341288 6.591035,3.002509 13.230242,-0.07302 2.469753,3.604931 1.520567,10.062046 4.558566,9.529865"
       id="path4501"
       inkscape:connector-curvature="0"
       sodipodi:nodetypes="ccccc" />
    <path
       style="opacity:1;fill:#ffffff;fill-opacity:0.99998468;stroke:#000000;stroke-width:3.5;stroke-linecap:butt;stroke-linejoin:miter;stroke-miterlimit:4;stroke-dasharray:none;stroke-opacity:1"
       d="m 107.77754,49.135288 c 11.54726,4.599345 21.24871,9.99037 15.41191,40.488293 31.32137,-14.454136 40.09911,-29.482124 37.43977,-56.246377 -18.70061,10.012061 -33.28408,10.862977 -42.13748,-0.375411"
       id="path4499"
       inkscape:connector-curvature="0"
       sodipodi:nodetypes="cccc" />
    <g
       id="g5687"
       transform="matrix(2.0409657,-0.03230821,0.03230821,2.0409657,-213.15245,-81.992692)"
       style="opacity:1;fill:#ffffff;fill-opacity:0.99998468;stroke-width:1.71465969;stroke-miterlimit:4;stroke-dasharray:none">
      <path
         sodipodi:nodetypes="cccccc"
         inkscape:connector-curvature="0"
         id="path4495"
         d="m 150.30934,63.046073 -1.00875,-0.816536 6.14212,-8.504463 6.33109,4.866443 -5.81138,8.457218 -0.8663,-0.554154 z"
         style="opacity:1;fill:#ffffff;fill-opacity:0.99998468;stroke:#000000;stroke-width:1.71465969;stroke-linecap:butt;stroke-linejoin:miter;stroke-miterlimit:4;stroke-dasharray:none;stroke-opacity:1" />
    </g>
    <path
       style="opacity:1;fill:none;stroke:#000000;stroke-width:2;stroke-linecap:butt;stroke-linejoin:miter;stroke-miterlimit:4;stroke-dasharray:none;stroke-opacity:1"
       d="m 124.59268,80.211395 c 19.69337,-11.401216 28.7811,-20.960554 27.43767,-42.76606"
       id="path4503"
       inkscape:connector-curvature="0"
       sodipodi:nodetypes="cc" />
    <g
       transform="matrix(0.24185839,-0.93962225,0.93962225,0.24185839,-28.874162,115.35411)"
       id="g4495">
      <path
         inkscape:connector-curvature="0"
         id="path4491"
         d="M 34.924202,124.6233 86.345668,44.098261 111.49757,30.28201 105.9307,58.433684 44.716718,131.79101"
         style="opacity:1;fill:#ffffff;fill-opacity:1;stroke:#000000;stroke-width:3.5;stroke-linecap:butt;stroke-linejoin:miter;stroke-miterlimit:4;stroke-dasharray:none;stroke-opacity:1" />
      <path
         sodipodi:nodetypes="cccc"
         inkscape:connector-curvature="0"
         id="path4495-9"
         d="m 24.312259,138.06 c -3.299573,9.06633 -7.156566,17.49056 -15.8062428,25.59596 5.1562998,-0.63119 6.3433918,-0.99474 7.2062768,5.2277 5.071319,-9.18347 10.507169,-16.28024 18.793219,-23.18396"
         style="opacity:1;fill:#000000;fill-opacity:1;stroke:#000000;stroke-width:3.5;stroke-linecap:butt;stroke-linejoin:miter;stroke-miterlimit:4;stroke-dasharray:none;stroke-opacity:1" />
      <path
         sodipodi:nodetypes="ccccccc"
         inkscape:connector-curvature="0"
         id="path4493"
         d="m 23.819289,108.97547 c 3.350072,5.87513 5.316926,14.34379 11.104913,15.64783 l 9.792516,7.16771 c 2.520681,4.89451 11.457124,4.5008 18.272624,5.8553 L 47.341526,148.75123 C 31.499509,145.41868 27.08886,145.59148 17.963981,127.2481 Z"
         style="opacity:1;fill:#ffffff;fill-opacity:1;stroke:#000000;stroke-width:3.5;stroke-linecap:butt;stroke-linejoin:miter;stroke-miterlimit:4;stroke-dasharray:none;stroke-opacity:1" />
      <ellipse
         transform="rotate(36.202568)"
         ry="5.514854"
         rx="6.361506"
         cy="130.95631"
         cx="107.99952"
         id="path4497"
         style="opacity:1;fill:#000000;fill-opacity:1;stroke:#000000;stroke-width:3.5;stroke-linecap:round;stroke-linejoin:round;stroke-miterlimit:4;stroke-dasharray:none;stroke-opacity:1" />
      <path
         inkscape:connector-curvature="0"
         id="path4510"
         d="M 39.820458,128.20715 111.49757,30.28201"
         style="opacity:1;fill:none;stroke:#000000;stroke-width:1.45099998;stroke-linecap:butt;stroke-linejoin:miter;stroke-miterlimit:4;stroke-dasharray:none;stroke-opacity:1" />
      <path
         transform="scale(0.26458333)"
         inkscape:connector-curvature="0"
         id="path4639"
         d="m 408.24876,138.01748 c -5.15947,3.69156 -7.76852,10.41802 -12.07386,15.09544 -79.89911,108.98888 -159.78887,217.99404 -239.1202,327.39671 2.10605,3.67229 6.88437,6.04282 10.65083,8.13529 10.26609,-10.61049 19.46953,-22.90128 29.29771,-34.16982 65.93379,-78.73831 131.7488,-157.60488 197.45208,-236.51969 4.93129,-26.48108 11.05568,-52.81383 14.87753,-79.46078 -0.15853,-0.43112 -0.67818,-0.56086 -1.08409,-0.47715 z"
         style="opacity:1;fill:#ffffff;fill-opacity:1;stroke:none;stroke-width:5.30654573;stroke-linecap:round;stroke-linejoin:round;stroke-miterlimit:4;stroke-dasharray:none;stroke-opacity:1;paint-order:normal" />
    </g>
    <path
       transform="scale(0.26458333)"
       inkscape:connector-curvature="0"
       id="path4927"
       d="m 447.78384,135.03738 c -10.95562,15.02366 -20.81439,31.07913 -31.34487,46.49553 6.33252,6.30394 16.82492,9.13069 24.33594,14.91351 25.10256,15.14607 36.10999,45.26436 36.20536,73.45424 0.66978,8.3327 0.10738,16.99662 1.45926,25.12556 26.38876,-14.75571 52.17358,-33.64072 70.60547,-58.28125 18.43452,-24.72001 25.09875,-56.7324 22.91015,-87.02288 -5.77024,-0.90358 -12.26127,4.05868 -18.29321,4.82466 -29.26432,7.64809 -63.69652,10.49515 -89.76761,-7.73482 -5.81904,-3.16844 -10.0094,-9.44133 -16.11049,-11.77455 z"
       style="fill:#000000;fill-opacity:1;stroke:none;stroke-width:10.79865074;stroke-linecap:round;stroke-linejoin:round;stroke-miterlimit:4;stroke-dasharray:none;stroke-opacity:1;paint-order:normal" />
    <path
       transform="scale(0.26458333)"
       inkscape:connector-curvature="0"
       id="path4929"
       d="m 363.32513,78.304675 c -11.76375,5.208344 -24.87577,2.634661 -36.8471,0.719866 4.70979,11.814383 5.29573,25.628219 2.03962,38.320309 2.75861,5.82174 11.80528,2.43936 16.93639,3.10547 6.97372,-0.94325 14.18004,-1.03292 20.56361,1.77177 4.68388,-2.70943 8.93546,-8.61688 9.36384,-14.11273 -5.66995,-8.990071 -4.53404,-21.26521 -10.80078,-29.645645 -0.38971,-0.181668 -0.83285,-0.22507 -1.25558,-0.15904 z"
       style="fill:#000000;fill-opacity:1;stroke:none;stroke-width:10.79865074;stroke-linecap:round;stroke-linejoin:round;stroke-miterlimit:4;stroke-dasharray:none;stroke-opacity:1;paint-order:normal" />
  </g>
</svg>
