<?xml version="1.0" encoding="UTF-8" standalone="no"?>
<!-- Created with Inkscape (http://www.inkscape.org/) -->

<svg
   xmlns:dc="http://purl.org/dc/elements/1.1/"
   xmlns:cc="http://creativecommons.org/ns#"
   xmlns:rdf="http://www.w3.org/1999/02/22-rdf-syntax-ns#"
   xmlns:svg="http://www.w3.org/2000/svg"
   xmlns="http://www.w3.org/2000/svg"
   xmlns:sodipodi="http://sodipodi.sourceforge.net/DTD/sodipodi-0.dtd"
   xmlns:inkscape="http://www.inkscape.org/namespaces/inkscape"
   width="210mm"
   height="297mm"
   viewBox="0 0 210 297"
   version="1.1"
   id="svg8"
   inkscape:version="0.92.1 r15371"
   sodipodi:docname="оружие.svg">
  <defs
     id="defs2" />
  <sodipodi:namedview
     id="base"
     pagecolor="#ffffff"
     bordercolor="#666666"
     borderopacity="1.0"
     inkscape:pageopacity="0.0"
     inkscape:pageshadow="2"
     inkscape:zoom="0.7"
     inkscape:cx="5.7386329"
     inkscape:cy="726.03083"
     inkscape:document-units="mm"
     inkscape:current-layer="layer1"
     showgrid="true"
     inkscape:snap-grids="false"
     inkscape:object-nodes="false"
     inkscape:object-paths="false"
     inkscape:snap-smooth-nodes="true"
     inkscape:snap-intersection-paths="false"
     inkscape:window-width="1920"
     inkscape:window-height="1017"
     inkscape:window-x="-8"
     inkscape:window-y="-8"
     inkscape:window-maximized="1">
    <inkscape:grid
       type="xygrid"
       id="grid4485" />
  </sodipodi:namedview>
  <metadata
     id="metadata5">
    <rdf:RDF>
      <cc:Work
         rdf:about="">
        <dc:format>image/svg+xml</dc:format>
        <dc:type
           rdf:resource="http://purl.org/dc/dcmitype/StillImage" />
        <dc:title />
      </cc:Work>
    </rdf:RDF>
  </metadata>
  <g
     inkscape:label="Layer 1"
     inkscape:groupmode="layer"
     id="layer1">
    <g
       id="g4515"
       transform="matrix(1.0507148,0,0,1.0507148,-1.017495,4.6441462)">
      <g
         transform="rotate(-2.6573875,857.43862,936.99624)"
         id="g4509">
        <path
           style="fill:#432612;fill-opacity:0.99915317;stroke:#000000;stroke-width:3.5;stroke-linecap:butt;stroke-linejoin:miter;stroke-miterlimit:4;stroke-dasharray:none;stroke-opacity:1"
           d="m 137.98311,7.4698751 c -8.87016,9.1813749 -17.41983,20.4473529 -17.41983,20.4473529 -6.72547,6.647854 -1.44999,8.336115 -10.17749,19.77376 -19.042729,20.364184 -35.566532,32.522156 -50.803624,57.224082 0.394214,6.57098 6.268327,11.56213 14.65881,9.19829 18.313319,-32.625449 29.052524,-42.795542 52.610814,-70.855066 0,0 9.78143,-13.712245 20.68262,-28.454066 z"
           id="path4487"
           inkscape:connector-curvature="0"
           sodipodi:nodetypes="cccccccc" />
        <path
           style="fill:#2ad4ff;fill-opacity:0.99998468;stroke:#000000;stroke-width:3.5;stroke-linecap:butt;stroke-linejoin:miter;stroke-miterlimit:4;stroke-dasharray:none;stroke-opacity:1"
           d="m 139.92122,0.61573094 c -2.031,-4.07620244 -7.58493,0.20625651 -12.23332,-3.33948334 3.47601,-7.8604856 0.10529,-9.3315466 -0.13701,-13.3765576 3.99227,0.526951 6.44474,3.304864 13.2194,0.540458 2.29996,3.71556 1.05242,10.1217238 4.11183,9.7309683"
           id="path4501"
           inkscape:connector-curvature="0"
           sodipodi:nodetypes="ccccc" />
        <path
           style="fill:#2ad4ff;fill-opacity:0.99998468;stroke:#000000;stroke-width:3.5;stroke-linecap:butt;stroke-linejoin:miter;stroke-miterlimit:4;stroke-dasharray:none;stroke-opacity:1"
           d="m 149.74807,15.333126 c 11.3216,5.129771 20.76267,10.964792 13.51816,41.159304 31.95783,-12.986423 41.42288,-27.591283 40.00729,-54.4500508 -19.1447,9.1342678 -33.75193,9.3081278 -42.07476,-2.32864972"
           id="path4499"
           inkscape:connector-curvature="0"
           sodipodi:nodetypes="cccc" />
        <g
           id="g5687"
           transform="matrix(2.0402688,0.06235292,-0.06235292,2.0402688,-164.75724,-130.53329)"
           style="fill:#00aad4;fill-opacity:0.99998468;stroke-width:1.71465969;stroke-miterlimit:4;stroke-dasharray:none">
          <path
             sodipodi:nodetypes="cccccc"
             inkscape:connector-curvature="0"
             id="path4495"
             d="m 150.30934,63.046073 -1.00875,-0.816536 6.14212,-8.504463 6.33109,4.866443 -5.81138,8.457218 -0.8663,-0.554154 z"
             style="fill:#00aad4;fill-opacity:0.99998468;stroke:#000000;stroke-width:1.71465969;stroke-linecap:butt;stroke-linejoin:miter;stroke-miterlimit:4;stroke-dasharray:none;stroke-opacity:1" />
        </g>
        <path
           style="fill:none;stroke:#000000;stroke-width:2;stroke-linecap:butt;stroke-linejoin:miter;stroke-miterlimit:4;stroke-dasharray:none;stroke-opacity:1"
           d="m 165.10433,47.155425 c 20.2008,-10.475901 29.72196,-19.60362 29.39095,-41.4479643"
           id="path4503"
           inkscape:connector-curvature="0"
           sodipodi:nodetypes="cc" />
        <path
           style="fill:#80e5ff;fill-opacity:1;stroke:none;stroke-width:10.79865074;stroke-linecap:round;stroke-linejoin:round;stroke-miterlimit:4;stroke-dasharray:none;stroke-opacity:1;paint-order:normal"
           d="m 628.44332,190.06345 2.29532,-11.47506 10.71428,-5.78183 c 18.45356,-9.95822 42.06941,-26.46433 54.22783,-37.9021 28.69652,-26.99563 39.47699,-52.703641 43.26778,-103.179954 0.34031,-4.531355 0.94864,-5.051167 10.36153,-8.853823 5.5,-2.22191 10.88618,-4.073473 11.96927,-4.114585 1.62345,-0.06162 1.79033,2.998417 0.95031,17.425251 -1.98643,34.11566 -8.8215,59.801383 -21.66285,81.407541 -9.7267,16.36561 -32.33733,38.92667 -52.32547,52.21076 -14.73395,9.79216 -56.38744,31.73884 -60.23842,31.73884 -1.48427,0 -1.39627,-2.29285 0.44042,-11.47504 z"
           id="path4500"
           inkscape:connector-curvature="0"
           transform="scale(0.26458333)" />
      </g>
      <g
         id="g4495"
         transform="matrix(0.24185839,-0.93962226,0.93962226,0.24185839,-28.874163,115.35411)">
        <path
           style="fill:#00ccff;fill-opacity:1;stroke:#000000;stroke-width:3.5;stroke-linecap:butt;stroke-linejoin:miter;stroke-miterlimit:4;stroke-dasharray:none;stroke-opacity:1"
           d="M 34.924202,124.6233 86.345668,44.098261 111.49757,30.28201 105.9307,58.433684 44.716718,131.79101"
           id="path4491"
           inkscape:connector-curvature="0" />
        <path
           style="fill:#28170b;fill-opacity:1;stroke:#000000;stroke-width:3.5;stroke-linecap:butt;stroke-linejoin:miter;stroke-miterlimit:4;stroke-dasharray:none;stroke-opacity:1"
           d="m 24.312259,138.06 c -3.299573,9.06633 -7.156566,17.49056 -15.8062428,25.59596 5.1562998,-0.63119 6.3433918,-0.99474 7.2062768,5.2277 5.071319,-9.18347 10.507169,-16.28024 18.793219,-23.18396"
           id="path4495-9"
           inkscape:connector-curvature="0"
           sodipodi:nodetypes="cccc" />
        <path
           style="fill:#ffff00;fill-opacity:1;stroke:#000000;stroke-width:3.5;stroke-linecap:butt;stroke-linejoin:miter;stroke-miterlimit:4;stroke-dasharray:none;stroke-opacity:1"
           d="m 23.819289,108.97547 c 3.350072,5.87513 5.316926,14.34379 11.104913,15.64783 l 9.792516,7.16771 c 2.520681,4.89451 11.457124,4.5008 18.272624,5.8553 L 47.341526,148.75123 C 31.499509,145.41868 27.08886,145.59148 17.963981,127.2481 Z"
           id="path4493"
           inkscape:connector-curvature="0"
           sodipodi:nodetypes="ccccccc" />
        <ellipse
           style="fill:#ff0000;fill-opacity:1;stroke:#000000;stroke-width:3.5;stroke-linecap:round;stroke-linejoin:round;stroke-miterlimit:4;stroke-dasharray:none;stroke-opacity:1"
           id="path4497"
           cx="107.99952"
           cy="130.95631"
           rx="6.361506"
           ry="5.514854"
           transform="rotate(36.202568)" />
        <path
           style="fill:none;stroke:#000000;stroke-width:1.45099998;stroke-linecap:butt;stroke-linejoin:miter;stroke-miterlimit:4;stroke-dasharray:none;stroke-opacity:1"
           d="M 39.820458,128.20715 111.49757,30.28201"
           id="path4510"
           inkscape:connector-curvature="0" />
        <path
           style="fill:#00aad4;fill-opacity:1;stroke:none;stroke-width:5.30654573;stroke-linecap:round;stroke-linejoin:round;stroke-miterlimit:4;stroke-dasharray:none;stroke-opacity:1;paint-order:normal"
           d="m 408.24876,138.01748 c -5.15947,3.69156 -7.76852,10.41802 -12.07386,15.09544 -79.89911,108.98888 -159.78887,217.99404 -239.1202,327.39671 2.10605,3.67229 6.88437,6.04282 10.65083,8.13529 10.26609,-10.61049 19.46953,-22.90128 29.29771,-34.16982 65.93379,-78.73831 131.7488,-157.60488 197.45208,-236.51969 4.93129,-26.48108 11.05568,-52.81383 14.87753,-79.46078 -0.15853,-0.43112 -0.67818,-0.56086 -1.08409,-0.47715 z"
           id="path4639"
           inkscape:connector-curvature="0"
           transform="scale(0.26458333)" />
      </g>
    </g>
  </g>
</svg>
