<?xml version="1.0" encoding="UTF-8" standalone="no"?>
<!-- Created with Inkscape (http://www.inkscape.org/) -->

<svg
   xmlns:dc="http://purl.org/dc/elements/1.1/"
   xmlns:cc="http://creativecommons.org/ns#"
   xmlns:rdf="http://www.w3.org/1999/02/22-rdf-syntax-ns#"
   xmlns:svg="http://www.w3.org/2000/svg"
   xmlns="http://www.w3.org/2000/svg"
   xmlns:sodipodi="http://sodipodi.sourceforge.net/DTD/sodipodi-0.dtd"
   xmlns:inkscape="http://www.inkscape.org/namespaces/inkscape"
   width="210mm"
   height="297mm"
   viewBox="0 0 210 297"
   version="1.1"
   id="svg8"
   inkscape:version="0.91 r13725"
   sodipodi:docname="лечение.svg">
  <sodipodi:namedview
     id="base"
     pagecolor="#ffffff"
     bordercolor="#666666"
     borderopacity="1.0"
     inkscape:pageopacity="0.0"
     inkscape:pageshadow="2"
     inkscape:zoom="0.7"
     inkscape:cx="-13.462266"
     inkscape:cy="155.27328"
     inkscape:document-units="mm"
     inkscape:current-layer="layer1"
     showgrid="true"
     inkscape:snap-grids="false"
     inkscape:window-width="1680"
     inkscape:window-height="988"
     inkscape:window-x="-8"
     inkscape:window-y="-8"
     inkscape:window-maximized="1">
    <inkscape:grid
       id="grid4485"
       type="xygrid" />
  </sodipodi:namedview>
  <defs
     id="defs2" />
  <metadata
     id="metadata5">
    <rdf:RDF>
      <cc:Work
         rdf:about="">
        <dc:format>image/svg+xml</dc:format>
        <dc:type
           rdf:resource="http://purl.org/dc/dcmitype/StillImage" />
        <dc:title />
      </cc:Work>
    </rdf:RDF>
  </metadata>
  <g
     id="layer1"
     inkscape:groupmode="layer"
     inkscape:label="Layer 1">
    <path
       sodipodi:nodetypes="cccccccccccccccccccccc"
       inkscape:connector-curvature="0"
       id="path4512"
       d="m 65.036352,140.01776 c -3.985501,-0.12769 -7.841596,1.89576 -11.289682,4.51098 -3.362963,2.32798 -5.545949,6.86284 -7.064386,11.47102 -2.83125,8.70659 -2.034505,18.95753 0.917413,27.39003 1.950775,5.53444 4.643559,10.75443 8.376127,14.22969 12.849197,12.8718 27.068798,23.35003 38.455794,38.81836 1.090558,1.32948 1.905432,3.13618 3.109366,4.23489 0.98609,-0.38278 1.503436,-1.889 2.295982,-2.73233 6.237324,-8.92559 13.527134,-16.20112 20.993424,-23.01038 6.58863,-6.21886 13.36877,-12.0826 19.78686,-18.64942 3.07114,-3.33822 5.31046,-7.95448 7.01669,-12.76788 3.08844,-8.42799 3.78298,-18.77191 0.99435,-27.5351 -1.0621,-3.23527 -2.48942,-6.31109 -4.31601,-8.82001 -3.14183,-3.58741 -7.0581,-5.73753 -11.01807,-6.87376 -2.41362,-0.41095 -4.87252,-0.3411 -7.29382,-0.0877 -8.42695,1.94469 -15.72294,9.42397 -20.8016,18.70554 -2.28745,3.90421 -3.83306,8.47059 -5.535099,12.87103 -2.125566,4.89439 -2.108001,5.02154 -4.327587,-0.69946 -1.78833,-4.98143 -3.747454,-9.89159 -6.363557,-14.14746 -4.981382,-8.30507 -11.850018,-14.9058 -19.638936,-16.73004 -1.42457,-0.23736 -2.865772,-0.16181 -4.297259,-0.1779 z"
       style="opacity:1;fill:#ffffff;fill-opacity:1;stroke:#000000;stroke-width:2.98975086;stroke-linecap:round;stroke-linejoin:round;stroke-miterlimit:4;stroke-dasharray:none;stroke-opacity:1" />
  </g>
</svg>
