<?xml version="1.0" encoding="UTF-8" standalone="no"?>
<!-- Created with Inkscape (http://www.inkscape.org/) -->

<svg
   xmlns:dc="http://purl.org/dc/elements/1.1/"
   xmlns:cc="http://creativecommons.org/ns#"
   xmlns:rdf="http://www.w3.org/1999/02/22-rdf-syntax-ns#"
   xmlns:svg="http://www.w3.org/2000/svg"
   xmlns="http://www.w3.org/2000/svg"
   xmlns:sodipodi="http://sodipodi.sourceforge.net/DTD/sodipodi-0.dtd"
   xmlns:inkscape="http://www.inkscape.org/namespaces/inkscape"
   sodipodi:docname="маг блоr.svg"
   id="svg5705"
   version="1.1"
   viewBox="0 0 210 297"
   height="297mm"
   width="210mm"
   inkscape:version="0.92.1 r15371">
  <sodipodi:namedview
     inkscape:window-maximized="1"
     inkscape:window-y="-8"
     inkscape:window-x="-8"
     inkscape:window-height="1017"
     inkscape:window-width="1920"
     inkscape:snap-others="false"
     inkscape:snap-smooth-nodes="true"
     inkscape:object-paths="true"
     inkscape:snap-intersection-paths="true"
     inkscape:object-nodes="true"
     inkscape:snap-grids="false"
     showgrid="true"
     inkscape:current-layer="layer1"
     inkscape:document-units="mm"
     inkscape:cy="624.63847"
     inkscape:cx="45.057683"
     inkscape:zoom="0.7"
     inkscape:pageshadow="2"
     inkscape:pageopacity="0.0"
     borderopacity="1.0"
     bordercolor="#666666"
     pagecolor="#ffffff"
     id="base">
    <inkscape:grid
       id="grid6250"
       type="xygrid" />
  </sodipodi:namedview>
  <defs
     id="defs5699" />
  <metadata
     id="metadata5702">
    <rdf:RDF>
      <cc:Work
         rdf:about="">
        <dc:format>image/svg+xml</dc:format>
        <dc:type
           rdf:resource="http://purl.org/dc/dcmitype/StillImage" />
        <dc:title></dc:title>
      </cc:Work>
    </rdf:RDF>
  </metadata>
  <g
     id="layer1"
     inkscape:groupmode="layer"
     inkscape:label="Layer 1">
    <g
       id="g4511"
       transform="matrix(1.6006898,0,0,1.6006898,-67.486487,-101.61258)">
      <circle
         style="opacity:1;fill:none;fill-opacity:1;stroke:#000000;stroke-width:3;stroke-linecap:round;stroke-linejoin:round;stroke-miterlimit:4;stroke-dasharray:none;stroke-opacity:1"
         id="path8380"
         cx="95.25"
         cy="122.375"
         r="42.333332" />
      <path
         sodipodi:type="star"
         style="opacity:1;fill:none;fill-opacity:1;stroke:#000000;stroke-width:3;stroke-linecap:round;stroke-linejoin:round;stroke-miterlimit:4;stroke-dasharray:none;stroke-opacity:1"
         id="path8382"
         sodipodi:sides="5"
         sodipodi:cx="95.25"
         sodipodi:cy="122.375"
         sodipodi:r1="42.333332"
         sodipodi:r2="42.333332"
         sodipodi:arg1="1.5707963"
         sodipodi:arg2="-0.96112604"
         inkscape:flatsided="false"
         inkscape:rounded="0"
         inkscape:randomized="0"
         d="M 95.250001,164.70833 119.48995,87.668574 54.988609,135.45672 135.74833,134.70368 70.367091,88.126616 96.039397,164.70097 120.13291,88.126614 55.239546,136.20521 135.51139,135.45672 69.732783,88.596565 Z"
         inkscape:transform-center-x="-1.3780523"
         inkscape:transform-center-y="-2.7410103" />
      <path
         style="opacity:1;fill:#000000;fill-opacity:1;stroke:#000000;stroke-width:16.19797516;stroke-linecap:round;stroke-linejoin:round;stroke-miterlimit:4;stroke-dasharray:none;stroke-opacity:1"
         d="m 257.33838,342.75621 c -25.99753,24.28487 -46.23741,55.70493 -52.18278,91.20478 -3.64465,22.1116 -3.93419,45.49846 2.2609,67.12111 4.87698,7.92666 12.73699,-2.41309 17.7501,-5.11294 23.37797,-17.4894 47.62527,-34.29691 70.1742,-52.59196 1.66225,-8.18241 -4.95575,-16.7967 -6.47063,-25.10979 -8.67488,-24.91307 -16.02798,-50.58243 -25.52183,-75.0269 -1.02261,-2.18438 -4.51454,-1.98095 -6.00996,-0.4843 z"
         id="path8384"
         inkscape:connector-curvature="0"
         transform="scale(0.26458333)" />
      <path
         style="opacity:1;fill:#000000;fill-opacity:1;stroke:#000000;stroke-width:16.19797516;stroke-linecap:round;stroke-linejoin:round;stroke-miterlimit:4;stroke-dasharray:none;stroke-opacity:1"
         d="m 358.27588,304.89907 c -28.97021,0.34052 -57.89686,9.12045 -82.29353,24.601 -5.47616,7.15775 6.68122,10.98874 10.59579,15.05637 24.00854,16.87079 47.12916,35.44143 72.72173,49.8125 9.61158,-1.97301 16.65791,-11.03637 25.07255,-15.99889 19.25446,-14.7188 39.12338,-28.77556 57.43304,-44.64844 3.13682,-8.14427 -9.07413,-9.65616 -13.88749,-13.14761 -21.62126,-10.43366 -45.61109,-16.00985 -69.64209,-15.67493 z"
         id="path8386"
         inkscape:connector-curvature="0"
         transform="scale(0.26458333)" />
      <path
         style="opacity:1;fill:#000000;fill-opacity:1;stroke:#000000;stroke-width:16.19797516;stroke-linecap:round;stroke-linejoin:round;stroke-miterlimit:4;stroke-dasharray:none;stroke-opacity:1"
         d="m 457.03983,341.38624 c -7.09694,2.36167 -5.41515,12.76721 -8.80581,18.25055 -8.09353,26.80304 -17.67269,53.44999 -24.81419,80.35959 3.45828,7.6018 13.8962,10.67093 20.01387,16.5033 21.56575,14.95487 42.50665,31.29966 64.45773,45.39632 7.95648,0.0944 6.13833,-11.6597 8.26949,-17.43499 7.39534,-51.76682 -13.33393,-107.10325 -53.27846,-140.92355 -1.70443,-1.19665 -3.67075,-2.37664 -5.84263,-2.15122 z"
         id="path8388"
         inkscape:connector-curvature="0"
         transform="scale(0.26458333)" />
      <path
         style="opacity:1;fill:#000000;fill-opacity:1;stroke:#000000;stroke-width:16.19797516;stroke-linecap:round;stroke-linejoin:round;stroke-miterlimit:4;stroke-dasharray:none;stroke-opacity:1"
         d="m 399.64306,515.82541 c -11.18864,32.63964 -21.68999,65.79359 -31.31138,98.98717 1.04712,9.20151 12.73701,3.06025 18.2115,3.02176 53.34666,-8.85496 100.07493,-47.35276 120.00558,-97.46094 -0.92748,-8.92366 -12.78096,-4.04462 -18.68025,-5.57199 -28.82468,-0.0299 -57.9372,-0.88437 -86.57681,0.33229 l -1.31732,0.5527 z"
         id="path8390"
         inkscape:connector-curvature="0"
         transform="scale(0.26458333)" />
      <path
         style="opacity:1;fill:#000000;fill-opacity:1;stroke:#000000;stroke-width:16.19797516;stroke-linecap:round;stroke-linejoin:round;stroke-miterlimit:4;stroke-dasharray:none;stroke-opacity:1"
         d="m 282.50021,516.01793 c -21.86509,0.4108 -44.11504,-0.52959 -65.68066,2.48598 -6.29031,4.78016 2.604,12.44739 4.30789,18.16413 24.9817,47.75393 76.00261,79.93287 129.57868,83.37054 9.38322,-3.56175 -0.89006,-14.99997 -1.36236,-21.7362 -9.30179,-26.74487 -17.28049,-54.24785 -27.39958,-80.52443 -7.25069,-4.13556 -17.49553,-0.58455 -25.86138,-1.76314 -4.52753,10e-4 -9.05506,0.002 -13.58259,0.003 z"
         id="path8392"
         inkscape:connector-curvature="0"
         transform="scale(0.26458333)" />
      <path
         style="opacity:1;fill:#000000;fill-opacity:1;stroke:#000000;stroke-width:16.19797516;stroke-linecap:round;stroke-linejoin:round;stroke-miterlimit:4;stroke-dasharray:none;stroke-opacity:1"
         d="m 357.65925,408.45376 c -16.90144,10.53931 -32.44465,23.8404 -48.88393,35.33482 -4.05629,7.41996 3.875,15.8629 4.83358,23.63546 5.30254,13.38812 7.70366,28.43594 14.86229,40.76186 20.95282,0.60907 42.4219,0.88332 63.27044,-0.1286 6.19974,-5.61163 5.8275,-16.54631 9.47217,-24.17842 3.21157,-12.32617 8.89229,-24.3991 10.53864,-36.90671 -8.45449,-11.69608 -22.13992,-18.71077 -33.41855,-27.4623 -6.58615,-3.77347 -12.93962,-10.07055 -20.67464,-11.05611 z"
         id="path8408"
         inkscape:connector-curvature="0"
         transform="scale(0.26458333)" />
      <path
         style="opacity:1;fill:#000000;fill-opacity:1;stroke:#000000;stroke-width:16.19797516;stroke-linecap:round;stroke-linejoin:round;stroke-miterlimit:4;stroke-dasharray:none;stroke-opacity:1"
         d="m 332.59507,517.25398 c -2.45885,8.57216 4.789,17.29966 6.25553,25.90997 6.30754,17.99789 11.55864,36.48465 18.5938,54.157 8.13292,4.7434 9.28362,-8.03032 11.72244,-12.94208 7.02778,-21.31195 14.50294,-42.79764 20.20472,-64.344 -2.99765,-8.07876 -15.49813,-2.2677 -22.40707,-4.02531 -11.31078,0.76599 -23.51374,-1.59464 -34.36942,1.24442 z"
         id="path8410"
         inkscape:connector-curvature="0"
         transform="scale(0.26458333)" />
      <path
         style="opacity:1;fill:#000000;fill-opacity:1;stroke:#000000;stroke-width:16.19797516;stroke-linecap:round;stroke-linejoin:round;stroke-miterlimit:4;stroke-dasharray:none;stroke-opacity:1"
         d="m 421.70501,453.29193 c -7.57418,5.35949 -7.11039,16.97067 -10.85407,24.85797 -2.08687,9.19459 -7.17085,18.10347 -7.31,27.54437 7.43492,4.9199 17.92907,0.69449 26.5774,1.91102 19.5502,-0.6183 39.43644,0.23432 58.76508,-1.73431 7.80559,-6.27629 -6.65895,-11.29003 -10.67873,-15.21468 -18.09144,-12.411 -35.4731,-26.05404 -54.27033,-37.33926 -0.70576,0.32139 -1.51021,-0.22831 -2.22935,-0.0251 z"
         id="path8412"
         inkscape:connector-curvature="0"
         transform="scale(0.26458333)" />
      <path
         style="opacity:1;fill:#000000;fill-opacity:1;stroke:#000000;stroke-width:16.19797516;stroke-linecap:round;stroke-linejoin:round;stroke-miterlimit:4;stroke-dasharray:none;stroke-opacity:1"
         d="m 436.31438,351.02351 c -14.84961,7.75513 -27.65239,19.50147 -41.50053,29.05584 -7.95256,6.36724 -16.80466,11.82689 -24.02123,19.01615 -1.85144,8.11067 9.52894,10.8312 13.9663,15.78271 9.66433,5.91665 18.32307,15.27303 29.60234,17.65479 6.96688,-3.2769 5.97592,-13.54676 9.27284,-19.76772 5.69742,-19.31783 12.71207,-38.41911 17.04133,-58.05036 -0.93924,-2.33594 -1.75924,-3.38444 -4.36105,-3.69141 z"
         id="path8414"
         inkscape:connector-curvature="0"
         transform="scale(0.26458333)" />
      <path
         style="opacity:1;fill:#000000;fill-opacity:1;stroke:#000000;stroke-width:16.19797516;stroke-linecap:round;stroke-linejoin:round;stroke-miterlimit:4;stroke-dasharray:none;stroke-opacity:1"
         d="m 278.31773,353.6965 c -3.12003,7.26032 3.40799,15.08339 4.50572,22.41744 6.64934,19.12547 12.3889,38.86244 20.03008,57.45181 7.21709,4.64586 13.81013,-7.36129 20.42225,-10.03496 8.4519,-6.48195 17.55185,-12.28245 25.33213,-19.55527 2.30169,-7.89649 -8.93781,-10.2851 -13.16842,-15.0372 -17.39105,-12.23704 -34.44696,-25.08053 -52.56819,-36.20164 -1.65596,-0.95008 -3.03781,0.56603 -4.55357,0.95982 z"
         id="path8416"
         inkscape:connector-curvature="0"
         transform="scale(0.26458333)" />
      <path
         style="opacity:1;fill:#000000;fill-opacity:1;stroke:#000000;stroke-width:16.19797516;stroke-linecap:round;stroke-linejoin:round;stroke-miterlimit:4;stroke-dasharray:none;stroke-opacity:1"
         d="m 297.21003,453.73557 c -22.26942,13.64432 -42.44716,30.89581 -63.78838,46.06926 -10.53259,4.10352 -3.14279,14.30347 5.68055,10.22919 25.2105,-1.74512 50.77988,-0.82576 75.92366,-1.97627 6.76425,-5.37339 -2.74705,-15.42825 -3.26888,-22.53622 -4.05785,-9.95969 -5.80016,-21.47549 -11.38288,-30.5074 -0.80389,-1.11534 -1.88214,-1.35938 -3.16407,-1.27856 z"
         id="path8418"
         inkscape:connector-curvature="0"
         transform="scale(0.26458333)" />
      <path
         style="opacity:1;fill:#ffffff;fill-opacity:1;stroke:#000000;stroke-width:4.28571415;stroke-linecap:round;stroke-linejoin:round;stroke-miterlimit:4;stroke-dasharray:none;stroke-opacity:1"
         d="M 121.18163,85.95592 C 106.29128,75.154292 84.66871,75.001534 69.69048,85.702655 59.317462,93.159357 51.918887,105.0022 50.807085,117.83905 c -2.084122,18.62443 8.858565,38.05837 26.266712,45.30944 16.820055,7.6913 38.411713,3.63732 50.774233,-10.27873 9.28616,-9.88692 14.03159,-24.13993 11.40324,-37.56633 -1.76453,-11.781 -8.26968,-22.530781 -18.06964,-29.34751 z m -2.29709,6.138289 c 4.66608,3.26809 8.64354,8.155091 10.85873,13.124751 -7.18424,0.1944 -14.37429,0.32421 -21.5377,0.004 -2.76049,-6.835696 -4.95664,-13.928668 -7.02889,-20.946471 6.53167,0.916826 12.50849,3.68863 17.70786,7.81813 z m 14.6658,25.538341 c 1.05331,9.25197 -1.16695,19.13472 -6.69524,26.53809 -1.47783,2.0621 -2.78791,4.24184 -4.67821,5.94445 -2.44609,-6.93397 -4.56162,-13.98959 -6.7776,-21.01455 5.92135,-4.40639 11.96851,-8.63058 17.96299,-12.935 0.0627,0.489 0.12538,0.97801 0.18806,1.46701 z M 89.539319,84.641152 c -2.069174,6.802507 -4.188249,13.558605 -6.517622,20.272978 -7.436172,0.45405 -14.903713,0.19197 -22.334106,0.0504 5.162949,-9.591734 14.206631,-17.35152 24.899551,-19.810224 1.346039,-0.361048 2.701017,-0.6949 4.074103,-0.936665 l -0.10458,0.363219 z m 33.306631,29.037288 c -3.31032,2.43991 -6.65902,4.82813 -10.03934,7.17 -0.86453,-2.40282 -1.64669,-4.83626 -2.33821,-7.29448 4.18384,-0.10382 8.37032,-0.079 12.55457,-0.009 z M 95.634095,93.783757 c 1.261218,3.77695 2.463152,7.575753 3.523959,11.414193 -2.557791,0.1427 -5.121035,0.0839 -7.681181,0.0643 1.283925,-4.04655 2.603779,-8.078452 3.948405,-12.083554 l 0.123313,0.357295 z m 7.574795,23.869403 c 0.87894,2.74413 1.9646,5.47509 2.41949,8.33907 -3.52244,2.53636 -6.868519,5.40117 -10.721303,7.37558 -3.567267,-2.28559 -7.113635,-4.86101 -10.142563,-7.75621 1.21788,-4.14871 2.551666,-8.43913 4.338472,-12.29856 4.224661,-0.0129 8.45243,-0.0221 12.673724,0.16757 0.4774,1.39085 0.95479,2.7817 1.43218,4.17255 z m 5.20485,16.66277 c 1.36835,3.77765 2.74042,7.95907 3.6824,11.62619 -3.35319,-2.3621 -6.72164,-4.83503 -9.92743,-7.44999 2.02334,-1.45971 4.13881,-3.09801 6.24502,-4.1762 z M 79.294713,116.24836 c -0.497918,1.47872 -1.002405,2.95617 -1.439395,4.45432 -3.400487,-2.32385 -6.800324,-4.9461 -10.164835,-7.45457 4.197687,-0.0201 8.39843,-0.0572 12.593406,0.11841 -0.329725,0.96061 -0.659452,1.92123 -0.989176,2.88184 z m 25.958927,34.58181 c 2.53388,1.96774 5.18556,3.796 7.52879,5.94565 -11.0244,5.52578 -24.709098,5.43534 -35.601245,-0.27329 5.984284,-4.24117 11.779731,-8.81931 18.043634,-12.62907 1.896752,0.55106 3.392546,2.3163 5.175641,3.37017 1.62692,1.18299 3.24292,2.38099 4.85318,3.58654 z M 71.610432,139.32362 c -1.207987,3.47217 -2.32932,7.2394 -3.622954,10.51257 -6.519832,-6.70354 -10.662835,-15.8348 -11.159763,-25.2622 -0.201993,-2.94854 -0.124846,-5.92997 0.413227,-8.84098 6.049394,4.17236 11.969477,8.55476 17.947103,12.84933 -1.192537,3.58043 -2.385073,7.16085 -3.577613,10.74128 z m 13.424867,-3.23236 c 1.281947,1.17216 4.575946,2.37005 1.726245,3.52938 -2.881244,2.0721 -5.785167,4.14299 -8.734952,6.14303 1.194048,-4.00643 2.567035,-7.9919 3.856726,-11.94654 1.078224,0.71893 2.112487,1.50101 3.151981,2.27413 z"
         id="path8420"
         inkscape:connector-curvature="0" />
    </g>
  </g>
</svg>
